<svg width="38" height="38" viewBox="0 0 38 38" fill="none" xmlns="http://www.w3.org/2000/svg">
<circle cx="19" cy="19" r="19" fill="#F2D468"/>
<path d="M21.36 20.75H21.11V21V25.86C21.11 26.9038 20.2638 27.75 19.22 27.75C18.1762 27.75 17.33 26.9038 17.33 25.86V21V20.75H17.08H12C11.0335 20.75 10.25 19.9665 10.25 19C10.25 18.0335 11.0335 17.25 12 17.25H17.08H17.33V17V12.14C17.33 11.0962 18.1762 10.25 19.22 10.25C20.2638 10.25 21.11 11.0962 21.11 12.14V17V17.25H21.36H26.44C27.4065 17.25 28.19 18.0335 28.19 19C28.19 19.9665 27.4065 20.75 26.44 20.75H21.36Z" fill="white" stroke="#F2D468" stroke-width="0.5"/>
</svg>
