<svg width="156" height="223" viewBox="0 0 156 223" fill="none" xmlns="http://www.w3.org/2000/svg">
<mask id="mask0_3_35" style="mask-type:alpha" maskUnits="userSpaceOnUse" x="0" y="0" width="156" height="223">
<rect x="0.0614624" y="0.232422" width="155.851" height="221.789" rx="20" fill="#089657"/>
</mask>
<g mask="url(#mask0_3_35)">
<path d="M42.0039 37.386L38.2614 30.9831L62.832 20.9549L33.4826 16.3936L36.2272 5.71489L59.8056 11.7655L43.8553 2.22995L49.7386 -3.19094L63.7041 5.34332L45.6746 -20.5612L51.7432 -26.7032L65.7913 -4.51398L59.3254 -24.7575L67.7307 -27.7724L71.0709 -11.0799L75.8438 -29.6508L79.6323 -28.6786C79.6323 -28.6786 77.2227 -1.83261 79.3932 1.94065L81.5637 5.71391L102.585 -4.48102L119.115 -9.42047L148.951 1.97478L163.557 30.7153L166.659 50.071L162.484 66.3169L169.902 77.6235L166.919 89.231L162.548 97.5123L162.884 85.7235L157.218 79.8171L120.839 94.7296L100.002 89.3826L81.152 73.6603L71.1897 51.3081L66.1461 27.2232L41.9987 37.3846L42.0039 37.386Z" fill="#35CB6A"/>
</g>
<rect width="155.851" height="221.789" rx="20" fill="#35CB6A" fill-opacity="0.29"/>
<ellipse cx="27.9594" cy="191.383" rx="16.9594" ry="17.3834" fill="white"/>
<path d="M37.0548 192.124L37.3069 192.128L37.3069 191.872L37.3069 190.394L37.3069 190.142L37.0591 190.142L28.8875 190.142L28.9005 181.666L28.9008 181.413L28.6527 181.413L27.3456 181.413L27.098 181.413L27.0976 181.664L27.0865 190.141L18.7553 190.138L18.5077 190.137L18.5074 190.389L18.5055 191.719L18.5051 191.972L18.7532 191.972L27.0839 191.974L27.0709 200.451L27.0705 200.703L27.3186 200.703L28.6258 200.704L28.8734 200.704L28.8737 200.452L28.8849 191.979L37.0548 192.124Z" fill="#024F2D" stroke="#024F2D" stroke-width="0.5"/>
<path d="M25.824 130.52L20.96 130.52L20.064 133L18.528 133L22.56 121.912L24.24 121.912L28.256 133L26.72 133L25.824 130.52ZM25.408 129.336L23.392 123.704L21.376 129.336L25.408 129.336ZM30.7973 122.808C30.5199 122.808 30.2853 122.712 30.0933 122.52C29.9119 122.328 29.8213 122.093 29.8213 121.816C29.8213 121.539 29.9119 121.304 30.0933 121.112C30.2853 120.92 30.5199 120.824 30.7973 120.824C31.0746 120.824 31.3039 120.92 31.4853 121.112C31.6773 121.304 31.7733 121.539 31.7733 121.816C31.7733 122.093 31.6773 122.328 31.4853 122.52C31.3039 122.712 31.0746 122.808 30.7973 122.808ZM31.5173 134.904C31.5173 135.683 31.3199 136.253 30.9253 136.616C30.5306 136.979 29.9546 137.16 29.1973 137.16L28.3493 137.16L28.3493 135.928L28.9573 135.928C29.3626 135.928 29.6453 135.848 29.8053 135.688C29.9759 135.528 30.0613 135.256 30.0613 134.872L30.0613 124.232L31.5173 124.232L31.5173 134.904ZM37.806 133.144C36.9847 133.144 36.238 132.957 35.566 132.584C34.9047 132.211 34.382 131.683 33.998 131C33.6247 130.307 33.438 129.507 33.438 128.6C33.438 127.704 33.63 126.915 34.014 126.232C34.4087 125.539 34.942 125.011 35.614 124.648C36.286 124.275 37.038 124.088 37.87 124.088C38.702 124.088 39.454 124.275 40.126 124.648C40.798 125.011 41.326 125.533 41.71 126.216C42.1047 126.899 42.302 127.693 42.302 128.6C42.302 129.507 42.0993 130.307 41.694 131C41.2993 131.683 40.7607 132.211 40.078 132.584C39.3953 132.957 38.638 133.144 37.806 133.144ZM37.806 131.864C38.3287 131.864 38.8193 131.741 39.278 131.496C39.7367 131.251 40.1047 130.883 40.382 130.392C40.67 129.901 40.814 129.304 40.814 128.6C40.814 127.896 40.6753 127.299 40.398 126.808C40.1207 126.317 39.758 125.955 39.31 125.72C38.862 125.475 38.3767 125.352 37.854 125.352C37.3207 125.352 36.83 125.475 36.382 125.72C35.9447 125.955 35.5927 126.317 35.326 126.808C35.0593 127.299 34.926 127.896 34.926 128.6C34.926 129.315 35.054 129.917 35.31 130.408C35.5767 130.899 35.9287 131.267 36.366 131.512C36.8033 131.747 37.2833 131.864 37.806 131.864ZM51.9924 124.232L51.9924 133L50.5364 133L50.5364 131.704C50.259 132.152 49.8697 132.504 49.3684 132.76C48.8777 133.005 48.3337 133.128 47.7364 133.128C47.0537 133.128 46.4404 132.989 45.8964 132.712C45.3524 132.424 44.9204 131.997 44.6004 131.432C44.291 130.867 44.1364 130.179 44.1364 129.368L44.1364 124.232L45.5764 124.232L45.5764 129.176C45.5764 130.04 45.795 130.707 46.2324 131.176C46.6697 131.635 47.267 131.864 48.0244 131.864C48.803 131.864 49.4164 131.624 49.8644 131.144C50.3124 130.664 50.5364 129.965 50.5364 129.048L50.5364 124.232L51.9924 124.232ZM56.2268 125.432L56.2268 130.6C56.2268 131.027 56.3174 131.331 56.4988 131.512C56.6801 131.683 56.9948 131.768 57.4428 131.768L58.5148 131.768L58.5148 133L57.2028 133C56.3921 133 55.7841 132.813 55.3788 132.44C54.9734 132.067 54.7708 131.453 54.7708 130.6L54.7708 125.432L53.6348 125.432L53.6348 124.232L54.7708 124.232L54.7708 122.024L56.2268 122.024L56.2268 124.232L58.5148 124.232L58.5148 125.432L56.2268 125.432ZM68.2789 128.28C68.2789 128.557 68.2629 128.851 68.2309 129.16L61.2229 129.16C61.2762 130.024 61.5695 130.701 62.1029 131.192C62.6469 131.672 63.3029 131.912 64.0709 131.912C64.7002 131.912 65.2229 131.768 65.6389 131.48C66.0655 131.181 66.3642 130.787 66.5349 130.296L68.1029 130.296C67.8682 131.139 67.3989 131.827 66.6949 132.36C65.9909 132.883 65.1162 133.144 64.0709 133.144C63.2389 133.144 62.4922 132.957 61.8309 132.584C61.1802 132.211 60.6682 131.683 60.2949 131C59.9215 130.307 59.7349 129.507 59.7349 128.6C59.7349 127.693 59.9162 126.899 60.2789 126.216C60.6415 125.533 61.1482 125.011 61.7989 124.648C62.4602 124.275 63.2175 124.088 64.0709 124.088C64.9029 124.088 65.6389 124.269 66.2789 124.632C66.9189 124.995 67.4095 125.496 67.7509 126.136C68.1029 126.765 68.2789 127.48 68.2789 128.28ZM66.7749 127.976C66.7749 127.421 66.6522 126.947 66.4069 126.552C66.1615 126.147 65.8255 125.843 65.3989 125.64C64.9829 125.427 64.5189 125.32 64.0069 125.32C63.2709 125.32 62.6415 125.555 62.1189 126.024C61.6069 126.493 61.3135 127.144 61.2389 127.976L66.7749 127.976ZM71.6568 125.656C71.9128 125.155 72.2754 124.765 72.7448 124.488C73.2248 124.211 73.8061 124.072 74.4888 124.072L74.4888 125.576L74.1048 125.576C72.4728 125.576 71.6568 126.461 71.6568 128.232L71.6568 133L70.2008 133L70.2008 124.232L71.6568 124.232L71.6568 125.656ZM79.8911 128.584C79.8911 127.688 80.0725 126.904 80.4351 126.232C80.7978 125.549 81.2938 125.021 81.9231 124.648C82.5631 124.275 83.2778 124.088 84.0671 124.088C84.7498 124.088 85.3845 124.248 85.9711 124.568C86.5578 124.877 87.0058 125.288 87.3151 125.8L87.3151 121.16L88.7871 121.16L88.7871 133L87.3151 133L87.3151 131.352C87.0271 131.875 86.6005 132.307 86.0351 132.648C85.4698 132.979 84.8085 133.144 84.0511 133.144C83.2725 133.144 82.5631 132.952 81.9231 132.568C81.2938 132.184 80.7978 131.645 80.4351 130.952C80.0725 130.259 79.8911 129.469 79.8911 128.584ZM87.3151 128.6C87.3151 127.939 87.1818 127.363 86.9151 126.872C86.6485 126.381 86.2858 126.008 85.8271 125.752C85.3791 125.485 84.8831 125.352 84.3391 125.352C83.7951 125.352 83.2991 125.48 82.8511 125.736C82.4031 125.992 82.0458 126.365 81.7791 126.856C81.5125 127.347 81.3791 127.923 81.3791 128.584C81.3791 129.256 81.5125 129.843 81.7791 130.344C82.0458 130.835 82.4031 131.213 82.8511 131.48C83.2991 131.736 83.7951 131.864 84.3391 131.864C84.8831 131.864 85.3791 131.736 85.8271 131.48C86.2858 131.213 86.6485 130.835 86.9151 130.344C87.1818 129.843 87.3151 129.261 87.3151 128.6ZM99.2476 128.28C99.2476 128.557 99.2316 128.851 99.1996 129.16L92.1916 129.16C92.245 130.024 92.5383 130.701 93.0716 131.192C93.6156 131.672 94.2716 131.912 95.0396 131.912C95.669 131.912 96.1916 131.768 96.6076 131.48C97.0343 131.181 97.333 130.787 97.5036 130.296L99.0716 130.296C98.837 131.139 98.3676 131.827 97.6636 132.36C96.9596 132.883 96.085 133.144 95.0396 133.144C94.2076 133.144 93.461 132.957 92.7996 132.584C92.149 132.211 91.637 131.683 91.2636 131C90.8903 130.307 90.7036 129.507 90.7036 128.6C90.7036 127.693 90.885 126.899 91.2476 126.216C91.6103 125.533 92.117 125.011 92.7676 124.648C93.429 124.275 94.1863 124.088 95.0396 124.088C95.8716 124.088 96.6076 124.269 97.2476 124.632C97.8876 124.995 98.3783 125.496 98.7196 126.136C99.0716 126.765 99.2476 127.48 99.2476 128.28ZM97.7436 127.976C97.7436 127.421 97.621 126.947 97.3756 126.552C97.1303 126.147 96.7943 125.843 96.3676 125.64C95.9516 125.427 95.4876 125.32 94.9756 125.32C94.2396 125.32 93.6103 125.555 93.0876 126.024C92.5756 126.493 92.2823 127.144 92.2076 127.976L97.7436 127.976ZM20.688 149.848C20.976 149.347 21.4027 148.931 21.968 148.6C22.544 148.259 23.2107 148.088 23.968 148.088C24.7467 148.088 25.4507 148.275 26.08 148.648C26.72 149.021 27.2213 149.549 27.584 150.232C27.9467 150.904 28.128 151.688 28.128 152.584C28.128 153.469 27.9467 154.259 27.584 154.952C27.2213 155.645 26.72 156.184 26.08 156.568C25.4507 156.952 24.7467 157.144 23.968 157.144C23.2213 157.144 22.56 156.979 21.984 156.648C21.4187 156.307 20.9867 155.885 20.688 155.384L20.688 161.16L19.232 161.16L19.232 148.232L20.688 148.232L20.688 149.848ZM26.64 152.584C26.64 151.923 26.5067 151.347 26.24 150.856C25.9733 150.365 25.6107 149.992 25.152 149.736C24.704 149.48 24.208 149.352 23.664 149.352C23.1307 149.352 22.6347 149.485 22.176 149.752C21.728 150.008 21.3653 150.387 21.088 150.888C20.8213 151.379 20.688 151.949 20.688 152.6C20.688 153.261 20.8213 153.843 21.088 154.344C21.3653 154.835 21.728 155.213 22.176 155.48C22.6347 155.736 23.1307 155.864 23.664 155.864C24.208 155.864 24.704 155.736 25.152 155.48C25.6107 155.213 25.9733 154.835 26.24 154.344C26.5067 153.843 26.64 153.256 26.64 152.584ZM31.5005 145.16L31.5005 157L30.0445 157L30.0445 145.16L31.5005 145.16ZM33.438 152.584C33.438 151.688 33.6193 150.904 33.982 150.232C34.3447 149.549 34.8407 149.021 35.47 148.648C36.11 148.275 36.8193 148.088 37.598 148.088C38.366 148.088 39.0327 148.253 39.598 148.584C40.1633 148.915 40.5847 149.331 40.862 149.832L40.862 148.232L42.334 148.232L42.334 157L40.862 157L40.862 155.368C40.574 155.88 40.142 156.307 39.566 156.648C39.0007 156.979 38.3393 157.144 37.582 157.144C36.8033 157.144 36.0993 156.952 35.47 156.568C34.8407 156.184 34.3447 155.645 33.982 154.952C33.6193 154.259 33.438 153.469 33.438 152.584ZM40.862 152.6C40.862 151.939 40.7287 151.363 40.462 150.872C40.1953 150.381 39.8327 150.008 39.374 149.752C38.926 149.485 38.43 149.352 37.886 149.352C37.342 149.352 36.846 149.48 36.398 149.736C35.95 149.992 35.5927 150.365 35.326 150.856C35.0593 151.347 34.926 151.923 34.926 152.584C34.926 153.256 35.0593 153.843 35.326 154.344C35.5927 154.835 35.95 155.213 36.398 155.48C36.846 155.736 37.342 155.864 37.886 155.864C38.43 155.864 38.926 155.736 39.374 155.48C39.8327 155.213 40.1953 154.835 40.462 154.344C40.7287 153.843 40.862 153.261 40.862 152.6ZM49.0665 148.072C50.1332 148.072 50.9972 148.397 51.6585 149.048C52.3198 149.688 52.6505 150.616 52.6505 151.832L52.6505 157L51.2105 157L51.2105 152.04C51.2105 151.165 50.9918 150.499 50.5545 150.04C50.1172 149.571 49.5198 149.336 48.7625 149.336C47.9945 149.336 47.3812 149.576 46.9225 150.056C46.4745 150.536 46.2505 151.235 46.2505 152.152L46.2505 157L44.7945 157L44.7945 148.232L46.2505 148.232L46.2505 149.48C46.5385 149.032 46.9278 148.685 47.4185 148.44C47.9198 148.195 48.4692 148.072 49.0665 148.072ZM56.8049 149.432L56.8049 154.6C56.8049 155.027 56.8955 155.331 57.0769 155.512C57.2582 155.683 57.5729 155.768 58.0209 155.768L59.0929 155.768L59.0929 157L57.7809 157C56.9702 157 56.3622 156.813 55.9569 156.44C55.5515 156.067 55.3489 155.453 55.3489 154.6L55.3489 149.432L54.2129 149.432L54.2129 148.232L55.3489 148.232L55.3489 146.024L56.8049 146.024L56.8049 148.232L59.0929 148.232L59.0929 149.432L56.8049 149.432ZM68.857 152.28C68.857 152.557 68.841 152.851 68.809 153.16L61.801 153.16C61.8543 154.024 62.1477 154.701 62.681 155.192C63.225 155.672 63.881 155.912 64.649 155.912C65.2783 155.912 65.801 155.768 66.217 155.48C66.6437 155.181 66.9423 154.787 67.113 154.296L68.681 154.296C68.4463 155.139 67.977 155.827 67.273 156.36C66.569 156.883 65.6943 157.144 64.649 157.144C63.817 157.144 63.0703 156.957 62.409 156.584C61.7583 156.211 61.2463 155.683 60.873 155C60.4997 154.307 60.313 153.507 60.313 152.6C60.313 151.693 60.4943 150.899 60.857 150.216C61.2197 149.533 61.7263 149.011 62.377 148.648C63.0383 148.275 63.7957 148.088 64.649 148.088C65.481 148.088 66.217 148.269 66.857 148.632C67.497 148.995 67.9877 149.496 68.329 150.136C68.681 150.765 68.857 151.48 68.857 152.28ZM67.353 151.976C67.353 151.421 67.2303 150.947 66.985 150.552C66.7397 150.147 66.4037 149.843 65.977 149.64C65.561 149.427 65.097 149.32 64.585 149.32C63.849 149.32 63.2197 149.555 62.697 150.024C62.185 150.493 61.8917 151.144 61.817 151.976L67.353 151.976ZM73.8829 157.144C73.2109 157.144 72.6082 157.032 72.0749 156.808C71.5415 156.573 71.1202 156.253 70.8109 155.848C70.5015 155.432 70.3309 154.957 70.2989 154.424L71.8029 154.424C71.8455 154.861 72.0482 155.219 72.4109 155.496C72.7842 155.773 73.2695 155.912 73.8669 155.912C74.4215 155.912 74.8589 155.789 75.1789 155.544C75.4989 155.299 75.6589 154.989 75.6589 154.616C75.6589 154.232 75.4882 153.949 75.1469 153.768C74.8055 153.576 74.2775 153.389 73.5629 153.208C72.9122 153.037 72.3789 152.867 71.9629 152.696C71.5575 152.515 71.2055 152.253 70.9069 151.912C70.6189 151.56 70.4749 151.101 70.4749 150.536C70.4749 150.088 70.6082 149.677 70.8749 149.304C71.1415 148.931 71.5202 148.637 72.0109 148.424C72.5015 148.2 73.0615 148.088 73.6909 148.088C74.6615 148.088 75.4455 148.333 76.0429 148.824C76.6402 149.315 76.9602 149.987 77.0029 150.84L75.5469 150.84C75.5149 150.381 75.3282 150.013 74.9869 149.736C74.6562 149.459 74.2082 149.32 73.6429 149.32C73.1202 149.32 72.7042 149.432 72.3949 149.656C72.0855 149.88 71.9309 150.173 71.9309 150.536C71.9309 150.824 72.0215 151.064 72.2029 151.256C72.3949 151.437 72.6295 151.587 72.9069 151.704C73.1949 151.811 73.5895 151.933 74.0909 152.072C74.7202 152.243 75.2322 152.413 75.6269 152.584C76.0215 152.744 76.3575 152.989 76.6349 153.32C76.9229 153.651 77.0722 154.083 77.0829 154.616C77.0829 155.096 76.9495 155.528 76.6829 155.912C76.4162 156.296 76.0375 156.6 75.5469 156.824C75.0669 157.037 74.5122 157.144 73.8829 157.144Z" fill="white"/>
<path d="M25.824 130.52L20.96 130.52L20.064 133L18.528 133L22.56 121.912L24.24 121.912L28.256 133L26.72 133L25.824 130.52ZM25.408 129.336L23.392 123.704L21.376 129.336L25.408 129.336ZM30.7973 122.808C30.5199 122.808 30.2853 122.712 30.0933 122.52C29.9119 122.328 29.8213 122.093 29.8213 121.816C29.8213 121.539 29.9119 121.304 30.0933 121.112C30.2853 120.92 30.5199 120.824 30.7973 120.824C31.0746 120.824 31.3039 120.92 31.4853 121.112C31.6773 121.304 31.7733 121.539 31.7733 121.816C31.7733 122.093 31.6773 122.328 31.4853 122.52C31.3039 122.712 31.0746 122.808 30.7973 122.808ZM31.5173 134.904C31.5173 135.683 31.3199 136.253 30.9253 136.616C30.5306 136.979 29.9546 137.16 29.1973 137.16L28.3493 137.16L28.3493 135.928L28.9573 135.928C29.3626 135.928 29.6453 135.848 29.8053 135.688C29.9759 135.528 30.0613 135.256 30.0613 134.872L30.0613 124.232L31.5173 124.232L31.5173 134.904ZM37.806 133.144C36.9847 133.144 36.238 132.957 35.566 132.584C34.9047 132.211 34.382 131.683 33.998 131C33.6247 130.307 33.438 129.507 33.438 128.6C33.438 127.704 33.63 126.915 34.014 126.232C34.4087 125.539 34.942 125.011 35.614 124.648C36.286 124.275 37.038 124.088 37.87 124.088C38.702 124.088 39.454 124.275 40.126 124.648C40.798 125.011 41.326 125.533 41.71 126.216C42.1047 126.899 42.302 127.693 42.302 128.6C42.302 129.507 42.0993 130.307 41.694 131C41.2993 131.683 40.7607 132.211 40.078 132.584C39.3953 132.957 38.638 133.144 37.806 133.144ZM37.806 131.864C38.3287 131.864 38.8193 131.741 39.278 131.496C39.7367 131.251 40.1047 130.883 40.382 130.392C40.67 129.901 40.814 129.304 40.814 128.6C40.814 127.896 40.6753 127.299 40.398 126.808C40.1207 126.317 39.758 125.955 39.31 125.72C38.862 125.475 38.3767 125.352 37.854 125.352C37.3207 125.352 36.83 125.475 36.382 125.72C35.9447 125.955 35.5927 126.317 35.326 126.808C35.0593 127.299 34.926 127.896 34.926 128.6C34.926 129.315 35.054 129.917 35.31 130.408C35.5767 130.899 35.9287 131.267 36.366 131.512C36.8033 131.747 37.2833 131.864 37.806 131.864ZM51.9924 124.232L51.9924 133L50.5364 133L50.5364 131.704C50.259 132.152 49.8697 132.504 49.3684 132.76C48.8777 133.005 48.3337 133.128 47.7364 133.128C47.0537 133.128 46.4404 132.989 45.8964 132.712C45.3524 132.424 44.9204 131.997 44.6004 131.432C44.291 130.867 44.1364 130.179 44.1364 129.368L44.1364 124.232L45.5764 124.232L45.5764 129.176C45.5764 130.04 45.795 130.707 46.2324 131.176C46.6697 131.635 47.267 131.864 48.0244 131.864C48.803 131.864 49.4164 131.624 49.8644 131.144C50.3124 130.664 50.5364 129.965 50.5364 129.048L50.5364 124.232L51.9924 124.232ZM56.2268 125.432L56.2268 130.6C56.2268 131.027 56.3174 131.331 56.4988 131.512C56.6801 131.683 56.9948 131.768 57.4428 131.768L58.5148 131.768L58.5148 133L57.2028 133C56.3921 133 55.7841 132.813 55.3788 132.44C54.9734 132.067 54.7708 131.453 54.7708 130.6L54.7708 125.432L53.6348 125.432L53.6348 124.232L54.7708 124.232L54.7708 122.024L56.2268 122.024L56.2268 124.232L58.5148 124.232L58.5148 125.432L56.2268 125.432ZM68.2789 128.28C68.2789 128.557 68.2629 128.851 68.2309 129.16L61.2229 129.16C61.2762 130.024 61.5695 130.701 62.1029 131.192C62.6469 131.672 63.3029 131.912 64.0709 131.912C64.7002 131.912 65.2229 131.768 65.6389 131.48C66.0655 131.181 66.3642 130.787 66.5349 130.296L68.1029 130.296C67.8682 131.139 67.3989 131.827 66.6949 132.36C65.9909 132.883 65.1162 133.144 64.0709 133.144C63.2389 133.144 62.4922 132.957 61.8309 132.584C61.1802 132.211 60.6682 131.683 60.2949 131C59.9215 130.307 59.7349 129.507 59.7349 128.6C59.7349 127.693 59.9162 126.899 60.2789 126.216C60.6415 125.533 61.1482 125.011 61.7989 124.648C62.4602 124.275 63.2175 124.088 64.0709 124.088C64.9029 124.088 65.6389 124.269 66.2789 124.632C66.9189 124.995 67.4095 125.496 67.7509 126.136C68.1029 126.765 68.2789 127.48 68.2789 128.28ZM66.7749 127.976C66.7749 127.421 66.6522 126.947 66.4069 126.552C66.1615 126.147 65.8255 125.843 65.3989 125.64C64.9829 125.427 64.5189 125.32 64.0069 125.32C63.2709 125.32 62.6415 125.555 62.1189 126.024C61.6069 126.493 61.3135 127.144 61.2389 127.976L66.7749 127.976ZM71.6568 125.656C71.9128 125.155 72.2754 124.765 72.7448 124.488C73.2248 124.211 73.8061 124.072 74.4888 124.072L74.4888 125.576L74.1048 125.576C72.4728 125.576 71.6568 126.461 71.6568 128.232L71.6568 133L70.2008 133L70.2008 124.232L71.6568 124.232L71.6568 125.656ZM79.8911 128.584C79.8911 127.688 80.0725 126.904 80.4351 126.232C80.7978 125.549 81.2938 125.021 81.9231 124.648C82.5631 124.275 83.2778 124.088 84.0671 124.088C84.7498 124.088 85.3845 124.248 85.9711 124.568C86.5578 124.877 87.0058 125.288 87.3151 125.8L87.3151 121.16L88.7871 121.16L88.7871 133L87.3151 133L87.3151 131.352C87.0271 131.875 86.6005 132.307 86.0351 132.648C85.4698 132.979 84.8085 133.144 84.0511 133.144C83.2725 133.144 82.5631 132.952 81.9231 132.568C81.2938 132.184 80.7978 131.645 80.4351 130.952C80.0725 130.259 79.8911 129.469 79.8911 128.584ZM87.3151 128.6C87.3151 127.939 87.1818 127.363 86.9151 126.872C86.6485 126.381 86.2858 126.008 85.8271 125.752C85.3791 125.485 84.8831 125.352 84.3391 125.352C83.7951 125.352 83.2991 125.48 82.8511 125.736C82.4031 125.992 82.0458 126.365 81.7791 126.856C81.5125 127.347 81.3791 127.923 81.3791 128.584C81.3791 129.256 81.5125 129.843 81.7791 130.344C82.0458 130.835 82.4031 131.213 82.8511 131.48C83.2991 131.736 83.7951 131.864 84.3391 131.864C84.8831 131.864 85.3791 131.736 85.8271 131.48C86.2858 131.213 86.6485 130.835 86.9151 130.344C87.1818 129.843 87.3151 129.261 87.3151 128.6ZM99.2476 128.28C99.2476 128.557 99.2316 128.851 99.1996 129.16L92.1916 129.16C92.245 130.024 92.5383 130.701 93.0716 131.192C93.6156 131.672 94.2716 131.912 95.0396 131.912C95.669 131.912 96.1916 131.768 96.6076 131.48C97.0343 131.181 97.333 130.787 97.5036 130.296L99.0716 130.296C98.837 131.139 98.3676 131.827 97.6636 132.36C96.9596 132.883 96.085 133.144 95.0396 133.144C94.2076 133.144 93.461 132.957 92.7996 132.584C92.149 132.211 91.637 131.683 91.2636 131C90.8903 130.307 90.7036 129.507 90.7036 128.6C90.7036 127.693 90.885 126.899 91.2476 126.216C91.6103 125.533 92.117 125.011 92.7676 124.648C93.429 124.275 94.1863 124.088 95.0396 124.088C95.8716 124.088 96.6076 124.269 97.2476 124.632C97.8876 124.995 98.3783 125.496 98.7196 126.136C99.0716 126.765 99.2476 127.48 99.2476 128.28ZM97.7436 127.976C97.7436 127.421 97.621 126.947 97.3756 126.552C97.1303 126.147 96.7943 125.843 96.3676 125.64C95.9516 125.427 95.4876 125.32 94.9756 125.32C94.2396 125.32 93.6103 125.555 93.0876 126.024C92.5756 126.493 92.2823 127.144 92.2076 127.976L97.7436 127.976ZM20.688 149.848C20.976 149.347 21.4027 148.931 21.968 148.6C22.544 148.259 23.2107 148.088 23.968 148.088C24.7467 148.088 25.4507 148.275 26.08 148.648C26.72 149.021 27.2213 149.549 27.584 150.232C27.9467 150.904 28.128 151.688 28.128 152.584C28.128 153.469 27.9467 154.259 27.584 154.952C27.2213 155.645 26.72 156.184 26.08 156.568C25.4507 156.952 24.7467 157.144 23.968 157.144C23.2213 157.144 22.56 156.979 21.984 156.648C21.4187 156.307 20.9867 155.885 20.688 155.384L20.688 161.16L19.232 161.16L19.232 148.232L20.688 148.232L20.688 149.848ZM26.64 152.584C26.64 151.923 26.5067 151.347 26.24 150.856C25.9733 150.365 25.6107 149.992 25.152 149.736C24.704 149.48 24.208 149.352 23.664 149.352C23.1307 149.352 22.6347 149.485 22.176 149.752C21.728 150.008 21.3653 150.387 21.088 150.888C20.8213 151.379 20.688 151.949 20.688 152.6C20.688 153.261 20.8213 153.843 21.088 154.344C21.3653 154.835 21.728 155.213 22.176 155.48C22.6347 155.736 23.1307 155.864 23.664 155.864C24.208 155.864 24.704 155.736 25.152 155.48C25.6107 155.213 25.9733 154.835 26.24 154.344C26.5067 153.843 26.64 153.256 26.64 152.584ZM31.5005 145.16L31.5005 157L30.0445 157L30.0445 145.16L31.5005 145.16ZM33.438 152.584C33.438 151.688 33.6193 150.904 33.982 150.232C34.3447 149.549 34.8407 149.021 35.47 148.648C36.11 148.275 36.8193 148.088 37.598 148.088C38.366 148.088 39.0327 148.253 39.598 148.584C40.1633 148.915 40.5847 149.331 40.862 149.832L40.862 148.232L42.334 148.232L42.334 157L40.862 157L40.862 155.368C40.574 155.88 40.142 156.307 39.566 156.648C39.0007 156.979 38.3393 157.144 37.582 157.144C36.8033 157.144 36.0993 156.952 35.47 156.568C34.8407 156.184 34.3447 155.645 33.982 154.952C33.6193 154.259 33.438 153.469 33.438 152.584ZM40.862 152.6C40.862 151.939 40.7287 151.363 40.462 150.872C40.1953 150.381 39.8327 150.008 39.374 149.752C38.926 149.485 38.43 149.352 37.886 149.352C37.342 149.352 36.846 149.48 36.398 149.736C35.95 149.992 35.5927 150.365 35.326 150.856C35.0593 151.347 34.926 151.923 34.926 152.584C34.926 153.256 35.0593 153.843 35.326 154.344C35.5927 154.835 35.95 155.213 36.398 155.48C36.846 155.736 37.342 155.864 37.886 155.864C38.43 155.864 38.926 155.736 39.374 155.48C39.8327 155.213 40.1953 154.835 40.462 154.344C40.7287 153.843 40.862 153.261 40.862 152.6ZM49.0665 148.072C50.1332 148.072 50.9972 148.397 51.6585 149.048C52.3198 149.688 52.6505 150.616 52.6505 151.832L52.6505 157L51.2105 157L51.2105 152.04C51.2105 151.165 50.9918 150.499 50.5545 150.04C50.1172 149.571 49.5198 149.336 48.7625 149.336C47.9945 149.336 47.3812 149.576 46.9225 150.056C46.4745 150.536 46.2505 151.235 46.2505 152.152L46.2505 157L44.7945 157L44.7945 148.232L46.2505 148.232L46.2505 149.48C46.5385 149.032 46.9278 148.685 47.4185 148.44C47.9198 148.195 48.4692 148.072 49.0665 148.072ZM56.8049 149.432L56.8049 154.6C56.8049 155.027 56.8955 155.331 57.0769 155.512C57.2582 155.683 57.5729 155.768 58.0209 155.768L59.0929 155.768L59.0929 157L57.7809 157C56.9702 157 56.3622 156.813 55.9569 156.44C55.5515 156.067 55.3489 155.453 55.3489 154.6L55.3489 149.432L54.2129 149.432L54.2129 148.232L55.3489 148.232L55.3489 146.024L56.8049 146.024L56.8049 148.232L59.0929 148.232L59.0929 149.432L56.8049 149.432ZM68.857 152.28C68.857 152.557 68.841 152.851 68.809 153.16L61.801 153.16C61.8543 154.024 62.1477 154.701 62.681 155.192C63.225 155.672 63.881 155.912 64.649 155.912C65.2783 155.912 65.801 155.768 66.217 155.48C66.6437 155.181 66.9423 154.787 67.113 154.296L68.681 154.296C68.4463 155.139 67.977 155.827 67.273 156.36C66.569 156.883 65.6943 157.144 64.649 157.144C63.817 157.144 63.0703 156.957 62.409 156.584C61.7583 156.211 61.2463 155.683 60.873 155C60.4997 154.307 60.313 153.507 60.313 152.6C60.313 151.693 60.4943 150.899 60.857 150.216C61.2197 149.533 61.7263 149.011 62.377 148.648C63.0383 148.275 63.7957 148.088 64.649 148.088C65.481 148.088 66.217 148.269 66.857 148.632C67.497 148.995 67.9877 149.496 68.329 150.136C68.681 150.765 68.857 151.48 68.857 152.28ZM67.353 151.976C67.353 151.421 67.2303 150.947 66.985 150.552C66.7397 150.147 66.4037 149.843 65.977 149.64C65.561 149.427 65.097 149.32 64.585 149.32C63.849 149.32 63.2197 149.555 62.697 150.024C62.185 150.493 61.8917 151.144 61.817 151.976L67.353 151.976ZM73.8829 157.144C73.2109 157.144 72.6082 157.032 72.0749 156.808C71.5415 156.573 71.1202 156.253 70.8109 155.848C70.5015 155.432 70.3309 154.957 70.2989 154.424L71.8029 154.424C71.8455 154.861 72.0482 155.219 72.4109 155.496C72.7842 155.773 73.2695 155.912 73.8669 155.912C74.4215 155.912 74.8589 155.789 75.1789 155.544C75.4989 155.299 75.6589 154.989 75.6589 154.616C75.6589 154.232 75.4882 153.949 75.1469 153.768C74.8055 153.576 74.2775 153.389 73.5629 153.208C72.9122 153.037 72.3789 152.867 71.9629 152.696C71.5575 152.515 71.2055 152.253 70.9069 151.912C70.6189 151.56 70.4749 151.101 70.4749 150.536C70.4749 150.088 70.6082 149.677 70.8749 149.304C71.1415 148.931 71.5202 148.637 72.0109 148.424C72.5015 148.2 73.0615 148.088 73.6909 148.088C74.6615 148.088 75.4455 148.333 76.0429 148.824C76.6402 149.315 76.9602 149.987 77.0029 150.84L75.5469 150.84C75.5149 150.381 75.3282 150.013 74.9869 149.736C74.6562 149.459 74.2082 149.32 73.6429 149.32C73.1202 149.32 72.7042 149.432 72.3949 149.656C72.0855 149.88 71.9309 150.173 71.9309 150.536C71.9309 150.824 72.0215 151.064 72.2029 151.256C72.3949 151.437 72.6295 151.587 72.9069 151.704C73.1949 151.811 73.5895 151.933 74.0909 152.072C74.7202 152.243 75.2322 152.413 75.6269 152.584C76.0215 152.744 76.3575 152.989 76.6349 153.32C76.9229 153.651 77.0722 154.083 77.0829 154.616C77.0829 155.096 76.9495 155.528 76.6829 155.912C76.4162 156.296 76.0375 156.6 75.5469 156.824C75.0669 157.037 74.5122 157.144 73.8829 157.144Z" fill="white"/>
<path d="M25.824 130.52L20.96 130.52L20.064 133L18.528 133L22.56 121.912L24.24 121.912L28.256 133L26.72 133L25.824 130.52ZM25.408 129.336L23.392 123.704L21.376 129.336L25.408 129.336ZM30.7973 122.808C30.5199 122.808 30.2853 122.712 30.0933 122.52C29.9119 122.328 29.8213 122.093 29.8213 121.816C29.8213 121.539 29.9119 121.304 30.0933 121.112C30.2853 120.92 30.5199 120.824 30.7973 120.824C31.0746 120.824 31.3039 120.92 31.4853 121.112C31.6773 121.304 31.7733 121.539 31.7733 121.816C31.7733 122.093 31.6773 122.328 31.4853 122.52C31.3039 122.712 31.0746 122.808 30.7973 122.808ZM31.5173 134.904C31.5173 135.683 31.3199 136.253 30.9253 136.616C30.5306 136.979 29.9546 137.16 29.1973 137.16L28.3493 137.16L28.3493 135.928L28.9573 135.928C29.3626 135.928 29.6453 135.848 29.8053 135.688C29.9759 135.528 30.0613 135.256 30.0613 134.872L30.0613 124.232L31.5173 124.232L31.5173 134.904ZM37.806 133.144C36.9847 133.144 36.238 132.957 35.566 132.584C34.9047 132.211 34.382 131.683 33.998 131C33.6247 130.307 33.438 129.507 33.438 128.6C33.438 127.704 33.63 126.915 34.014 126.232C34.4087 125.539 34.942 125.011 35.614 124.648C36.286 124.275 37.038 124.088 37.87 124.088C38.702 124.088 39.454 124.275 40.126 124.648C40.798 125.011 41.326 125.533 41.71 126.216C42.1047 126.899 42.302 127.693 42.302 128.6C42.302 129.507 42.0993 130.307 41.694 131C41.2993 131.683 40.7607 132.211 40.078 132.584C39.3953 132.957 38.638 133.144 37.806 133.144ZM37.806 131.864C38.3287 131.864 38.8193 131.741 39.278 131.496C39.7367 131.251 40.1047 130.883 40.382 130.392C40.67 129.901 40.814 129.304 40.814 128.6C40.814 127.896 40.6753 127.299 40.398 126.808C40.1207 126.317 39.758 125.955 39.31 125.72C38.862 125.475 38.3767 125.352 37.854 125.352C37.3207 125.352 36.83 125.475 36.382 125.72C35.9447 125.955 35.5927 126.317 35.326 126.808C35.0593 127.299 34.926 127.896 34.926 128.6C34.926 129.315 35.054 129.917 35.31 130.408C35.5767 130.899 35.9287 131.267 36.366 131.512C36.8033 131.747 37.2833 131.864 37.806 131.864ZM51.9924 124.232L51.9924 133L50.5364 133L50.5364 131.704C50.259 132.152 49.8697 132.504 49.3684 132.76C48.8777 133.005 48.3337 133.128 47.7364 133.128C47.0537 133.128 46.4404 132.989 45.8964 132.712C45.3524 132.424 44.9204 131.997 44.6004 131.432C44.291 130.867 44.1364 130.179 44.1364 129.368L44.1364 124.232L45.5764 124.232L45.5764 129.176C45.5764 130.04 45.795 130.707 46.2324 131.176C46.6697 131.635 47.267 131.864 48.0244 131.864C48.803 131.864 49.4164 131.624 49.8644 131.144C50.3124 130.664 50.5364 129.965 50.5364 129.048L50.5364 124.232L51.9924 124.232ZM56.2268 125.432L56.2268 130.6C56.2268 131.027 56.3174 131.331 56.4988 131.512C56.6801 131.683 56.9948 131.768 57.4428 131.768L58.5148 131.768L58.5148 133L57.2028 133C56.3921 133 55.7841 132.813 55.3788 132.44C54.9734 132.067 54.7708 131.453 54.7708 130.6L54.7708 125.432L53.6348 125.432L53.6348 124.232L54.7708 124.232L54.7708 122.024L56.2268 122.024L56.2268 124.232L58.5148 124.232L58.5148 125.432L56.2268 125.432ZM68.2789 128.28C68.2789 128.557 68.2629 128.851 68.2309 129.16L61.2229 129.16C61.2762 130.024 61.5695 130.701 62.1029 131.192C62.6469 131.672 63.3029 131.912 64.0709 131.912C64.7002 131.912 65.2229 131.768 65.6389 131.48C66.0655 131.181 66.3642 130.787 66.5349 130.296L68.1029 130.296C67.8682 131.139 67.3989 131.827 66.6949 132.36C65.9909 132.883 65.1162 133.144 64.0709 133.144C63.2389 133.144 62.4922 132.957 61.8309 132.584C61.1802 132.211 60.6682 131.683 60.2949 131C59.9215 130.307 59.7349 129.507 59.7349 128.6C59.7349 127.693 59.9162 126.899 60.2789 126.216C60.6415 125.533 61.1482 125.011 61.7989 124.648C62.4602 124.275 63.2175 124.088 64.0709 124.088C64.9029 124.088 65.6389 124.269 66.2789 124.632C66.9189 124.995 67.4095 125.496 67.7509 126.136C68.1029 126.765 68.2789 127.48 68.2789 128.28ZM66.7749 127.976C66.7749 127.421 66.6522 126.947 66.4069 126.552C66.1615 126.147 65.8255 125.843 65.3989 125.64C64.9829 125.427 64.5189 125.32 64.0069 125.32C63.2709 125.32 62.6415 125.555 62.1189 126.024C61.6069 126.493 61.3135 127.144 61.2389 127.976L66.7749 127.976ZM71.6568 125.656C71.9128 125.155 72.2754 124.765 72.7448 124.488C73.2248 124.211 73.8061 124.072 74.4888 124.072L74.4888 125.576L74.1048 125.576C72.4728 125.576 71.6568 126.461 71.6568 128.232L71.6568 133L70.2008 133L70.2008 124.232L71.6568 124.232L71.6568 125.656ZM79.8911 128.584C79.8911 127.688 80.0725 126.904 80.4351 126.232C80.7978 125.549 81.2938 125.021 81.9231 124.648C82.5631 124.275 83.2778 124.088 84.0671 124.088C84.7498 124.088 85.3845 124.248 85.9711 124.568C86.5578 124.877 87.0058 125.288 87.3151 125.8L87.3151 121.16L88.7871 121.16L88.7871 133L87.3151 133L87.3151 131.352C87.0271 131.875 86.6005 132.307 86.0351 132.648C85.4698 132.979 84.8085 133.144 84.0511 133.144C83.2725 133.144 82.5631 132.952 81.9231 132.568C81.2938 132.184 80.7978 131.645 80.4351 130.952C80.0725 130.259 79.8911 129.469 79.8911 128.584ZM87.3151 128.6C87.3151 127.939 87.1818 127.363 86.9151 126.872C86.6485 126.381 86.2858 126.008 85.8271 125.752C85.3791 125.485 84.8831 125.352 84.3391 125.352C83.7951 125.352 83.2991 125.48 82.8511 125.736C82.4031 125.992 82.0458 126.365 81.7791 126.856C81.5125 127.347 81.3791 127.923 81.3791 128.584C81.3791 129.256 81.5125 129.843 81.7791 130.344C82.0458 130.835 82.4031 131.213 82.8511 131.48C83.2991 131.736 83.7951 131.864 84.3391 131.864C84.8831 131.864 85.3791 131.736 85.8271 131.48C86.2858 131.213 86.6485 130.835 86.9151 130.344C87.1818 129.843 87.3151 129.261 87.3151 128.6ZM99.2476 128.28C99.2476 128.557 99.2316 128.851 99.1996 129.16L92.1916 129.16C92.245 130.024 92.5383 130.701 93.0716 131.192C93.6156 131.672 94.2716 131.912 95.0396 131.912C95.669 131.912 96.1916 131.768 96.6076 131.48C97.0343 131.181 97.333 130.787 97.5036 130.296L99.0716 130.296C98.837 131.139 98.3676 131.827 97.6636 132.36C96.9596 132.883 96.085 133.144 95.0396 133.144C94.2076 133.144 93.461 132.957 92.7996 132.584C92.149 132.211 91.637 131.683 91.2636 131C90.8903 130.307 90.7036 129.507 90.7036 128.6C90.7036 127.693 90.885 126.899 91.2476 126.216C91.6103 125.533 92.117 125.011 92.7676 124.648C93.429 124.275 94.1863 124.088 95.0396 124.088C95.8716 124.088 96.6076 124.269 97.2476 124.632C97.8876 124.995 98.3783 125.496 98.7196 126.136C99.0716 126.765 99.2476 127.48 99.2476 128.28ZM97.7436 127.976C97.7436 127.421 97.621 126.947 97.3756 126.552C97.1303 126.147 96.7943 125.843 96.3676 125.64C95.9516 125.427 95.4876 125.32 94.9756 125.32C94.2396 125.32 93.6103 125.555 93.0876 126.024C92.5756 126.493 92.2823 127.144 92.2076 127.976L97.7436 127.976ZM20.688 149.848C20.976 149.347 21.4027 148.931 21.968 148.6C22.544 148.259 23.2107 148.088 23.968 148.088C24.7467 148.088 25.4507 148.275 26.08 148.648C26.72 149.021 27.2213 149.549 27.584 150.232C27.9467 150.904 28.128 151.688 28.128 152.584C28.128 153.469 27.9467 154.259 27.584 154.952C27.2213 155.645 26.72 156.184 26.08 156.568C25.4507 156.952 24.7467 157.144 23.968 157.144C23.2213 157.144 22.56 156.979 21.984 156.648C21.4187 156.307 20.9867 155.885 20.688 155.384L20.688 161.16L19.232 161.16L19.232 148.232L20.688 148.232L20.688 149.848ZM26.64 152.584C26.64 151.923 26.5067 151.347 26.24 150.856C25.9733 150.365 25.6107 149.992 25.152 149.736C24.704 149.48 24.208 149.352 23.664 149.352C23.1307 149.352 22.6347 149.485 22.176 149.752C21.728 150.008 21.3653 150.387 21.088 150.888C20.8213 151.379 20.688 151.949 20.688 152.6C20.688 153.261 20.8213 153.843 21.088 154.344C21.3653 154.835 21.728 155.213 22.176 155.48C22.6347 155.736 23.1307 155.864 23.664 155.864C24.208 155.864 24.704 155.736 25.152 155.48C25.6107 155.213 25.9733 154.835 26.24 154.344C26.5067 153.843 26.64 153.256 26.64 152.584ZM31.5005 145.16L31.5005 157L30.0445 157L30.0445 145.16L31.5005 145.16ZM33.438 152.584C33.438 151.688 33.6193 150.904 33.982 150.232C34.3447 149.549 34.8407 149.021 35.47 148.648C36.11 148.275 36.8193 148.088 37.598 148.088C38.366 148.088 39.0327 148.253 39.598 148.584C40.1633 148.915 40.5847 149.331 40.862 149.832L40.862 148.232L42.334 148.232L42.334 157L40.862 157L40.862 155.368C40.574 155.88 40.142 156.307 39.566 156.648C39.0007 156.979 38.3393 157.144 37.582 157.144C36.8033 157.144 36.0993 156.952 35.47 156.568C34.8407 156.184 34.3447 155.645 33.982 154.952C33.6193 154.259 33.438 153.469 33.438 152.584ZM40.862 152.6C40.862 151.939 40.7287 151.363 40.462 150.872C40.1953 150.381 39.8327 150.008 39.374 149.752C38.926 149.485 38.43 149.352 37.886 149.352C37.342 149.352 36.846 149.48 36.398 149.736C35.95 149.992 35.5927 150.365 35.326 150.856C35.0593 151.347 34.926 151.923 34.926 152.584C34.926 153.256 35.0593 153.843 35.326 154.344C35.5927 154.835 35.95 155.213 36.398 155.48C36.846 155.736 37.342 155.864 37.886 155.864C38.43 155.864 38.926 155.736 39.374 155.48C39.8327 155.213 40.1953 154.835 40.462 154.344C40.7287 153.843 40.862 153.261 40.862 152.6ZM49.0665 148.072C50.1332 148.072 50.9972 148.397 51.6585 149.048C52.3198 149.688 52.6505 150.616 52.6505 151.832L52.6505 157L51.2105 157L51.2105 152.04C51.2105 151.165 50.9918 150.499 50.5545 150.04C50.1172 149.571 49.5198 149.336 48.7625 149.336C47.9945 149.336 47.3812 149.576 46.9225 150.056C46.4745 150.536 46.2505 151.235 46.2505 152.152L46.2505 157L44.7945 157L44.7945 148.232L46.2505 148.232L46.2505 149.48C46.5385 149.032 46.9278 148.685 47.4185 148.44C47.9198 148.195 48.4692 148.072 49.0665 148.072ZM56.8049 149.432L56.8049 154.6C56.8049 155.027 56.8955 155.331 57.0769 155.512C57.2582 155.683 57.5729 155.768 58.0209 155.768L59.0929 155.768L59.0929 157L57.7809 157C56.9702 157 56.3622 156.813 55.9569 156.44C55.5515 156.067 55.3489 155.453 55.3489 154.6L55.3489 149.432L54.2129 149.432L54.2129 148.232L55.3489 148.232L55.3489 146.024L56.8049 146.024L56.8049 148.232L59.0929 148.232L59.0929 149.432L56.8049 149.432ZM68.857 152.28C68.857 152.557 68.841 152.851 68.809 153.16L61.801 153.16C61.8543 154.024 62.1477 154.701 62.681 155.192C63.225 155.672 63.881 155.912 64.649 155.912C65.2783 155.912 65.801 155.768 66.217 155.48C66.6437 155.181 66.9423 154.787 67.113 154.296L68.681 154.296C68.4463 155.139 67.977 155.827 67.273 156.36C66.569 156.883 65.6943 157.144 64.649 157.144C63.817 157.144 63.0703 156.957 62.409 156.584C61.7583 156.211 61.2463 155.683 60.873 155C60.4997 154.307 60.313 153.507 60.313 152.6C60.313 151.693 60.4943 150.899 60.857 150.216C61.2197 149.533 61.7263 149.011 62.377 148.648C63.0383 148.275 63.7957 148.088 64.649 148.088C65.481 148.088 66.217 148.269 66.857 148.632C67.497 148.995 67.9877 149.496 68.329 150.136C68.681 150.765 68.857 151.48 68.857 152.28ZM67.353 151.976C67.353 151.421 67.2303 150.947 66.985 150.552C66.7397 150.147 66.4037 149.843 65.977 149.64C65.561 149.427 65.097 149.32 64.585 149.32C63.849 149.32 63.2197 149.555 62.697 150.024C62.185 150.493 61.8917 151.144 61.817 151.976L67.353 151.976ZM73.8829 157.144C73.2109 157.144 72.6082 157.032 72.0749 156.808C71.5415 156.573 71.1202 156.253 70.8109 155.848C70.5015 155.432 70.3309 154.957 70.2989 154.424L71.8029 154.424C71.8455 154.861 72.0482 155.219 72.4109 155.496C72.7842 155.773 73.2695 155.912 73.8669 155.912C74.4215 155.912 74.8589 155.789 75.1789 155.544C75.4989 155.299 75.6589 154.989 75.6589 154.616C75.6589 154.232 75.4882 153.949 75.1469 153.768C74.8055 153.576 74.2775 153.389 73.5629 153.208C72.9122 153.037 72.3789 152.867 71.9629 152.696C71.5575 152.515 71.2055 152.253 70.9069 151.912C70.6189 151.56 70.4749 151.101 70.4749 150.536C70.4749 150.088 70.6082 149.677 70.8749 149.304C71.1415 148.931 71.5202 148.637 72.0109 148.424C72.5015 148.2 73.0615 148.088 73.6909 148.088C74.6615 148.088 75.4455 148.333 76.0429 148.824C76.6402 149.315 76.9602 149.987 77.0029 150.84L75.5469 150.84C75.5149 150.381 75.3282 150.013 74.9869 149.736C74.6562 149.459 74.2082 149.32 73.6429 149.32C73.1202 149.32 72.7042 149.432 72.3949 149.656C72.0855 149.88 71.9309 150.173 71.9309 150.536C71.9309 150.824 72.0215 151.064 72.2029 151.256C72.3949 151.437 72.6295 151.587 72.9069 151.704C73.1949 151.811 73.5895 151.933 74.0909 152.072C74.7202 152.243 75.2322 152.413 75.6269 152.584C76.0215 152.744 76.3575 152.989 76.6349 153.32C76.9229 153.651 77.0722 154.083 77.0829 154.616C77.0829 155.096 76.9495 155.528 76.6829 155.912C76.4162 156.296 76.0375 156.6 75.5469 156.824C75.0669 157.037 74.5122 157.144 73.8829 157.144Z" fill="white"/>
<path d="M25.824 130.52L20.96 130.52L20.064 133L18.528 133L22.56 121.912L24.24 121.912L28.256 133L26.72 133L25.824 130.52ZM25.408 129.336L23.392 123.704L21.376 129.336L25.408 129.336ZM30.7973 122.808C30.5199 122.808 30.2853 122.712 30.0933 122.52C29.9119 122.328 29.8213 122.093 29.8213 121.816C29.8213 121.539 29.9119 121.304 30.0933 121.112C30.2853 120.92 30.5199 120.824 30.7973 120.824C31.0746 120.824 31.3039 120.92 31.4853 121.112C31.6773 121.304 31.7733 121.539 31.7733 121.816C31.7733 122.093 31.6773 122.328 31.4853 122.52C31.3039 122.712 31.0746 122.808 30.7973 122.808ZM31.5173 134.904C31.5173 135.683 31.3199 136.253 30.9253 136.616C30.5306 136.979 29.9546 137.16 29.1973 137.16L28.3493 137.16L28.3493 135.928L28.9573 135.928C29.3626 135.928 29.6453 135.848 29.8053 135.688C29.9759 135.528 30.0613 135.256 30.0613 134.872L30.0613 124.232L31.5173 124.232L31.5173 134.904ZM37.806 133.144C36.9847 133.144 36.238 132.957 35.566 132.584C34.9047 132.211 34.382 131.683 33.998 131C33.6247 130.307 33.438 129.507 33.438 128.6C33.438 127.704 33.63 126.915 34.014 126.232C34.4087 125.539 34.942 125.011 35.614 124.648C36.286 124.275 37.038 124.088 37.87 124.088C38.702 124.088 39.454 124.275 40.126 124.648C40.798 125.011 41.326 125.533 41.71 126.216C42.1047 126.899 42.302 127.693 42.302 128.6C42.302 129.507 42.0993 130.307 41.694 131C41.2993 131.683 40.7607 132.211 40.078 132.584C39.3953 132.957 38.638 133.144 37.806 133.144ZM37.806 131.864C38.3287 131.864 38.8193 131.741 39.278 131.496C39.7367 131.251 40.1047 130.883 40.382 130.392C40.67 129.901 40.814 129.304 40.814 128.6C40.814 127.896 40.6753 127.299 40.398 126.808C40.1207 126.317 39.758 125.955 39.31 125.72C38.862 125.475 38.3767 125.352 37.854 125.352C37.3207 125.352 36.83 125.475 36.382 125.72C35.9447 125.955 35.5927 126.317 35.326 126.808C35.0593 127.299 34.926 127.896 34.926 128.6C34.926 129.315 35.054 129.917 35.31 130.408C35.5767 130.899 35.9287 131.267 36.366 131.512C36.8033 131.747 37.2833 131.864 37.806 131.864ZM51.9924 124.232L51.9924 133L50.5364 133L50.5364 131.704C50.259 132.152 49.8697 132.504 49.3684 132.76C48.8777 133.005 48.3337 133.128 47.7364 133.128C47.0537 133.128 46.4404 132.989 45.8964 132.712C45.3524 132.424 44.9204 131.997 44.6004 131.432C44.291 130.867 44.1364 130.179 44.1364 129.368L44.1364 124.232L45.5764 124.232L45.5764 129.176C45.5764 130.04 45.795 130.707 46.2324 131.176C46.6697 131.635 47.267 131.864 48.0244 131.864C48.803 131.864 49.4164 131.624 49.8644 131.144C50.3124 130.664 50.5364 129.965 50.5364 129.048L50.5364 124.232L51.9924 124.232ZM56.2268 125.432L56.2268 130.6C56.2268 131.027 56.3174 131.331 56.4988 131.512C56.6801 131.683 56.9948 131.768 57.4428 131.768L58.5148 131.768L58.5148 133L57.2028 133C56.3921 133 55.7841 132.813 55.3788 132.44C54.9734 132.067 54.7708 131.453 54.7708 130.6L54.7708 125.432L53.6348 125.432L53.6348 124.232L54.7708 124.232L54.7708 122.024L56.2268 122.024L56.2268 124.232L58.5148 124.232L58.5148 125.432L56.2268 125.432ZM68.2789 128.28C68.2789 128.557 68.2629 128.851 68.2309 129.16L61.2229 129.16C61.2762 130.024 61.5695 130.701 62.1029 131.192C62.6469 131.672 63.3029 131.912 64.0709 131.912C64.7002 131.912 65.2229 131.768 65.6389 131.48C66.0655 131.181 66.3642 130.787 66.5349 130.296L68.1029 130.296C67.8682 131.139 67.3989 131.827 66.6949 132.36C65.9909 132.883 65.1162 133.144 64.0709 133.144C63.2389 133.144 62.4922 132.957 61.8309 132.584C61.1802 132.211 60.6682 131.683 60.2949 131C59.9215 130.307 59.7349 129.507 59.7349 128.6C59.7349 127.693 59.9162 126.899 60.2789 126.216C60.6415 125.533 61.1482 125.011 61.7989 124.648C62.4602 124.275 63.2175 124.088 64.0709 124.088C64.9029 124.088 65.6389 124.269 66.2789 124.632C66.9189 124.995 67.4095 125.496 67.7509 126.136C68.1029 126.765 68.2789 127.48 68.2789 128.28ZM66.7749 127.976C66.7749 127.421 66.6522 126.947 66.4069 126.552C66.1615 126.147 65.8255 125.843 65.3989 125.64C64.9829 125.427 64.5189 125.32 64.0069 125.32C63.2709 125.32 62.6415 125.555 62.1189 126.024C61.6069 126.493 61.3135 127.144 61.2389 127.976L66.7749 127.976ZM71.6568 125.656C71.9128 125.155 72.2754 124.765 72.7448 124.488C73.2248 124.211 73.8061 124.072 74.4888 124.072L74.4888 125.576L74.1048 125.576C72.4728 125.576 71.6568 126.461 71.6568 128.232L71.6568 133L70.2008 133L70.2008 124.232L71.6568 124.232L71.6568 125.656ZM79.8911 128.584C79.8911 127.688 80.0725 126.904 80.4351 126.232C80.7978 125.549 81.2938 125.021 81.9231 124.648C82.5631 124.275 83.2778 124.088 84.0671 124.088C84.7498 124.088 85.3845 124.248 85.9711 124.568C86.5578 124.877 87.0058 125.288 87.3151 125.8L87.3151 121.16L88.7871 121.16L88.7871 133L87.3151 133L87.3151 131.352C87.0271 131.875 86.6005 132.307 86.0351 132.648C85.4698 132.979 84.8085 133.144 84.0511 133.144C83.2725 133.144 82.5631 132.952 81.9231 132.568C81.2938 132.184 80.7978 131.645 80.4351 130.952C80.0725 130.259 79.8911 129.469 79.8911 128.584ZM87.3151 128.6C87.3151 127.939 87.1818 127.363 86.9151 126.872C86.6485 126.381 86.2858 126.008 85.8271 125.752C85.3791 125.485 84.8831 125.352 84.3391 125.352C83.7951 125.352 83.2991 125.48 82.8511 125.736C82.4031 125.992 82.0458 126.365 81.7791 126.856C81.5125 127.347 81.3791 127.923 81.3791 128.584C81.3791 129.256 81.5125 129.843 81.7791 130.344C82.0458 130.835 82.4031 131.213 82.8511 131.48C83.2991 131.736 83.7951 131.864 84.3391 131.864C84.8831 131.864 85.3791 131.736 85.8271 131.48C86.2858 131.213 86.6485 130.835 86.9151 130.344C87.1818 129.843 87.3151 129.261 87.3151 128.6ZM99.2476 128.28C99.2476 128.557 99.2316 128.851 99.1996 129.16L92.1916 129.16C92.245 130.024 92.5383 130.701 93.0716 131.192C93.6156 131.672 94.2716 131.912 95.0396 131.912C95.669 131.912 96.1916 131.768 96.6076 131.48C97.0343 131.181 97.333 130.787 97.5036 130.296L99.0716 130.296C98.837 131.139 98.3676 131.827 97.6636 132.36C96.9596 132.883 96.085 133.144 95.0396 133.144C94.2076 133.144 93.461 132.957 92.7996 132.584C92.149 132.211 91.637 131.683 91.2636 131C90.8903 130.307 90.7036 129.507 90.7036 128.6C90.7036 127.693 90.885 126.899 91.2476 126.216C91.6103 125.533 92.117 125.011 92.7676 124.648C93.429 124.275 94.1863 124.088 95.0396 124.088C95.8716 124.088 96.6076 124.269 97.2476 124.632C97.8876 124.995 98.3783 125.496 98.7196 126.136C99.0716 126.765 99.2476 127.48 99.2476 128.28ZM97.7436 127.976C97.7436 127.421 97.621 126.947 97.3756 126.552C97.1303 126.147 96.7943 125.843 96.3676 125.64C95.9516 125.427 95.4876 125.32 94.9756 125.32C94.2396 125.32 93.6103 125.555 93.0876 126.024C92.5756 126.493 92.2823 127.144 92.2076 127.976L97.7436 127.976ZM20.688 149.848C20.976 149.347 21.4027 148.931 21.968 148.6C22.544 148.259 23.2107 148.088 23.968 148.088C24.7467 148.088 25.4507 148.275 26.08 148.648C26.72 149.021 27.2213 149.549 27.584 150.232C27.9467 150.904 28.128 151.688 28.128 152.584C28.128 153.469 27.9467 154.259 27.584 154.952C27.2213 155.645 26.72 156.184 26.08 156.568C25.4507 156.952 24.7467 157.144 23.968 157.144C23.2213 157.144 22.56 156.979 21.984 156.648C21.4187 156.307 20.9867 155.885 20.688 155.384L20.688 161.16L19.232 161.16L19.232 148.232L20.688 148.232L20.688 149.848ZM26.64 152.584C26.64 151.923 26.5067 151.347 26.24 150.856C25.9733 150.365 25.6107 149.992 25.152 149.736C24.704 149.48 24.208 149.352 23.664 149.352C23.1307 149.352 22.6347 149.485 22.176 149.752C21.728 150.008 21.3653 150.387 21.088 150.888C20.8213 151.379 20.688 151.949 20.688 152.6C20.688 153.261 20.8213 153.843 21.088 154.344C21.3653 154.835 21.728 155.213 22.176 155.48C22.6347 155.736 23.1307 155.864 23.664 155.864C24.208 155.864 24.704 155.736 25.152 155.48C25.6107 155.213 25.9733 154.835 26.24 154.344C26.5067 153.843 26.64 153.256 26.64 152.584ZM31.5005 145.16L31.5005 157L30.0445 157L30.0445 145.16L31.5005 145.16ZM33.438 152.584C33.438 151.688 33.6193 150.904 33.982 150.232C34.3447 149.549 34.8407 149.021 35.47 148.648C36.11 148.275 36.8193 148.088 37.598 148.088C38.366 148.088 39.0327 148.253 39.598 148.584C40.1633 148.915 40.5847 149.331 40.862 149.832L40.862 148.232L42.334 148.232L42.334 157L40.862 157L40.862 155.368C40.574 155.88 40.142 156.307 39.566 156.648C39.0007 156.979 38.3393 157.144 37.582 157.144C36.8033 157.144 36.0993 156.952 35.47 156.568C34.8407 156.184 34.3447 155.645 33.982 154.952C33.6193 154.259 33.438 153.469 33.438 152.584ZM40.862 152.6C40.862 151.939 40.7287 151.363 40.462 150.872C40.1953 150.381 39.8327 150.008 39.374 149.752C38.926 149.485 38.43 149.352 37.886 149.352C37.342 149.352 36.846 149.48 36.398 149.736C35.95 149.992 35.5927 150.365 35.326 150.856C35.0593 151.347 34.926 151.923 34.926 152.584C34.926 153.256 35.0593 153.843 35.326 154.344C35.5927 154.835 35.95 155.213 36.398 155.48C36.846 155.736 37.342 155.864 37.886 155.864C38.43 155.864 38.926 155.736 39.374 155.48C39.8327 155.213 40.1953 154.835 40.462 154.344C40.7287 153.843 40.862 153.261 40.862 152.6ZM49.0665 148.072C50.1332 148.072 50.9972 148.397 51.6585 149.048C52.3198 149.688 52.6505 150.616 52.6505 151.832L52.6505 157L51.2105 157L51.2105 152.04C51.2105 151.165 50.9918 150.499 50.5545 150.04C50.1172 149.571 49.5198 149.336 48.7625 149.336C47.9945 149.336 47.3812 149.576 46.9225 150.056C46.4745 150.536 46.2505 151.235 46.2505 152.152L46.2505 157L44.7945 157L44.7945 148.232L46.2505 148.232L46.2505 149.48C46.5385 149.032 46.9278 148.685 47.4185 148.44C47.9198 148.195 48.4692 148.072 49.0665 148.072ZM56.8049 149.432L56.8049 154.6C56.8049 155.027 56.8955 155.331 57.0769 155.512C57.2582 155.683 57.5729 155.768 58.0209 155.768L59.0929 155.768L59.0929 157L57.7809 157C56.9702 157 56.3622 156.813 55.9569 156.44C55.5515 156.067 55.3489 155.453 55.3489 154.6L55.3489 149.432L54.2129 149.432L54.2129 148.232L55.3489 148.232L55.3489 146.024L56.8049 146.024L56.8049 148.232L59.0929 148.232L59.0929 149.432L56.8049 149.432ZM68.857 152.28C68.857 152.557 68.841 152.851 68.809 153.16L61.801 153.16C61.8543 154.024 62.1477 154.701 62.681 155.192C63.225 155.672 63.881 155.912 64.649 155.912C65.2783 155.912 65.801 155.768 66.217 155.48C66.6437 155.181 66.9423 154.787 67.113 154.296L68.681 154.296C68.4463 155.139 67.977 155.827 67.273 156.36C66.569 156.883 65.6943 157.144 64.649 157.144C63.817 157.144 63.0703 156.957 62.409 156.584C61.7583 156.211 61.2463 155.683 60.873 155C60.4997 154.307 60.313 153.507 60.313 152.6C60.313 151.693 60.4943 150.899 60.857 150.216C61.2197 149.533 61.7263 149.011 62.377 148.648C63.0383 148.275 63.7957 148.088 64.649 148.088C65.481 148.088 66.217 148.269 66.857 148.632C67.497 148.995 67.9877 149.496 68.329 150.136C68.681 150.765 68.857 151.48 68.857 152.28ZM67.353 151.976C67.353 151.421 67.2303 150.947 66.985 150.552C66.7397 150.147 66.4037 149.843 65.977 149.64C65.561 149.427 65.097 149.32 64.585 149.32C63.849 149.32 63.2197 149.555 62.697 150.024C62.185 150.493 61.8917 151.144 61.817 151.976L67.353 151.976ZM73.8829 157.144C73.2109 157.144 72.6082 157.032 72.0749 156.808C71.5415 156.573 71.1202 156.253 70.8109 155.848C70.5015 155.432 70.3309 154.957 70.2989 154.424L71.8029 154.424C71.8455 154.861 72.0482 155.219 72.4109 155.496C72.7842 155.773 73.2695 155.912 73.8669 155.912C74.4215 155.912 74.8589 155.789 75.1789 155.544C75.4989 155.299 75.6589 154.989 75.6589 154.616C75.6589 154.232 75.4882 153.949 75.1469 153.768C74.8055 153.576 74.2775 153.389 73.5629 153.208C72.9122 153.037 72.3789 152.867 71.9629 152.696C71.5575 152.515 71.2055 152.253 70.9069 151.912C70.6189 151.56 70.4749 151.101 70.4749 150.536C70.4749 150.088 70.6082 149.677 70.8749 149.304C71.1415 148.931 71.5202 148.637 72.0109 148.424C72.5015 148.2 73.0615 148.088 73.6909 148.088C74.6615 148.088 75.4455 148.333 76.0429 148.824C76.6402 149.315 76.9602 149.987 77.0029 150.84L75.5469 150.84C75.5149 150.381 75.3282 150.013 74.9869 149.736C74.6562 149.459 74.2082 149.32 73.6429 149.32C73.1202 149.32 72.7042 149.432 72.3949 149.656C72.0855 149.88 71.9309 150.173 71.9309 150.536C71.9309 150.824 72.0215 151.064 72.2029 151.256C72.3949 151.437 72.6295 151.587 72.9069 151.704C73.1949 151.811 73.5895 151.933 74.0909 152.072C74.7202 152.243 75.2322 152.413 75.6269 152.584C76.0215 152.744 76.3575 152.989 76.6349 153.32C76.9229 153.651 77.0722 154.083 77.0829 154.616C77.0829 155.096 76.9495 155.528 76.6829 155.912C76.4162 156.296 76.0375 156.6 75.5469 156.824C75.0669 157.037 74.5122 157.144 73.8829 157.144Z" fill="#F3EBD4"/>
</svg>
