<svg width="16" height="18" viewBox="0 0 16 18" fill="none" xmlns="http://www.w3.org/2000/svg">
<path fill-rule="evenodd" clip-rule="evenodd" d="M13.3333 6.29988C14.0135 6.29984 14.668 6.56297 15.1629 7.03543C15.6578 7.5079 15.9557 8.15397 15.9956 8.84148L16 8.99988V11.6999C16 12.2759 15.6631 12.725 15.216 12.9302L15.1111 12.9725V16.1999C15.1113 16.654 14.9419 17.0914 14.6369 17.4244C14.3319 17.7574 13.9139 17.9613 13.4667 17.9954L13.3333 17.9999H2.66667C2.21815 18 1.78616 17.8285 1.45729 17.5197C1.12842 17.2109 0.926972 16.7877 0.893333 16.3349L0.888889 16.1999V12.9734C0.64892 12.8888 0.438083 12.736 0.281563 12.5333C0.125043 12.3306 0.0294569 12.0866 0.0062222 11.8304L4.14262e-09 11.6999V8.99988C-3.7886e-05 8.31119 0.259845 7.64851 0.726474 7.14744C1.1931 6.64637 1.83121 6.34478 2.51022 6.30438L2.66667 6.29988H13.3333ZM13.2738 12.3299C13.1359 12.2251 12.9709 12.1632 12.7988 12.1517C12.6268 12.1402 12.4552 12.1796 12.3049 12.2651L12.2071 12.3299L11.9707 12.5099C11.5345 12.8413 11.0084 13.0293 10.4634 13.0486C9.91842 13.0679 9.38067 12.9176 8.92267 12.6179L8.77067 12.5099L8.53333 12.3299C8.39544 12.2251 8.23043 12.1632 8.0584 12.1517C7.88637 12.1402 7.71475 12.1796 7.56444 12.2651L7.46667 12.3299L7.22933 12.5099C6.79323 12.8411 6.26734 13.029 5.72253 13.0483C5.17771 13.0676 4.64013 12.9174 4.18222 12.6179L4.02933 12.5099L3.79289 12.3299C3.65499 12.2251 3.48998 12.1632 3.31796 12.1517C3.14593 12.1402 2.97431 12.1796 2.824 12.2651L2.72622 12.3299L2.66667 12.3749V16.1999H13.3333V12.3749L13.2738 12.3299ZM13.3333 8.09988H2.66667C2.43092 8.09988 2.20483 8.1947 2.03813 8.36348C1.87143 8.53226 1.77778 8.76118 1.77778 8.99988V10.8044C2.23697 10.4938 2.78008 10.3352 3.33211 10.3505C3.88413 10.3658 4.41785 10.5543 4.85956 10.8899L5.096 11.0699C5.24986 11.1867 5.437 11.2499 5.62933 11.2499C5.82166 11.2499 6.0088 11.1867 6.16267 11.0699L6.4 10.8899C6.86159 10.5394 7.42301 10.3499 8 10.3499C8.57699 10.3499 9.13841 10.5394 9.6 10.8899L9.83733 11.0699C9.9912 11.1867 10.1783 11.2499 10.3707 11.2499C10.563 11.2499 10.7501 11.1867 10.904 11.0699L11.1404 10.8899C11.5822 10.5543 12.1159 10.3658 12.6679 10.3505C13.2199 10.3352 13.763 10.4938 14.2222 10.8044V8.99988C14.2222 8.76118 14.1286 8.53226 13.9619 8.36348C13.7952 8.1947 13.5691 8.09988 13.3333 8.09988ZM8.53333 0.179878C8.9008 0.470522 9.242 0.793696 9.55289 1.14558C10.0187 1.67568 10.6667 2.56938 10.6667 3.59988C10.6667 4.31596 10.3857 5.00272 9.88562 5.50907C9.38552 6.01541 8.70724 6.29988 8 6.29988C7.29276 6.29988 6.61448 6.01541 6.11438 5.50907C5.61428 5.00272 5.33333 4.31596 5.33333 3.59988C5.33333 2.56938 5.98222 1.67568 6.44711 1.14558C6.758 0.793696 7.0992 0.470522 7.46667 0.179878C7.62053 0.0630381 7.80767 -0.00012207 8 -0.00012207C8.19233 -0.00012207 8.37947 0.0630381 8.53333 0.179878ZM8 2.10048C7.92276 2.17867 7.84777 2.2591 7.77511 2.34168C7.352 2.82408 7.11111 3.28038 7.11111 3.59988C7.11111 3.83857 7.20476 4.06749 7.37146 4.23627C7.53816 4.40506 7.76425 4.49988 8 4.49988C8.23575 4.49988 8.46184 4.40506 8.62854 4.23627C8.79524 4.06749 8.88889 3.83857 8.88889 3.59988C8.88889 3.28038 8.64889 2.82408 8.22489 2.34168C8.15223 2.2591 8.07724 2.17867 8 2.10048Z" fill="#FFC145"/>
</svg>
