<svg width="38" height="38" viewBox="0 0 38 38" fill="none" xmlns="http://www.w3.org/2000/svg">
<circle cx="19" cy="19" r="19" fill="#F2D468"/>
<g clip-path="url(#clip0_484_16)">
<path d="M18.0484 25.2485C17.8234 25.4735 17.5182 25.5999 17.2 25.5999C16.8818 25.5999 16.5767 25.4735 16.3516 25.2485L10.9516 19.8485C10.7267 19.6235 10.6003 19.3183 10.6003 19.0001C10.6003 18.6819 10.7267 18.3767 10.9516 18.1517L16.3516 12.7517C16.5779 12.5331 16.8811 12.4122 17.1957 12.4149C17.5103 12.4176 17.8113 12.5438 18.0338 12.7663C18.2563 12.9888 18.3825 13.2898 18.3852 13.6044C18.388 13.9191 18.267 14.2222 18.0484 14.4485L14.8 17.8001L26.2 17.8001C26.5183 17.8001 26.8235 17.9265 27.0486 18.1516C27.2736 18.3766 27.4 18.6818 27.4 19.0001C27.4 19.3184 27.2736 19.6236 27.0486 19.8486C26.8235 20.0737 26.5183 20.2001 26.2 20.2001L14.8 20.2001L18.0484 23.5517C18.2734 23.7767 18.3998 24.0819 18.3998 24.4001C18.3998 24.7183 18.2734 25.0235 18.0484 25.2485Z" fill="white"/>
</g>
<defs>
<clipPath id="clip0_484_16">
<rect width="18" height="18" fill="white" transform="translate(28 28) rotate(180)"/>
</clipPath>
</defs>
</svg>
