<svg width="390" height="486" viewBox="0 0 390 486" fill="none" xmlns="http://www.w3.org/2000/svg">
<g clip-path="url(#clip0_19_2)">
<path d="M384.241 224.134L371.638 228.333L360.718 205.653L336.356 192.215L318.714 188.016L294.352 195.574L283.432 208.174L269.99 235.052L271.672 251.012L276.715 267.81L266.633 274.53L305.28 380.363L114.566 329.967L86 355.569L124.647 366.928V340.889L318.722 419.845L442.224 374.487L384.253 224.134H384.241ZM285.106 262.773L282.026 245.974L285.106 231.275L290.988 214.894L302.751 199.773H325.014L343.916 203.972L358.197 218.249L364.917 233.37L285.102 262.769L285.106 262.773Z" fill="#35CB6A"/>
<path d="M221.895 263.728L212.834 285.962V306.132L217.366 311.483L227.66 309.014L230.953 300.368V287.607L221.895 263.728Z" fill="#35CB6A"/>
<path d="M138.325 454.795L147.881 440.702L157.436 436.166H166.273L176.306 442.375L181.325 451.21L182.754 460.764L180.128 468.667L174.158 475.33L164.362 479.152H157.436L149.073 475.094L142.148 468.667L138.325 461.478V454.795Z" fill="#35CB6A"/>
<path d="M137.133 420.64L128.292 415.867H116.348L105.122 422.073L102.497 428.523L100.586 431.389L99.6301 442.375L101.541 448.822L106.797 455.987L117.528 460.523L126.859 461.956L133.311 459.331L141.433 452.884L145.97 447.152L146.845 437.679L146.09 432.822L143.822 427.447L137.133 420.64Z" fill="#35CB6A"/>
<path d="M181.325 490.856L179.891 493.482V505.901L180.606 512.825L185.862 518.557L195.895 522.856L210.465 524.289L217.631 522.378L224.557 515.691L227.664 507.571V496.287L224.557 487.99L218.109 481.781L207.839 476.286L198.557 477.482L185.384 482.258L181.325 490.856Z" fill="#35CB6A"/>
<path d="M97.9263 155.854L94.4028 146.443L91.0163 129.719L86.7964 122.878L85.3784 115.876L87.3758 103.729L90.5459 95.3922L102.204 86.9579L115.347 81.868L123.989 82.5468L136.854 92.0889L144.51 103.902L153.649 117.033L169.324 128.435L180.399 137.123L192.891 152.814L199.597 165.921L204.481 182.052L203.569 191.549L199.707 204.478L190.233 213.687L179.423 218.304L171.254 219.958L163.015 225.272L156.932 231.238L145.989 235.198L132.674 234.114L121.685 229.185L112.176 224.226L105.777 216.614L101.628 206.118L99.5797 196.003L100.317 177.633C100.317 177.633 102.133 165.601 101.518 163.559C100.904 161.517 97.9326 155.844 97.9326 155.844L97.9263 155.854Z" fill="#35CB6A"/>
<path d="M100.956 69.805L104.76 65.5904L107.676 65L107.495 71.11L108.138 79.2814L110.064 87.7992L105.248 91.0023L101.957 81.7494L101.861 75.2897L100.956 69.805Z" fill="#35CB6A"/>
<path d="M142.946 382.542L141.248 384.409L138.787 394.584L138 400.401L141.168 406.141L148.535 411.652L160.19 415.714L166.437 415.57L173.443 411.467L177.599 405.43L179.835 396.182L178.94 388.768L174.885 382.402L167.558 375.863L159.72 375L147.977 376.301L142.946 382.542Z" fill="#35CB6A"/>
<path d="M93.8969 388.106L103.452 374.017L113.004 369.477H121.844L131.878 375.687L136.892 384.526L138.325 394.079L135.7 401.982L129.726 408.646L119.933 412.467H113.004L104.645 408.405L97.719 401.982L93.8969 394.793V388.106Z" fill="#35CB6A"/>
<path d="M182.312 458.612L186.612 463.63L194.975 467.21H202.142H210.023L217.667 460.764L222.445 452.166L224.115 441.42L222.445 431.626L215.756 423.746L205.964 417.537L195.453 415.867L185.404 418.97L177.057 426.135L172.998 435.688V444.764L177.776 454.076L182.312 458.612Z" fill="#35CB6A"/>
<path d="M434.075 558.487C434.075 558.487 344.43 522.678 333 412C333 412 414.823 455.347 434.075 558.487Z" fill="#35CB6A"/>
<path d="M330.658 130.748L338.379 115.282L359.24 102.193L479.18 68.7599H569.318L592.581 81.8415L584.78 99.756L570.772 90.7526H514.074L441.38 99.756L371.112 116.727L354.956 122.54L343.971 138.046L330.658 130.748Z" fill="#35CB6A"/>
<path d="M346.5 170.419L348.291 153.227L363.214 133.639L463.742 60.1825L548.127 28.5L574.505 32.5702L573.497 52.0863L557.221 48.578L504.14 68.5076L439.256 102.486L379.438 143.072L366.362 154.195L361.528 172.571L346.5 170.419Z" fill="#35CB6A"/>
<path d="M-14.1214 269.445L-9.15326 264.239L5.7567 285.487L3.0453 256H13.4362V280.282L18.4044 262.504L24.731 266.842L20.212 282.453L39.6353 258.603L46.6637 262.941L29.6991 282.022L46.6637 270.749L51.3848 278.121L36.9295 285.493H55V289.394C55 289.394 29.9293 293.732 26.9933 296.766L24.0573 299.8L38.288 317.577L46.6693 332.321L43.2562 363.975L20.4421 385.222L3.50001 393.025H-12.3082L-20.8915 403H-32.1862L-40.7696 400.834L-29.9295 398.231L-25.8652 391.29L-48 359.847V338.389L-38.0638 316.273L-19.9933 301.099L0.811043 290.246L-14.1214 269.44V269.445Z" fill="#35CB6A"/>
<path d="M340.906 56.92L344 53.4842L330.386 43.0576L323.333 42.5668L314.917 48.4569L303.652 38.2742L292.637 33L277.91 38.6431L246.971 97.5225L244 117.394L254.397 126.226L266.648 123.65L271.106 133.585L282.613 138L300.435 132.113L311.945 117.394L324.197 102.675L336.264 80.962L332.182 64.2186L318.257 52.9933L325.498 49.1306L331.253 50.0513L340.906 56.92Z" fill="#35CB6A"/>
<path d="M-148.081 589.143L-142.887 599.065L-105.169 579.319L-65.6983 546.016L0.597534 554.293L31.3688 538.185L60.9121 510.078L30.337 509.646L10.3963 515.029L-24.3909 530.712L20.5593 495.799L47.6174 468.572L65.3643 434.838L74.0839 409.622L45.8758 419.754L19.1948 431.193L-6.2337 447.033L-38.3102 473.521L-54.6591 501.884L-75.1791 539.176L-148.081 589.143Z" fill="#35CB6A"/>
<path d="M308.012 442.962L299.388 443.644V426.629L287.588 423L280.779 428.447L276.242 438.883L267.618 429.808L258.087 431.169L254.004 438.43L258.995 445.691L267.618 453.177L261.263 455.22L254 459.756V468.832L262.624 475.186L270.794 477L276.242 470.646L280.326 478.871L286.227 483.355H295.08L300.753 477L297.577 463.389L303.933 464.978L311.947 462.61L313.918 454.767V447.959L308.016 442.966L308.012 442.962ZM292.354 457.709L288.95 461.113L277.716 459.07V449.541L283.955 445.458H290.648L294.394 453.173L292.35 457.709H292.354Z" fill="#35CB6A"/>
<path d="M56.4464 204.214L50.3077 204.699V192.585L41.9086 190L37.0626 193.878L33.8307 201.307L27.6919 194.849L20.9068 195.816L18 200.986L21.5532 206.156L27.6919 211.487L23.1671 212.94L18 216.171V222.63L24.1387 227.154L29.9523 228.446L33.8307 223.922L36.7374 229.775L40.937 232.966H47.2363L51.2753 228.442L49.0149 218.752L53.5397 219.884L59.2448 218.198L60.646 212.615V207.77L56.4464 204.218V204.214ZM45.3012 214.71L42.8762 217.135L34.8785 215.682V208.898L39.319 205.992H44.0847L46.7505 211.483L45.2971 214.714L45.3012 214.71Z" fill="#35CB6A"/>
</g>
<defs>
<clipPath id="clip0_19_2">
<rect width="787" height="806" fill="white" transform="translate(-146)"/>
</clipPath>
</defs>
</svg>
