<svg width="27" height="30" viewBox="0 0 27 30" fill="none" xmlns="http://www.w3.org/2000/svg">
<path d="M24.3696 3.24H20.5652V1.56C20.5652 1.41148 20.508 1.26904 20.406 1.16402C20.3041 1.059 20.1659 1 20.0217 1C19.8776 1 19.7394 1.059 19.6374 1.16402C19.5355 1.26904 19.4783 1.41148 19.4783 1.56V3.24H7.52174V1.56C7.52174 1.41148 7.46448 1.26904 7.36256 1.16402C7.26064 1.059 7.1224 1 6.97826 1C6.83412 1 6.69589 1.059 6.59396 1.16402C6.49204 1.26904 6.43478 1.41148 6.43478 1.56V3.24H2.63043C2.19802 3.24 1.78331 3.417 1.47754 3.73206C1.17178 4.04712 1 4.47444 1 4.92V27.32C1 27.7656 1.17178 28.1929 1.47754 28.5079C1.78331 28.823 2.19802 29 2.63043 29H24.3696C24.802 29 25.2167 28.823 25.5225 28.5079C25.8282 28.1929 26 27.7656 26 27.32V4.92C26 4.47444 25.8282 4.04712 25.5225 3.73206C25.2167 3.417 24.802 3.24 24.3696 3.24ZM2.63043 4.36H6.43478V6.04C6.43478 6.18852 6.49204 6.33096 6.59396 6.43598C6.69589 6.541 6.83412 6.6 6.97826 6.6C7.1224 6.6 7.26064 6.541 7.36256 6.43598C7.46448 6.33096 7.52174 6.18852 7.52174 6.04V4.36H19.4783V6.04C19.4783 6.18852 19.5355 6.33096 19.6374 6.43598C19.7394 6.541 19.8776 6.6 20.0217 6.6C20.1659 6.6 20.3041 6.541 20.406 6.43598C20.508 6.33096 20.5652 6.18852 20.5652 6.04V4.36H24.3696C24.5137 4.36 24.6519 4.419 24.7539 4.52402C24.8558 4.62904 24.913 4.77148 24.913 4.92V9.96H2.08696V4.92C2.08696 4.77148 2.14422 4.62904 2.24614 4.52402C2.34806 4.419 2.4863 4.36 2.63043 4.36ZM24.3696 27.88H2.63043C2.4863 27.88 2.34806 27.821 2.24614 27.716C2.14422 27.611 2.08696 27.4685 2.08696 27.32V11.08H24.913V27.32C24.913 27.4685 24.8558 27.611 24.7539 27.716C24.6519 27.821 24.5137 27.88 24.3696 27.88Z" fill="#F3EBD4" stroke="#F3EBD4" stroke-width="0.5"/>
</svg>
