<svg width="32" height="35" viewBox="0 0 32 35" fill="none" xmlns="http://www.w3.org/2000/svg">
<path d="M29.913 2.8H25.0435V0.7C25.0435 0.514348 24.9702 0.336301 24.8397 0.205025C24.7093 0.0737499 24.5323 0 24.3478 0C24.1633 0 23.9864 0.0737499 23.8559 0.205025C23.7255 0.336301 23.6522 0.514348 23.6522 0.7V2.8H8.34783V0.7C8.34783 0.514348 8.27454 0.336301 8.14407 0.205025C8.01361 0.0737499 7.83667 0 7.65217 0C7.46768 0 7.29073 0.0737499 7.16027 0.205025C7.02981 0.336301 6.95652 0.514348 6.95652 0.7V2.8H2.08696C1.53346 2.8 1.00264 3.02125 0.611255 3.41508C0.219875 3.8089 0 4.34305 0 4.9V32.9C0 33.457 0.219875 33.9911 0.611255 34.3849C1.00264 34.7787 1.53346 35 2.08696 35H29.913C30.4665 35 30.9974 34.7787 31.3887 34.3849C31.7801 33.9911 32 33.457 32 32.9V4.9C32 4.34305 31.7801 3.8089 31.3887 3.41508C30.9974 3.02125 30.4665 2.8 29.913 2.8ZM2.08696 4.2H6.95652V6.3C6.95652 6.48565 7.02981 6.6637 7.16027 6.79497C7.29073 6.92625 7.46768 7 7.65217 7C7.83667 7 8.01361 6.92625 8.14407 6.79497C8.27454 6.6637 8.34783 6.48565 8.34783 6.3V4.2H23.6522V6.3C23.6522 6.48565 23.7255 6.6637 23.8559 6.79497C23.9864 6.92625 24.1633 7 24.3478 7C24.5323 7 24.7093 6.92625 24.8397 6.79497C24.9702 6.6637 25.0435 6.48565 25.0435 6.3V4.2H29.913C30.0975 4.2 30.2745 4.27375 30.4049 4.40503C30.5354 4.5363 30.6087 4.71435 30.6087 4.9V11.2H1.3913V4.9C1.3913 4.71435 1.4646 4.5363 1.59506 4.40503C1.72552 4.27375 1.90246 4.2 2.08696 4.2ZM29.913 33.6H2.08696C1.90246 33.6 1.72552 33.5263 1.59506 33.395C1.4646 33.2637 1.3913 33.0857 1.3913 32.9V12.6H30.6087V32.9C30.6087 33.0857 30.5354 33.2637 30.4049 33.395C30.2745 33.5263 30.0975 33.6 29.913 33.6ZM12.5217 17.5V28.7C12.5217 28.8857 12.4484 29.0637 12.318 29.195C12.1875 29.3263 12.0106 29.4 11.8261 29.4C11.6416 29.4 11.4646 29.3263 11.3342 29.195C11.2037 29.0637 11.1304 28.8857 11.1304 28.7V18.6322L9.35478 19.5265C9.18966 19.6096 8.9985 19.6232 8.82335 19.5645C8.64821 19.5058 8.50343 19.3794 8.42087 19.2132C8.33831 19.0471 8.32472 18.8547 8.3831 18.6785C8.44148 18.5023 8.56705 18.3566 8.73217 18.2735L11.5148 16.8735C11.6209 16.8201 11.7388 16.7948 11.8573 16.8002C11.9758 16.8056 12.091 16.8413 12.1919 16.9041C12.2928 16.9669 12.3761 17.0546 12.4338 17.1589C12.4916 17.2632 12.5218 17.3806 12.5217 17.5ZM22.9565 22.4L18.7826 28H22.9565C23.141 28 23.318 28.0737 23.4484 28.205C23.5789 28.3363 23.6522 28.5143 23.6522 28.7C23.6522 28.8857 23.5789 29.0637 23.4484 29.195C23.318 29.3263 23.141 29.4 22.9565 29.4H17.3913C17.2621 29.4 17.1355 29.3638 17.0256 29.2955C16.9157 29.2271 16.8269 29.1293 16.7691 29.013C16.7113 28.8968 16.6869 28.7666 16.6985 28.6371C16.7101 28.5077 16.7573 28.384 16.8348 28.28L21.84 21.5652C22.1146 21.2015 22.2625 20.7568 22.2609 20.3C22.2614 19.8373 22.11 19.3874 21.8303 19.0201C21.5505 18.6529 21.1581 18.3889 20.7139 18.2692C20.2697 18.1495 19.7987 18.1807 19.3739 18.3581C18.9492 18.5354 18.5946 18.849 18.3652 19.25C18.269 19.4024 18.1179 19.5114 17.9436 19.5544C17.7694 19.5973 17.5854 19.5709 17.43 19.4805C17.2747 19.3902 17.16 19.2429 17.11 19.0695C17.0601 18.8961 17.0786 18.71 17.1617 18.55C17.5446 17.8828 18.1355 17.3614 18.8429 17.0665C19.5503 16.7717 20.3346 16.72 21.0742 16.9194C21.8137 17.1188 22.4672 17.5582 22.9334 18.1694C23.3995 18.7807 23.6521 19.5296 23.6522 20.3C23.6548 21.0577 23.4105 21.7954 22.9565 22.4Z" fill="#F3EBD4"/>
</svg>
