<svg width="25" height="23" viewBox="0 0 25 23" fill="none" xmlns="http://www.w3.org/2000/svg">
<path d="M2.63289 10.2222C1.89605 10.2222 1.27325 9.97519 0.764474 9.48111C0.254825 8.98704 0 8.38265 0 7.66794C0 6.95239 0.254386 6.34757 0.763158 5.8535C1.27193 5.35857 1.8943 5.11111 2.63026 5.11111C3.36711 5.11111 3.98991 5.35815 4.49868 5.85222C5.00833 6.3463 5.26316 6.95068 5.26316 7.66539C5.26316 8.38094 5.00877 8.98576 4.5 9.47983C3.99123 9.97476 3.36886 10.2222 2.63289 10.2222ZM8.55395 5.11111C7.81711 5.11111 7.1943 4.86407 6.68553 4.37C6.17588 3.87593 5.92105 3.27154 5.92105 2.55683C5.92105 1.84128 6.17544 1.23646 6.68421 0.742389C7.19298 0.247463 7.81535 0 8.55132 0C9.28816 0 9.91096 0.247037 10.4197 0.741111C10.9294 1.23519 11.1842 1.83957 11.1842 2.55428C11.1842 3.26983 10.9298 3.87465 10.4211 4.36872C9.91228 4.86365 9.28991 5.11111 8.55395 5.11111ZM16.4487 5.11111C15.7118 5.11111 15.089 4.86407 14.5803 4.37C14.0706 3.87593 13.8158 3.27154 13.8158 2.55683C13.8158 1.84128 14.0702 1.23646 14.5789 0.742389C15.0877 0.247463 15.7101 0 16.4461 0C17.1829 0 17.8057 0.247037 18.3145 0.741111C18.8241 1.23519 19.0789 1.83957 19.0789 2.55428C19.0789 3.26983 18.8246 3.87465 18.3158 4.36872C17.807 4.86365 17.1847 5.11111 16.4487 5.11111ZM22.3697 10.2222C21.6329 10.2222 21.0101 9.97519 20.5013 9.48111C19.9917 8.98704 19.7368 8.38265 19.7368 7.66794C19.7368 6.95239 19.9912 6.34757 20.5 5.8535C21.0088 5.35857 21.6311 5.11111 22.3671 5.11111C23.1039 5.11111 23.7268 5.35815 24.2355 5.85222C24.7452 6.3463 25 6.95068 25 7.66539C25 8.38094 24.7456 8.98576 24.2368 9.47983C23.7281 9.97476 23.1057 10.2222 22.3697 10.2222ZM5.46053 23C4.64211 23 3.96623 22.6959 3.43289 22.0877C2.89868 21.4794 2.63158 20.7613 2.63158 19.9333C2.63158 18.8915 3.00833 18.0005 3.76184 17.2602C4.51447 16.5191 5.24956 15.7686 5.9671 15.0088C6.60307 14.3324 7.1557 13.6096 7.625 12.8404C8.09342 12.0712 8.63728 11.3458 9.25658 10.6643C9.68816 10.1924 10.1768 9.78778 10.7224 9.45044C11.268 9.11311 11.8605 8.94444 12.5 8.94444C13.1579 8.94444 13.7675 9.1063 14.3289 9.43C14.8904 9.75541 15.3789 10.1622 15.7947 10.6503C16.4088 11.3318 16.9474 12.058 17.4105 12.8289C17.8737 13.6007 18.4145 14.3273 19.0329 15.0088C19.7504 15.7686 20.4855 16.5191 21.2382 17.2602C21.9917 18.0005 22.3684 18.8915 22.3684 19.9333C22.3684 20.7613 22.1013 21.4794 21.5671 22.0877C21.0338 22.6959 20.3579 23 19.5395 23C18.3553 23 17.182 22.9042 16.0197 22.7125C14.8575 22.5208 13.6842 22.425 12.5 22.425C11.3158 22.425 10.1425 22.5208 8.98026 22.7125C7.81798 22.9042 6.64474 23 5.46053 23Z" fill="#FF6A59" fill-opacity="0.65"/>
</svg>
