<svg width="26" height="26" viewBox="0 0 26 26" fill="none" xmlns="http://www.w3.org/2000/svg">
<path fill-rule="evenodd" clip-rule="evenodd" d="M13 0C16.4478 5.13764e-08 19.7544 1.36964 22.1924 3.80761C24.6304 6.24558 26 9.55219 26 13C26 16.4478 24.6304 19.7544 22.1924 22.1924C19.7544 24.6304 16.4478 26 13 26H6.5C4.48067 26 3.471 26 2.67511 25.6707C2.1492 25.4529 1.67135 25.1336 1.26886 24.7311C0.866361 24.3286 0.547109 23.8508 0.329335 23.3249C1.40236e-06 22.529 4.76837e-07 21.5193 4.76837e-07 19.5V13C4.76837e-07 9.55219 1.36964 6.24558 3.80761 3.80761C6.24559 1.36964 9.55219 0 13 0ZM18.7778 11.5556C18.7778 11.1725 18.6256 10.8051 18.3547 10.5342C18.0838 10.2633 17.7164 10.1111 17.3333 10.1111H8.66667C8.28358 10.1111 7.91618 10.2633 7.64529 10.5342C7.3744 10.8051 7.22222 11.1725 7.22222 11.5556C7.22222 11.9386 7.3744 12.306 7.64529 12.5769C7.91618 12.8478 8.28358 13 8.66667 13H17.3333C17.7164 13 18.0838 12.8478 18.3547 12.5769C18.6256 12.306 18.7778 11.9386 18.7778 11.5556ZM14.4444 17.3333C14.4444 16.9502 14.2923 16.5828 14.0214 16.312C13.7505 16.0411 13.3831 15.8889 13 15.8889H8.66667C8.28358 15.8889 7.91618 16.0411 7.64529 16.312C7.3744 16.5828 7.22222 16.9502 7.22222 17.3333C7.22222 17.7164 7.3744 18.0838 7.64529 18.3547C7.91618 18.6256 8.28358 18.7778 8.66667 18.7778H13C13.3831 18.7778 13.7505 18.6256 14.0214 18.3547C14.2923 18.0838 14.4444 17.7164 14.4444 17.3333Z" fill="#FF6A59" fill-opacity="0.65"/>
</svg>
