<svg width="38" height="38" viewBox="0 0 38 38" fill="none" xmlns="http://www.w3.org/2000/svg">
<circle cx="19" cy="19" r="19" fill="#F2D468"/>
<path d="M27.4074 14.399C26.6117 12.7794 24.3195 11.4542 21.6531 12.2257C20.379 12.5907 19.2674 13.3735 18.4999 14.4461C17.7323 13.3735 16.6207 12.5907 15.3466 12.2257C12.6743 11.466 10.3881 12.7794 9.59231 14.399C8.47589 16.6665 8.93909 19.2166 10.97 21.9788C12.5615 24.1403 14.8359 26.3312 18.1376 28.8755C18.242 28.9562 18.3705 29 18.5028 29C18.6352 29 18.7637 28.9562 18.868 28.8755C22.1638 26.3371 24.4442 24.1638 26.0357 21.9788C28.0606 19.2166 28.5238 16.6665 27.4074 14.399Z" fill="white"/>
</svg>
