<svg width="32" height="27" viewBox="0 0 32 27" fill="none" xmlns="http://www.w3.org/2000/svg">
<path d="M22.9444 1C19.9667 1 17.4 2.38451 16 4.67799C14.6 2.38451 12.0333 1 9.05556 1C6.91988 1.00252 4.87241 1.83358 3.36226 3.3109C1.85211 4.78823 1.00257 6.79118 1 8.88043C1 12.7649 3.5 16.8247 8.41667 20.9443C10.6868 22.8341 13.138 24.5053 15.7361 25.9348C15.8172 25.9776 15.9079 26 16 26C16.0921 26 16.1828 25.9776 16.2639 25.9348C18.862 24.5053 21.3132 22.8341 23.5833 20.9443C28.5 16.8247 31 12.7649 31 8.88043C30.9974 6.79118 30.1479 4.78823 28.6377 3.3109C27.1276 1.83358 25.0801 1.00252 22.9444 1ZM16 24.8342C14.0556 23.7473 2.11111 16.7704 2.11111 8.88043C2.11332 7.07935 2.84567 5.35266 4.14753 4.0791C5.44939 2.80555 7.21445 2.08911 9.05556 2.08696C11.9875 2.08696 14.4514 3.62364 15.4861 6.09647C15.528 6.19615 15.5992 6.2814 15.6907 6.3414C15.7822 6.4014 15.8898 6.43344 16 6.43344C16.1102 6.43344 16.2178 6.4014 16.3093 6.3414C16.4008 6.2814 16.472 6.19615 16.5139 6.09647C17.5486 3.62364 20.0125 2.08696 22.9444 2.08696C24.7855 2.08911 26.5506 2.80555 27.8525 4.0791C29.1543 5.35266 29.8867 7.07935 29.8889 8.88043C29.8889 16.7609 17.9444 23.7527 16 24.8342Z" fill="#F3EBD4" stroke="#F3EBD4" stroke-width="0.5"/>
</svg>
