<svg width="154" height="219" viewBox="0 0 154 219" fill="none" xmlns="http://www.w3.org/2000/svg">
<mask id="mask0_110_103" style="mask-type:alpha" maskUnits="userSpaceOnUse" x="0" y="0" width="154" height="219">
<rect x="0.663818" y="0.279999" width="153.145" height="217.937" rx="20" fill="#F3EBD4"/>
</mask>
<g mask="url(#mask0_110_103)">
<rect x="0.663818" y="0.279999" width="153.145" height="217.937" rx="20" fill="#F3EBD4"/>
<path d="M155.697 5.80394L149.35 7.3852L144.853 -4.16352L133.405 -11.6881L124.905 -14.4208L112.658 -11.638L106.818 -5.86857L99.1962 6.81371L99.4143 14.7122L101.25 23.1505L96.0455 26.0651L110.988 79.489L19.2865 47.4892L4.28908 58.9691L22.8281 66.0168L23.8195 53.2346L116.083 99.382L178.436 81.8181L155.703 5.8044L155.697 5.80394ZM105.561 20.997L104.689 12.6335L106.76 5.53503L110.271 -2.28239L116.622 -9.25714L127.55 -8.40956L136.669 -5.62883L143.136 1.92371L145.859 9.60222L105.559 20.9949L105.561 20.997Z" fill="#35CB6A"/>
<path d="M25.8445 119.415C25.8445 120.343 25.5245 121.117 24.8845 121.735C24.2552 122.343 23.2898 122.647 21.9885 122.647L19.8445 122.647L19.8445 127.303L18.3885 127.303L18.3885 116.151L21.9885 116.151C23.2472 116.151 24.2018 116.455 24.8525 117.063C25.5138 117.671 25.8445 118.455 25.8445 119.415ZM21.9885 121.447C22.7992 121.447 23.3965 121.271 23.7805 120.919C24.1645 120.567 24.3565 120.066 24.3565 119.415C24.3565 118.039 23.5672 117.351 21.9885 117.351L19.8445 117.351L19.8445 121.447L21.9885 121.447ZM29.1101 115.463L29.1101 127.303L27.6541 127.303L27.6541 115.463L29.1101 115.463ZM39.3676 118.535L39.3676 127.303L37.9116 127.303L37.9116 126.007C37.6343 126.455 37.245 126.807 36.7436 127.063C36.253 127.309 35.709 127.431 35.1116 127.431C34.429 127.431 33.8156 127.293 33.2716 127.015C32.7276 126.727 32.2956 126.301 31.9756 125.735C31.6663 125.17 31.5116 124.482 31.5116 123.671L31.5116 118.535L32.9516 118.535L32.9516 123.479C32.9516 124.343 33.1703 125.01 33.6076 125.479C34.045 125.938 34.6423 126.167 35.3996 126.167C36.1783 126.167 36.7916 125.927 37.2396 125.447C37.6876 124.967 37.9116 124.269 37.9116 123.351L37.9116 118.535L39.3676 118.535ZM44.93 127.447C44.258 127.447 43.6553 127.335 43.122 127.111C42.5887 126.877 42.1673 126.557 41.858 126.151C41.5487 125.735 41.378 125.261 41.346 124.727L42.85 124.727C42.8927 125.165 43.0953 125.522 43.458 125.799C43.8313 126.077 44.3167 126.215 44.914 126.215C45.4687 126.215 45.906 126.093 46.226 125.847C46.546 125.602 46.706 125.293 46.706 124.919C46.706 124.535 46.5353 124.253 46.194 124.071C45.8527 123.879 45.3247 123.693 44.61 123.511C43.9593 123.341 43.426 123.17 43.01 122.999C42.6047 122.818 42.2527 122.557 41.954 122.215C41.666 121.863 41.522 121.405 41.522 120.839C41.522 120.391 41.6553 119.981 41.922 119.607C42.1887 119.234 42.5673 118.941 43.058 118.727C43.5487 118.503 44.1087 118.391 44.738 118.391C45.7087 118.391 46.4927 118.637 47.09 119.127C47.6873 119.618 48.0073 120.29 48.05 121.143L46.594 121.143C46.562 120.685 46.3753 120.317 46.034 120.039C45.7033 119.762 45.2553 119.623 44.69 119.623C44.1673 119.623 43.7513 119.735 43.442 119.959C43.1327 120.183 42.978 120.477 42.978 120.839C42.978 121.127 43.0687 121.367 43.25 121.559C43.442 121.741 43.6767 121.89 43.954 122.007C44.242 122.114 44.6367 122.237 45.138 122.375C45.7673 122.546 46.2793 122.717 46.674 122.887C47.0687 123.047 47.4047 123.293 47.682 123.623C47.97 123.954 48.1193 124.386 48.13 124.919C48.13 125.399 47.9967 125.831 47.73 126.215C47.4633 126.599 47.0847 126.903 46.594 127.127C46.114 127.341 45.5593 127.447 44.93 127.447ZM53.907 122.887C53.907 121.991 54.0883 121.207 54.451 120.535C54.8137 119.853 55.3097 119.325 55.939 118.951C56.579 118.578 57.2937 118.391 58.083 118.391C58.7657 118.391 59.4003 118.551 59.987 118.871C60.5737 119.181 61.0217 119.591 61.331 120.103L61.331 115.463L62.803 115.463L62.803 127.303L61.331 127.303L61.331 125.655C61.043 126.178 60.6163 126.61 60.051 126.951C59.4857 127.282 58.8243 127.447 58.067 127.447C57.2883 127.447 56.579 127.255 55.939 126.871C55.3097 126.487 54.8137 125.949 54.451 125.255C54.0883 124.562 53.907 123.773 53.907 122.887ZM61.331 122.903C61.331 122.242 61.1977 121.666 60.931 121.175C60.6643 120.685 60.3017 120.311 59.843 120.055C59.395 119.789 58.899 119.655 58.355 119.655C57.811 119.655 57.315 119.783 56.867 120.039C56.419 120.295 56.0617 120.669 55.795 121.159C55.5283 121.65 55.395 122.226 55.395 122.887C55.395 123.559 55.5283 124.146 55.795 124.647C56.0617 125.138 56.419 125.517 56.867 125.783C57.315 126.039 57.811 126.167 58.355 126.167C58.899 126.167 59.395 126.039 59.843 125.783C60.3017 125.517 60.6643 125.138 60.931 124.647C61.1977 124.146 61.331 123.565 61.331 122.903ZM73.2635 122.583C73.2635 122.861 73.2475 123.154 73.2155 123.463L66.2075 123.463C66.2608 124.327 66.5542 125.005 67.0875 125.495C67.6315 125.975 68.2875 126.215 69.0555 126.215C69.6848 126.215 70.2075 126.071 70.6235 125.783C71.0502 125.485 71.3488 125.09 71.5195 124.599L73.0875 124.599C72.8528 125.442 72.3835 126.13 71.6795 126.663C70.9755 127.186 70.1008 127.447 69.0555 127.447C68.2235 127.447 67.4768 127.261 66.8155 126.887C66.1648 126.514 65.6528 125.986 65.2795 125.303C64.9062 124.61 64.7195 123.81 64.7195 122.903C64.7195 121.997 64.9008 121.202 65.2635 120.519C65.6262 119.837 66.1328 119.314 66.7835 118.951C67.4448 118.578 68.2022 118.391 69.0555 118.391C69.8875 118.391 70.6235 118.573 71.2635 118.935C71.9035 119.298 72.3942 119.799 72.7355 120.439C73.0875 121.069 73.2635 121.783 73.2635 122.583ZM71.7595 122.279C71.7595 121.725 71.6368 121.25 71.3915 120.855C71.1462 120.45 70.8102 120.146 70.3835 119.943C69.9675 119.73 69.5035 119.623 68.9915 119.623C68.2555 119.623 67.6262 119.858 67.1035 120.327C66.5915 120.797 66.2982 121.447 66.2235 122.279L71.7595 122.279ZM17.8445 146.903C17.8445 145.997 18.0258 145.207 18.3885 144.535C18.7512 143.853 19.2525 143.325 19.8925 142.951C20.5432 142.578 21.2845 142.391 22.1165 142.391C23.1938 142.391 24.0792 142.653 24.7725 143.175C25.4765 143.698 25.9405 144.423 26.1645 145.351L24.5965 145.351C24.4472 144.818 24.1538 144.397 23.7165 144.087C23.2898 143.778 22.7565 143.623 22.1165 143.623C21.2845 143.623 20.6125 143.911 20.1005 144.487C19.5885 145.053 19.3325 145.858 19.3325 146.903C19.3325 147.959 19.5885 148.775 20.1005 149.351C20.6125 149.927 21.2845 150.215 22.1165 150.215C22.7565 150.215 23.2898 150.066 23.7165 149.767C24.1432 149.469 24.4365 149.042 24.5965 148.487L26.1645 148.487C25.9298 149.383 25.4605 150.103 24.7565 150.647C24.0525 151.181 23.1725 151.447 22.1165 151.447C21.2845 151.447 20.5432 151.261 19.8925 150.887C19.2525 150.514 18.7512 149.986 18.3885 149.303C18.0258 148.621 17.8445 147.821 17.8445 146.903ZM31.9312 151.447C31.1099 151.447 30.3632 151.261 29.6912 150.887C29.0299 150.514 28.5072 149.986 28.1232 149.303C27.7499 148.61 27.5632 147.81 27.5632 146.903C27.5632 146.007 27.7552 145.218 28.1392 144.535C28.5339 143.842 29.0672 143.314 29.7392 142.951C30.4112 142.578 31.1632 142.391 31.9952 142.391C32.8272 142.391 33.5792 142.578 34.2512 142.951C34.9232 143.314 35.4512 143.837 35.8352 144.519C36.2299 145.202 36.4272 145.997 36.4272 146.903C36.4272 147.81 36.2246 148.61 35.8192 149.303C35.4246 149.986 34.8859 150.514 34.2032 150.887C33.5206 151.261 32.7632 151.447 31.9312 151.447ZM31.9312 150.167C32.4539 150.167 32.9446 150.045 33.4032 149.799C33.8619 149.554 34.2299 149.186 34.5072 148.695C34.7952 148.205 34.9392 147.607 34.9392 146.903C34.9392 146.199 34.8006 145.602 34.5232 145.111C34.2459 144.621 33.8832 144.258 33.4352 144.023C32.9872 143.778 32.5019 143.655 31.9792 143.655C31.4459 143.655 30.9552 143.778 30.5072 144.023C30.0699 144.258 29.7179 144.621 29.4512 145.111C29.1846 145.602 29.0512 146.199 29.0512 146.903C29.0512 147.618 29.1792 148.221 29.4352 148.711C29.7019 149.202 30.0539 149.57 30.4912 149.815C30.9286 150.05 31.4086 150.167 31.9312 150.167ZM42.6136 142.375C43.6803 142.375 44.5443 142.701 45.2056 143.351C45.867 143.991 46.1976 144.919 46.1976 146.135L46.1976 151.303L44.7576 151.303L44.7576 146.343C44.7576 145.469 44.539 144.802 44.1016 144.343C43.6643 143.874 43.067 143.639 42.3096 143.639C41.5416 143.639 40.9283 143.879 40.4696 144.359C40.0216 144.839 39.7976 145.538 39.7976 146.455L39.7976 151.303L38.3416 151.303L38.3416 142.535L39.7976 142.535L39.7976 143.783C40.0856 143.335 40.475 142.989 40.9656 142.743C41.467 142.498 42.0163 142.375 42.6136 142.375ZM51.68 151.447C51.008 151.447 50.4053 151.335 49.872 151.111C49.3387 150.877 48.9173 150.557 48.608 150.151C48.2987 149.735 48.128 149.261 48.096 148.727L49.6 148.727C49.6427 149.165 49.8453 149.522 50.208 149.799C50.5813 150.077 51.0667 150.215 51.664 150.215C52.2187 150.215 52.656 150.093 52.976 149.847C53.296 149.602 53.456 149.293 53.456 148.919C53.456 148.535 53.2853 148.253 52.944 148.071C52.6027 147.879 52.0747 147.693 51.36 147.511C50.7093 147.341 50.176 147.17 49.76 146.999C49.3547 146.818 49.0027 146.557 48.704 146.215C48.416 145.863 48.272 145.405 48.272 144.839C48.272 144.391 48.4053 143.981 48.672 143.607C48.9387 143.234 49.3173 142.941 49.808 142.727C50.2987 142.503 50.8587 142.391 51.488 142.391C52.4587 142.391 53.2427 142.637 53.84 143.127C54.4373 143.618 54.7573 144.29 54.8 145.143L53.344 145.143C53.312 144.685 53.1253 144.317 52.784 144.039C52.4533 143.762 52.0053 143.623 51.44 143.623C50.9173 143.623 50.5013 143.735 50.192 143.959C49.8827 144.183 49.728 144.477 49.728 144.839C49.728 145.127 49.8187 145.367 50 145.559C50.192 145.741 50.4267 145.89 50.704 146.007C50.992 146.114 51.3867 146.237 51.888 146.375C52.5173 146.546 53.0293 146.717 53.424 146.887C53.8187 147.047 54.1547 147.293 54.432 147.623C54.72 147.954 54.8693 148.386 54.88 148.919C54.88 149.399 54.7467 149.831 54.48 150.215C54.2133 150.599 53.8347 150.903 53.344 151.127C52.864 151.341 52.3093 151.447 51.68 151.447ZM64.9354 146.583C64.9354 146.861 64.9194 147.154 64.8874 147.463L57.8794 147.463C57.9327 148.327 58.226 149.005 58.7594 149.495C59.3034 149.975 59.9594 150.215 60.7274 150.215C61.3567 150.215 61.8794 150.071 62.2954 149.783C62.722 149.485 63.0207 149.09 63.1914 148.599L64.7594 148.599C64.5247 149.442 64.0554 150.13 63.3514 150.663C62.6474 151.186 61.7727 151.447 60.7274 151.447C59.8954 151.447 59.1487 151.261 58.4874 150.887C57.8367 150.514 57.3247 149.986 56.9514 149.303C56.578 148.61 56.3914 147.81 56.3914 146.903C56.3914 145.997 56.5727 145.202 56.9354 144.519C57.298 143.837 57.8047 143.314 58.4554 142.951C59.1167 142.578 59.874 142.391 60.7274 142.391C61.5594 142.391 62.2954 142.573 62.9354 142.935C63.5754 143.298 64.066 143.799 64.4074 144.439C64.7594 145.069 64.9354 145.783 64.9354 146.583ZM63.4314 146.279C63.4314 145.725 63.3087 145.25 63.0634 144.855C62.818 144.45 62.482 144.146 62.0554 143.943C61.6394 143.73 61.1754 143.623 60.6634 143.623C59.9274 143.623 59.298 143.858 58.7754 144.327C58.2634 144.797 57.97 145.447 57.8954 146.279L63.4314 146.279ZM67.6092 141.111C67.3319 141.111 67.0972 141.015 66.9052 140.823C66.7132 140.631 66.6172 140.397 66.6172 140.119C66.6172 139.842 66.7132 139.607 66.9052 139.415C67.0972 139.223 67.3319 139.127 67.6092 139.127C67.8759 139.127 68.0999 139.223 68.2812 139.415C68.4732 139.607 68.5692 139.842 68.5692 140.119C68.5692 140.397 68.4732 140.631 68.2812 140.823C68.0999 141.015 67.8759 141.111 67.6092 141.111ZM68.3132 142.535L68.3132 151.303L66.8572 151.303L66.8572 142.535L68.3132 142.535ZM72.2507 139.463L72.2507 151.303L70.7947 151.303L70.7947 139.463L72.2507 139.463ZM76.1882 139.463L76.1882 151.303L74.7322 151.303L74.7322 139.463L76.1882 139.463ZM86.6697 146.583C86.6697 146.861 86.6537 147.154 86.6217 147.463L79.6137 147.463C79.6671 148.327 79.9604 149.005 80.4937 149.495C81.0377 149.975 81.6937 150.215 82.4617 150.215C83.0911 150.215 83.6137 150.071 84.0297 149.783C84.4564 149.485 84.7551 149.09 84.9257 148.599L86.4937 148.599C86.2591 149.442 85.7897 150.13 85.0857 150.663C84.3817 151.186 83.5071 151.447 82.4617 151.447C81.6297 151.447 80.8831 151.261 80.2217 150.887C79.5711 150.514 79.0591 149.986 78.6857 149.303C78.3124 148.61 78.1257 147.81 78.1257 146.903C78.1257 145.997 78.3071 145.202 78.6697 144.519C79.0324 143.837 79.5391 143.314 80.1897 142.951C80.8511 142.578 81.6084 142.391 82.4617 142.391C83.2937 142.391 84.0297 142.573 84.6697 142.935C85.3097 143.298 85.8004 143.799 86.1417 144.439C86.4937 145.069 86.6697 145.783 86.6697 146.583ZM85.1657 146.279C85.1657 145.725 85.0431 145.25 84.7977 144.855C84.5524 144.45 84.2164 144.146 83.7897 143.943C83.3737 143.73 82.9097 143.623 82.3977 143.623C81.6617 143.623 81.0324 143.858 80.5097 144.327C79.9977 144.797 79.7044 145.447 79.6297 146.279L85.1657 146.279ZM91.6956 151.447C91.0236 151.447 90.421 151.335 89.8876 151.111C89.3543 150.877 88.933 150.557 88.6236 150.151C88.3143 149.735 88.1436 149.261 88.1116 148.727L89.6156 148.727C89.6583 149.165 89.861 149.522 90.2236 149.799C90.597 150.077 91.0823 150.215 91.6796 150.215C92.2343 150.215 92.6716 150.093 92.9916 149.847C93.3116 149.602 93.4716 149.293 93.4716 148.919C93.4716 148.535 93.301 148.253 92.9596 148.071C92.6183 147.879 92.0903 147.693 91.3756 147.511C90.725 147.341 90.1916 147.17 89.7756 146.999C89.3703 146.818 89.0183 146.557 88.7196 146.215C88.4316 145.863 88.2876 145.405 88.2876 144.839C88.2876 144.391 88.421 143.981 88.6876 143.607C88.9543 143.234 89.333 142.941 89.8236 142.727C90.3143 142.503 90.8743 142.391 91.5036 142.391C92.4743 142.391 93.2583 142.637 93.8556 143.127C94.453 143.618 94.773 144.29 94.8156 145.143L93.3596 145.143C93.3276 144.685 93.141 144.317 92.7996 144.039C92.469 143.762 92.021 143.623 91.4556 143.623C90.933 143.623 90.517 143.735 90.2076 143.959C89.8983 144.183 89.7436 144.477 89.7436 144.839C89.7436 145.127 89.8343 145.367 90.0156 145.559C90.2076 145.741 90.4423 145.89 90.7196 146.007C91.0076 146.114 91.4023 146.237 91.9036 146.375C92.533 146.546 93.045 146.717 93.4396 146.887C93.8343 147.047 94.1703 147.293 94.4476 147.623C94.7356 147.954 94.885 148.386 94.8956 148.919C94.8956 149.399 94.7623 149.831 94.4956 150.215C94.229 150.599 93.8503 150.903 93.3596 151.127C92.8796 151.341 92.325 151.447 91.6956 151.447Z" fill="white"/>
<path d="M25.8445 119.415C25.8445 120.343 25.5245 121.117 24.8845 121.735C24.2552 122.343 23.2898 122.647 21.9885 122.647L19.8445 122.647L19.8445 127.303L18.3885 127.303L18.3885 116.151L21.9885 116.151C23.2472 116.151 24.2018 116.455 24.8525 117.063C25.5138 117.671 25.8445 118.455 25.8445 119.415ZM21.9885 121.447C22.7992 121.447 23.3965 121.271 23.7805 120.919C24.1645 120.567 24.3565 120.066 24.3565 119.415C24.3565 118.039 23.5672 117.351 21.9885 117.351L19.8445 117.351L19.8445 121.447L21.9885 121.447ZM29.1101 115.463L29.1101 127.303L27.6541 127.303L27.6541 115.463L29.1101 115.463ZM39.3676 118.535L39.3676 127.303L37.9116 127.303L37.9116 126.007C37.6343 126.455 37.245 126.807 36.7436 127.063C36.253 127.309 35.709 127.431 35.1116 127.431C34.429 127.431 33.8156 127.293 33.2716 127.015C32.7276 126.727 32.2956 126.301 31.9756 125.735C31.6663 125.17 31.5116 124.482 31.5116 123.671L31.5116 118.535L32.9516 118.535L32.9516 123.479C32.9516 124.343 33.1703 125.01 33.6076 125.479C34.045 125.938 34.6423 126.167 35.3996 126.167C36.1783 126.167 36.7916 125.927 37.2396 125.447C37.6876 124.967 37.9116 124.269 37.9116 123.351L37.9116 118.535L39.3676 118.535ZM44.93 127.447C44.258 127.447 43.6553 127.335 43.122 127.111C42.5887 126.877 42.1673 126.557 41.858 126.151C41.5487 125.735 41.378 125.261 41.346 124.727L42.85 124.727C42.8927 125.165 43.0953 125.522 43.458 125.799C43.8313 126.077 44.3167 126.215 44.914 126.215C45.4687 126.215 45.906 126.093 46.226 125.847C46.546 125.602 46.706 125.293 46.706 124.919C46.706 124.535 46.5353 124.253 46.194 124.071C45.8527 123.879 45.3247 123.693 44.61 123.511C43.9593 123.341 43.426 123.17 43.01 122.999C42.6047 122.818 42.2527 122.557 41.954 122.215C41.666 121.863 41.522 121.405 41.522 120.839C41.522 120.391 41.6553 119.981 41.922 119.607C42.1887 119.234 42.5673 118.941 43.058 118.727C43.5487 118.503 44.1087 118.391 44.738 118.391C45.7087 118.391 46.4927 118.637 47.09 119.127C47.6873 119.618 48.0073 120.29 48.05 121.143L46.594 121.143C46.562 120.685 46.3753 120.317 46.034 120.039C45.7033 119.762 45.2553 119.623 44.69 119.623C44.1673 119.623 43.7513 119.735 43.442 119.959C43.1327 120.183 42.978 120.477 42.978 120.839C42.978 121.127 43.0687 121.367 43.25 121.559C43.442 121.741 43.6767 121.89 43.954 122.007C44.242 122.114 44.6367 122.237 45.138 122.375C45.7673 122.546 46.2793 122.717 46.674 122.887C47.0687 123.047 47.4047 123.293 47.682 123.623C47.97 123.954 48.1193 124.386 48.13 124.919C48.13 125.399 47.9967 125.831 47.73 126.215C47.4633 126.599 47.0847 126.903 46.594 127.127C46.114 127.341 45.5593 127.447 44.93 127.447ZM53.907 122.887C53.907 121.991 54.0883 121.207 54.451 120.535C54.8137 119.853 55.3097 119.325 55.939 118.951C56.579 118.578 57.2937 118.391 58.083 118.391C58.7657 118.391 59.4003 118.551 59.987 118.871C60.5737 119.181 61.0217 119.591 61.331 120.103L61.331 115.463L62.803 115.463L62.803 127.303L61.331 127.303L61.331 125.655C61.043 126.178 60.6163 126.61 60.051 126.951C59.4857 127.282 58.8243 127.447 58.067 127.447C57.2883 127.447 56.579 127.255 55.939 126.871C55.3097 126.487 54.8137 125.949 54.451 125.255C54.0883 124.562 53.907 123.773 53.907 122.887ZM61.331 122.903C61.331 122.242 61.1977 121.666 60.931 121.175C60.6643 120.685 60.3017 120.311 59.843 120.055C59.395 119.789 58.899 119.655 58.355 119.655C57.811 119.655 57.315 119.783 56.867 120.039C56.419 120.295 56.0617 120.669 55.795 121.159C55.5283 121.65 55.395 122.226 55.395 122.887C55.395 123.559 55.5283 124.146 55.795 124.647C56.0617 125.138 56.419 125.517 56.867 125.783C57.315 126.039 57.811 126.167 58.355 126.167C58.899 126.167 59.395 126.039 59.843 125.783C60.3017 125.517 60.6643 125.138 60.931 124.647C61.1977 124.146 61.331 123.565 61.331 122.903ZM73.2635 122.583C73.2635 122.861 73.2475 123.154 73.2155 123.463L66.2075 123.463C66.2608 124.327 66.5542 125.005 67.0875 125.495C67.6315 125.975 68.2875 126.215 69.0555 126.215C69.6848 126.215 70.2075 126.071 70.6235 125.783C71.0502 125.485 71.3488 125.09 71.5195 124.599L73.0875 124.599C72.8528 125.442 72.3835 126.13 71.6795 126.663C70.9755 127.186 70.1008 127.447 69.0555 127.447C68.2235 127.447 67.4768 127.261 66.8155 126.887C66.1648 126.514 65.6528 125.986 65.2795 125.303C64.9062 124.61 64.7195 123.81 64.7195 122.903C64.7195 121.997 64.9008 121.202 65.2635 120.519C65.6262 119.837 66.1328 119.314 66.7835 118.951C67.4448 118.578 68.2022 118.391 69.0555 118.391C69.8875 118.391 70.6235 118.573 71.2635 118.935C71.9035 119.298 72.3942 119.799 72.7355 120.439C73.0875 121.069 73.2635 121.783 73.2635 122.583ZM71.7595 122.279C71.7595 121.725 71.6368 121.25 71.3915 120.855C71.1462 120.45 70.8102 120.146 70.3835 119.943C69.9675 119.73 69.5035 119.623 68.9915 119.623C68.2555 119.623 67.6262 119.858 67.1035 120.327C66.5915 120.797 66.2982 121.447 66.2235 122.279L71.7595 122.279ZM17.8445 146.903C17.8445 145.997 18.0258 145.207 18.3885 144.535C18.7512 143.853 19.2525 143.325 19.8925 142.951C20.5432 142.578 21.2845 142.391 22.1165 142.391C23.1938 142.391 24.0792 142.653 24.7725 143.175C25.4765 143.698 25.9405 144.423 26.1645 145.351L24.5965 145.351C24.4472 144.818 24.1538 144.397 23.7165 144.087C23.2898 143.778 22.7565 143.623 22.1165 143.623C21.2845 143.623 20.6125 143.911 20.1005 144.487C19.5885 145.053 19.3325 145.858 19.3325 146.903C19.3325 147.959 19.5885 148.775 20.1005 149.351C20.6125 149.927 21.2845 150.215 22.1165 150.215C22.7565 150.215 23.2898 150.066 23.7165 149.767C24.1432 149.469 24.4365 149.042 24.5965 148.487L26.1645 148.487C25.9298 149.383 25.4605 150.103 24.7565 150.647C24.0525 151.181 23.1725 151.447 22.1165 151.447C21.2845 151.447 20.5432 151.261 19.8925 150.887C19.2525 150.514 18.7512 149.986 18.3885 149.303C18.0258 148.621 17.8445 147.821 17.8445 146.903ZM31.9312 151.447C31.1099 151.447 30.3632 151.261 29.6912 150.887C29.0299 150.514 28.5072 149.986 28.1232 149.303C27.7499 148.61 27.5632 147.81 27.5632 146.903C27.5632 146.007 27.7552 145.218 28.1392 144.535C28.5339 143.842 29.0672 143.314 29.7392 142.951C30.4112 142.578 31.1632 142.391 31.9952 142.391C32.8272 142.391 33.5792 142.578 34.2512 142.951C34.9232 143.314 35.4512 143.837 35.8352 144.519C36.2299 145.202 36.4272 145.997 36.4272 146.903C36.4272 147.81 36.2246 148.61 35.8192 149.303C35.4246 149.986 34.8859 150.514 34.2032 150.887C33.5206 151.261 32.7632 151.447 31.9312 151.447ZM31.9312 150.167C32.4539 150.167 32.9446 150.045 33.4032 149.799C33.8619 149.554 34.2299 149.186 34.5072 148.695C34.7952 148.205 34.9392 147.607 34.9392 146.903C34.9392 146.199 34.8006 145.602 34.5232 145.111C34.2459 144.621 33.8832 144.258 33.4352 144.023C32.9872 143.778 32.5019 143.655 31.9792 143.655C31.4459 143.655 30.9552 143.778 30.5072 144.023C30.0699 144.258 29.7179 144.621 29.4512 145.111C29.1846 145.602 29.0512 146.199 29.0512 146.903C29.0512 147.618 29.1792 148.221 29.4352 148.711C29.7019 149.202 30.0539 149.57 30.4912 149.815C30.9286 150.05 31.4086 150.167 31.9312 150.167ZM42.6136 142.375C43.6803 142.375 44.5443 142.701 45.2056 143.351C45.867 143.991 46.1976 144.919 46.1976 146.135L46.1976 151.303L44.7576 151.303L44.7576 146.343C44.7576 145.469 44.539 144.802 44.1016 144.343C43.6643 143.874 43.067 143.639 42.3096 143.639C41.5416 143.639 40.9283 143.879 40.4696 144.359C40.0216 144.839 39.7976 145.538 39.7976 146.455L39.7976 151.303L38.3416 151.303L38.3416 142.535L39.7976 142.535L39.7976 143.783C40.0856 143.335 40.475 142.989 40.9656 142.743C41.467 142.498 42.0163 142.375 42.6136 142.375ZM51.68 151.447C51.008 151.447 50.4053 151.335 49.872 151.111C49.3387 150.877 48.9173 150.557 48.608 150.151C48.2987 149.735 48.128 149.261 48.096 148.727L49.6 148.727C49.6427 149.165 49.8453 149.522 50.208 149.799C50.5813 150.077 51.0667 150.215 51.664 150.215C52.2187 150.215 52.656 150.093 52.976 149.847C53.296 149.602 53.456 149.293 53.456 148.919C53.456 148.535 53.2853 148.253 52.944 148.071C52.6027 147.879 52.0747 147.693 51.36 147.511C50.7093 147.341 50.176 147.17 49.76 146.999C49.3547 146.818 49.0027 146.557 48.704 146.215C48.416 145.863 48.272 145.405 48.272 144.839C48.272 144.391 48.4053 143.981 48.672 143.607C48.9387 143.234 49.3173 142.941 49.808 142.727C50.2987 142.503 50.8587 142.391 51.488 142.391C52.4587 142.391 53.2427 142.637 53.84 143.127C54.4373 143.618 54.7573 144.29 54.8 145.143L53.344 145.143C53.312 144.685 53.1253 144.317 52.784 144.039C52.4533 143.762 52.0053 143.623 51.44 143.623C50.9173 143.623 50.5013 143.735 50.192 143.959C49.8827 144.183 49.728 144.477 49.728 144.839C49.728 145.127 49.8187 145.367 50 145.559C50.192 145.741 50.4267 145.89 50.704 146.007C50.992 146.114 51.3867 146.237 51.888 146.375C52.5173 146.546 53.0293 146.717 53.424 146.887C53.8187 147.047 54.1547 147.293 54.432 147.623C54.72 147.954 54.8693 148.386 54.88 148.919C54.88 149.399 54.7467 149.831 54.48 150.215C54.2133 150.599 53.8347 150.903 53.344 151.127C52.864 151.341 52.3093 151.447 51.68 151.447ZM64.9354 146.583C64.9354 146.861 64.9194 147.154 64.8874 147.463L57.8794 147.463C57.9327 148.327 58.226 149.005 58.7594 149.495C59.3034 149.975 59.9594 150.215 60.7274 150.215C61.3567 150.215 61.8794 150.071 62.2954 149.783C62.722 149.485 63.0207 149.09 63.1914 148.599L64.7594 148.599C64.5247 149.442 64.0554 150.13 63.3514 150.663C62.6474 151.186 61.7727 151.447 60.7274 151.447C59.8954 151.447 59.1487 151.261 58.4874 150.887C57.8367 150.514 57.3247 149.986 56.9514 149.303C56.578 148.61 56.3914 147.81 56.3914 146.903C56.3914 145.997 56.5727 145.202 56.9354 144.519C57.298 143.837 57.8047 143.314 58.4554 142.951C59.1167 142.578 59.874 142.391 60.7274 142.391C61.5594 142.391 62.2954 142.573 62.9354 142.935C63.5754 143.298 64.066 143.799 64.4074 144.439C64.7594 145.069 64.9354 145.783 64.9354 146.583ZM63.4314 146.279C63.4314 145.725 63.3087 145.25 63.0634 144.855C62.818 144.45 62.482 144.146 62.0554 143.943C61.6394 143.73 61.1754 143.623 60.6634 143.623C59.9274 143.623 59.298 143.858 58.7754 144.327C58.2634 144.797 57.97 145.447 57.8954 146.279L63.4314 146.279ZM67.6092 141.111C67.3319 141.111 67.0972 141.015 66.9052 140.823C66.7132 140.631 66.6172 140.397 66.6172 140.119C66.6172 139.842 66.7132 139.607 66.9052 139.415C67.0972 139.223 67.3319 139.127 67.6092 139.127C67.8759 139.127 68.0999 139.223 68.2812 139.415C68.4732 139.607 68.5692 139.842 68.5692 140.119C68.5692 140.397 68.4732 140.631 68.2812 140.823C68.0999 141.015 67.8759 141.111 67.6092 141.111ZM68.3132 142.535L68.3132 151.303L66.8572 151.303L66.8572 142.535L68.3132 142.535ZM72.2507 139.463L72.2507 151.303L70.7947 151.303L70.7947 139.463L72.2507 139.463ZM76.1882 139.463L76.1882 151.303L74.7322 151.303L74.7322 139.463L76.1882 139.463ZM86.6697 146.583C86.6697 146.861 86.6537 147.154 86.6217 147.463L79.6137 147.463C79.6671 148.327 79.9604 149.005 80.4937 149.495C81.0377 149.975 81.6937 150.215 82.4617 150.215C83.0911 150.215 83.6137 150.071 84.0297 149.783C84.4564 149.485 84.7551 149.09 84.9257 148.599L86.4937 148.599C86.2591 149.442 85.7897 150.13 85.0857 150.663C84.3817 151.186 83.5071 151.447 82.4617 151.447C81.6297 151.447 80.8831 151.261 80.2217 150.887C79.5711 150.514 79.0591 149.986 78.6857 149.303C78.3124 148.61 78.1257 147.81 78.1257 146.903C78.1257 145.997 78.3071 145.202 78.6697 144.519C79.0324 143.837 79.5391 143.314 80.1897 142.951C80.8511 142.578 81.6084 142.391 82.4617 142.391C83.2937 142.391 84.0297 142.573 84.6697 142.935C85.3097 143.298 85.8004 143.799 86.1417 144.439C86.4937 145.069 86.6697 145.783 86.6697 146.583ZM85.1657 146.279C85.1657 145.725 85.0431 145.25 84.7977 144.855C84.5524 144.45 84.2164 144.146 83.7897 143.943C83.3737 143.73 82.9097 143.623 82.3977 143.623C81.6617 143.623 81.0324 143.858 80.5097 144.327C79.9977 144.797 79.7044 145.447 79.6297 146.279L85.1657 146.279ZM91.6956 151.447C91.0236 151.447 90.421 151.335 89.8876 151.111C89.3543 150.877 88.933 150.557 88.6236 150.151C88.3143 149.735 88.1436 149.261 88.1116 148.727L89.6156 148.727C89.6583 149.165 89.861 149.522 90.2236 149.799C90.597 150.077 91.0823 150.215 91.6796 150.215C92.2343 150.215 92.6716 150.093 92.9916 149.847C93.3116 149.602 93.4716 149.293 93.4716 148.919C93.4716 148.535 93.301 148.253 92.9596 148.071C92.6183 147.879 92.0903 147.693 91.3756 147.511C90.725 147.341 90.1916 147.17 89.7756 146.999C89.3703 146.818 89.0183 146.557 88.7196 146.215C88.4316 145.863 88.2876 145.405 88.2876 144.839C88.2876 144.391 88.421 143.981 88.6876 143.607C88.9543 143.234 89.333 142.941 89.8236 142.727C90.3143 142.503 90.8743 142.391 91.5036 142.391C92.4743 142.391 93.2583 142.637 93.8556 143.127C94.453 143.618 94.773 144.29 94.8156 145.143L93.3596 145.143C93.3276 144.685 93.141 144.317 92.7996 144.039C92.469 143.762 92.021 143.623 91.4556 143.623C90.933 143.623 90.517 143.735 90.2076 143.959C89.8983 144.183 89.7436 144.477 89.7436 144.839C89.7436 145.127 89.8343 145.367 90.0156 145.559C90.2076 145.741 90.4423 145.89 90.7196 146.007C91.0076 146.114 91.4023 146.237 91.9036 146.375C92.533 146.546 93.045 146.717 93.4396 146.887C93.8343 147.047 94.1703 147.293 94.4476 147.623C94.7356 147.954 94.885 148.386 94.8956 148.919C94.8956 149.399 94.7623 149.831 94.4956 150.215C94.229 150.599 93.8503 150.903 93.3596 151.127C92.8796 151.341 92.325 151.447 91.6956 151.447Z" fill="white"/>
<path d="M25.8445 119.415C25.8445 120.343 25.5245 121.117 24.8845 121.735C24.2552 122.343 23.2898 122.647 21.9885 122.647L19.8445 122.647L19.8445 127.303L18.3885 127.303L18.3885 116.151L21.9885 116.151C23.2472 116.151 24.2018 116.455 24.8525 117.063C25.5138 117.671 25.8445 118.455 25.8445 119.415ZM21.9885 121.447C22.7992 121.447 23.3965 121.271 23.7805 120.919C24.1645 120.567 24.3565 120.066 24.3565 119.415C24.3565 118.039 23.5672 117.351 21.9885 117.351L19.8445 117.351L19.8445 121.447L21.9885 121.447ZM29.1101 115.463L29.1101 127.303L27.6541 127.303L27.6541 115.463L29.1101 115.463ZM39.3676 118.535L39.3676 127.303L37.9116 127.303L37.9116 126.007C37.6343 126.455 37.245 126.807 36.7436 127.063C36.253 127.309 35.709 127.431 35.1116 127.431C34.429 127.431 33.8156 127.293 33.2716 127.015C32.7276 126.727 32.2956 126.301 31.9756 125.735C31.6663 125.17 31.5116 124.482 31.5116 123.671L31.5116 118.535L32.9516 118.535L32.9516 123.479C32.9516 124.343 33.1703 125.01 33.6076 125.479C34.045 125.938 34.6423 126.167 35.3996 126.167C36.1783 126.167 36.7916 125.927 37.2396 125.447C37.6876 124.967 37.9116 124.269 37.9116 123.351L37.9116 118.535L39.3676 118.535ZM44.93 127.447C44.258 127.447 43.6553 127.335 43.122 127.111C42.5887 126.877 42.1673 126.557 41.858 126.151C41.5487 125.735 41.378 125.261 41.346 124.727L42.85 124.727C42.8927 125.165 43.0953 125.522 43.458 125.799C43.8313 126.077 44.3167 126.215 44.914 126.215C45.4687 126.215 45.906 126.093 46.226 125.847C46.546 125.602 46.706 125.293 46.706 124.919C46.706 124.535 46.5353 124.253 46.194 124.071C45.8527 123.879 45.3247 123.693 44.61 123.511C43.9593 123.341 43.426 123.17 43.01 122.999C42.6047 122.818 42.2527 122.557 41.954 122.215C41.666 121.863 41.522 121.405 41.522 120.839C41.522 120.391 41.6553 119.981 41.922 119.607C42.1887 119.234 42.5673 118.941 43.058 118.727C43.5487 118.503 44.1087 118.391 44.738 118.391C45.7087 118.391 46.4927 118.637 47.09 119.127C47.6873 119.618 48.0073 120.29 48.05 121.143L46.594 121.143C46.562 120.685 46.3753 120.317 46.034 120.039C45.7033 119.762 45.2553 119.623 44.69 119.623C44.1673 119.623 43.7513 119.735 43.442 119.959C43.1327 120.183 42.978 120.477 42.978 120.839C42.978 121.127 43.0687 121.367 43.25 121.559C43.442 121.741 43.6767 121.89 43.954 122.007C44.242 122.114 44.6367 122.237 45.138 122.375C45.7673 122.546 46.2793 122.717 46.674 122.887C47.0687 123.047 47.4047 123.293 47.682 123.623C47.97 123.954 48.1193 124.386 48.13 124.919C48.13 125.399 47.9967 125.831 47.73 126.215C47.4633 126.599 47.0847 126.903 46.594 127.127C46.114 127.341 45.5593 127.447 44.93 127.447ZM53.907 122.887C53.907 121.991 54.0883 121.207 54.451 120.535C54.8137 119.853 55.3097 119.325 55.939 118.951C56.579 118.578 57.2937 118.391 58.083 118.391C58.7657 118.391 59.4003 118.551 59.987 118.871C60.5737 119.181 61.0217 119.591 61.331 120.103L61.331 115.463L62.803 115.463L62.803 127.303L61.331 127.303L61.331 125.655C61.043 126.178 60.6163 126.61 60.051 126.951C59.4857 127.282 58.8243 127.447 58.067 127.447C57.2883 127.447 56.579 127.255 55.939 126.871C55.3097 126.487 54.8137 125.949 54.451 125.255C54.0883 124.562 53.907 123.773 53.907 122.887ZM61.331 122.903C61.331 122.242 61.1977 121.666 60.931 121.175C60.6643 120.685 60.3017 120.311 59.843 120.055C59.395 119.789 58.899 119.655 58.355 119.655C57.811 119.655 57.315 119.783 56.867 120.039C56.419 120.295 56.0617 120.669 55.795 121.159C55.5283 121.65 55.395 122.226 55.395 122.887C55.395 123.559 55.5283 124.146 55.795 124.647C56.0617 125.138 56.419 125.517 56.867 125.783C57.315 126.039 57.811 126.167 58.355 126.167C58.899 126.167 59.395 126.039 59.843 125.783C60.3017 125.517 60.6643 125.138 60.931 124.647C61.1977 124.146 61.331 123.565 61.331 122.903ZM73.2635 122.583C73.2635 122.861 73.2475 123.154 73.2155 123.463L66.2075 123.463C66.2608 124.327 66.5542 125.005 67.0875 125.495C67.6315 125.975 68.2875 126.215 69.0555 126.215C69.6848 126.215 70.2075 126.071 70.6235 125.783C71.0502 125.485 71.3488 125.09 71.5195 124.599L73.0875 124.599C72.8528 125.442 72.3835 126.13 71.6795 126.663C70.9755 127.186 70.1008 127.447 69.0555 127.447C68.2235 127.447 67.4768 127.261 66.8155 126.887C66.1648 126.514 65.6528 125.986 65.2795 125.303C64.9062 124.61 64.7195 123.81 64.7195 122.903C64.7195 121.997 64.9008 121.202 65.2635 120.519C65.6262 119.837 66.1328 119.314 66.7835 118.951C67.4448 118.578 68.2022 118.391 69.0555 118.391C69.8875 118.391 70.6235 118.573 71.2635 118.935C71.9035 119.298 72.3942 119.799 72.7355 120.439C73.0875 121.069 73.2635 121.783 73.2635 122.583ZM71.7595 122.279C71.7595 121.725 71.6368 121.25 71.3915 120.855C71.1462 120.45 70.8102 120.146 70.3835 119.943C69.9675 119.73 69.5035 119.623 68.9915 119.623C68.2555 119.623 67.6262 119.858 67.1035 120.327C66.5915 120.797 66.2982 121.447 66.2235 122.279L71.7595 122.279ZM17.8445 146.903C17.8445 145.997 18.0258 145.207 18.3885 144.535C18.7512 143.853 19.2525 143.325 19.8925 142.951C20.5432 142.578 21.2845 142.391 22.1165 142.391C23.1938 142.391 24.0792 142.653 24.7725 143.175C25.4765 143.698 25.9405 144.423 26.1645 145.351L24.5965 145.351C24.4472 144.818 24.1538 144.397 23.7165 144.087C23.2898 143.778 22.7565 143.623 22.1165 143.623C21.2845 143.623 20.6125 143.911 20.1005 144.487C19.5885 145.053 19.3325 145.858 19.3325 146.903C19.3325 147.959 19.5885 148.775 20.1005 149.351C20.6125 149.927 21.2845 150.215 22.1165 150.215C22.7565 150.215 23.2898 150.066 23.7165 149.767C24.1432 149.469 24.4365 149.042 24.5965 148.487L26.1645 148.487C25.9298 149.383 25.4605 150.103 24.7565 150.647C24.0525 151.181 23.1725 151.447 22.1165 151.447C21.2845 151.447 20.5432 151.261 19.8925 150.887C19.2525 150.514 18.7512 149.986 18.3885 149.303C18.0258 148.621 17.8445 147.821 17.8445 146.903ZM31.9312 151.447C31.1099 151.447 30.3632 151.261 29.6912 150.887C29.0299 150.514 28.5072 149.986 28.1232 149.303C27.7499 148.61 27.5632 147.81 27.5632 146.903C27.5632 146.007 27.7552 145.218 28.1392 144.535C28.5339 143.842 29.0672 143.314 29.7392 142.951C30.4112 142.578 31.1632 142.391 31.9952 142.391C32.8272 142.391 33.5792 142.578 34.2512 142.951C34.9232 143.314 35.4512 143.837 35.8352 144.519C36.2299 145.202 36.4272 145.997 36.4272 146.903C36.4272 147.81 36.2246 148.61 35.8192 149.303C35.4246 149.986 34.8859 150.514 34.2032 150.887C33.5206 151.261 32.7632 151.447 31.9312 151.447ZM31.9312 150.167C32.4539 150.167 32.9446 150.045 33.4032 149.799C33.8619 149.554 34.2299 149.186 34.5072 148.695C34.7952 148.205 34.9392 147.607 34.9392 146.903C34.9392 146.199 34.8006 145.602 34.5232 145.111C34.2459 144.621 33.8832 144.258 33.4352 144.023C32.9872 143.778 32.5019 143.655 31.9792 143.655C31.4459 143.655 30.9552 143.778 30.5072 144.023C30.0699 144.258 29.7179 144.621 29.4512 145.111C29.1846 145.602 29.0512 146.199 29.0512 146.903C29.0512 147.618 29.1792 148.221 29.4352 148.711C29.7019 149.202 30.0539 149.57 30.4912 149.815C30.9286 150.05 31.4086 150.167 31.9312 150.167ZM42.6136 142.375C43.6803 142.375 44.5443 142.701 45.2056 143.351C45.867 143.991 46.1976 144.919 46.1976 146.135L46.1976 151.303L44.7576 151.303L44.7576 146.343C44.7576 145.469 44.539 144.802 44.1016 144.343C43.6643 143.874 43.067 143.639 42.3096 143.639C41.5416 143.639 40.9283 143.879 40.4696 144.359C40.0216 144.839 39.7976 145.538 39.7976 146.455L39.7976 151.303L38.3416 151.303L38.3416 142.535L39.7976 142.535L39.7976 143.783C40.0856 143.335 40.475 142.989 40.9656 142.743C41.467 142.498 42.0163 142.375 42.6136 142.375ZM51.68 151.447C51.008 151.447 50.4053 151.335 49.872 151.111C49.3387 150.877 48.9173 150.557 48.608 150.151C48.2987 149.735 48.128 149.261 48.096 148.727L49.6 148.727C49.6427 149.165 49.8453 149.522 50.208 149.799C50.5813 150.077 51.0667 150.215 51.664 150.215C52.2187 150.215 52.656 150.093 52.976 149.847C53.296 149.602 53.456 149.293 53.456 148.919C53.456 148.535 53.2853 148.253 52.944 148.071C52.6027 147.879 52.0747 147.693 51.36 147.511C50.7093 147.341 50.176 147.17 49.76 146.999C49.3547 146.818 49.0027 146.557 48.704 146.215C48.416 145.863 48.272 145.405 48.272 144.839C48.272 144.391 48.4053 143.981 48.672 143.607C48.9387 143.234 49.3173 142.941 49.808 142.727C50.2987 142.503 50.8587 142.391 51.488 142.391C52.4587 142.391 53.2427 142.637 53.84 143.127C54.4373 143.618 54.7573 144.29 54.8 145.143L53.344 145.143C53.312 144.685 53.1253 144.317 52.784 144.039C52.4533 143.762 52.0053 143.623 51.44 143.623C50.9173 143.623 50.5013 143.735 50.192 143.959C49.8827 144.183 49.728 144.477 49.728 144.839C49.728 145.127 49.8187 145.367 50 145.559C50.192 145.741 50.4267 145.89 50.704 146.007C50.992 146.114 51.3867 146.237 51.888 146.375C52.5173 146.546 53.0293 146.717 53.424 146.887C53.8187 147.047 54.1547 147.293 54.432 147.623C54.72 147.954 54.8693 148.386 54.88 148.919C54.88 149.399 54.7467 149.831 54.48 150.215C54.2133 150.599 53.8347 150.903 53.344 151.127C52.864 151.341 52.3093 151.447 51.68 151.447ZM64.9354 146.583C64.9354 146.861 64.9194 147.154 64.8874 147.463L57.8794 147.463C57.9327 148.327 58.226 149.005 58.7594 149.495C59.3034 149.975 59.9594 150.215 60.7274 150.215C61.3567 150.215 61.8794 150.071 62.2954 149.783C62.722 149.485 63.0207 149.09 63.1914 148.599L64.7594 148.599C64.5247 149.442 64.0554 150.13 63.3514 150.663C62.6474 151.186 61.7727 151.447 60.7274 151.447C59.8954 151.447 59.1487 151.261 58.4874 150.887C57.8367 150.514 57.3247 149.986 56.9514 149.303C56.578 148.61 56.3914 147.81 56.3914 146.903C56.3914 145.997 56.5727 145.202 56.9354 144.519C57.298 143.837 57.8047 143.314 58.4554 142.951C59.1167 142.578 59.874 142.391 60.7274 142.391C61.5594 142.391 62.2954 142.573 62.9354 142.935C63.5754 143.298 64.066 143.799 64.4074 144.439C64.7594 145.069 64.9354 145.783 64.9354 146.583ZM63.4314 146.279C63.4314 145.725 63.3087 145.25 63.0634 144.855C62.818 144.45 62.482 144.146 62.0554 143.943C61.6394 143.73 61.1754 143.623 60.6634 143.623C59.9274 143.623 59.298 143.858 58.7754 144.327C58.2634 144.797 57.97 145.447 57.8954 146.279L63.4314 146.279ZM67.6092 141.111C67.3319 141.111 67.0972 141.015 66.9052 140.823C66.7132 140.631 66.6172 140.397 66.6172 140.119C66.6172 139.842 66.7132 139.607 66.9052 139.415C67.0972 139.223 67.3319 139.127 67.6092 139.127C67.8759 139.127 68.0999 139.223 68.2812 139.415C68.4732 139.607 68.5692 139.842 68.5692 140.119C68.5692 140.397 68.4732 140.631 68.2812 140.823C68.0999 141.015 67.8759 141.111 67.6092 141.111ZM68.3132 142.535L68.3132 151.303L66.8572 151.303L66.8572 142.535L68.3132 142.535ZM72.2507 139.463L72.2507 151.303L70.7947 151.303L70.7947 139.463L72.2507 139.463ZM76.1882 139.463L76.1882 151.303L74.7322 151.303L74.7322 139.463L76.1882 139.463ZM86.6697 146.583C86.6697 146.861 86.6537 147.154 86.6217 147.463L79.6137 147.463C79.6671 148.327 79.9604 149.005 80.4937 149.495C81.0377 149.975 81.6937 150.215 82.4617 150.215C83.0911 150.215 83.6137 150.071 84.0297 149.783C84.4564 149.485 84.7551 149.09 84.9257 148.599L86.4937 148.599C86.2591 149.442 85.7897 150.13 85.0857 150.663C84.3817 151.186 83.5071 151.447 82.4617 151.447C81.6297 151.447 80.8831 151.261 80.2217 150.887C79.5711 150.514 79.0591 149.986 78.6857 149.303C78.3124 148.61 78.1257 147.81 78.1257 146.903C78.1257 145.997 78.3071 145.202 78.6697 144.519C79.0324 143.837 79.5391 143.314 80.1897 142.951C80.8511 142.578 81.6084 142.391 82.4617 142.391C83.2937 142.391 84.0297 142.573 84.6697 142.935C85.3097 143.298 85.8004 143.799 86.1417 144.439C86.4937 145.069 86.6697 145.783 86.6697 146.583ZM85.1657 146.279C85.1657 145.725 85.0431 145.25 84.7977 144.855C84.5524 144.45 84.2164 144.146 83.7897 143.943C83.3737 143.73 82.9097 143.623 82.3977 143.623C81.6617 143.623 81.0324 143.858 80.5097 144.327C79.9977 144.797 79.7044 145.447 79.6297 146.279L85.1657 146.279ZM91.6956 151.447C91.0236 151.447 90.421 151.335 89.8876 151.111C89.3543 150.877 88.933 150.557 88.6236 150.151C88.3143 149.735 88.1436 149.261 88.1116 148.727L89.6156 148.727C89.6583 149.165 89.861 149.522 90.2236 149.799C90.597 150.077 91.0823 150.215 91.6796 150.215C92.2343 150.215 92.6716 150.093 92.9916 149.847C93.3116 149.602 93.4716 149.293 93.4716 148.919C93.4716 148.535 93.301 148.253 92.9596 148.071C92.6183 147.879 92.0903 147.693 91.3756 147.511C90.725 147.341 90.1916 147.17 89.7756 146.999C89.3703 146.818 89.0183 146.557 88.7196 146.215C88.4316 145.863 88.2876 145.405 88.2876 144.839C88.2876 144.391 88.421 143.981 88.6876 143.607C88.9543 143.234 89.333 142.941 89.8236 142.727C90.3143 142.503 90.8743 142.391 91.5036 142.391C92.4743 142.391 93.2583 142.637 93.8556 143.127C94.453 143.618 94.773 144.29 94.8156 145.143L93.3596 145.143C93.3276 144.685 93.141 144.317 92.7996 144.039C92.469 143.762 92.021 143.623 91.4556 143.623C90.933 143.623 90.517 143.735 90.2076 143.959C89.8983 144.183 89.7436 144.477 89.7436 144.839C89.7436 145.127 89.8343 145.367 90.0156 145.559C90.2076 145.741 90.4423 145.89 90.7196 146.007C91.0076 146.114 91.4023 146.237 91.9036 146.375C92.533 146.546 93.045 146.717 93.4396 146.887C93.8343 147.047 94.1703 147.293 94.4476 147.623C94.7356 147.954 94.885 148.386 94.8956 148.919C94.8956 149.399 94.7623 149.831 94.4956 150.215C94.229 150.599 93.8503 150.903 93.3596 151.127C92.8796 151.341 92.325 151.447 91.6956 151.447Z" fill="white"/>
<path d="M25.8445 119.415C25.8445 120.343 25.5245 121.117 24.8845 121.735C24.2552 122.343 23.2898 122.647 21.9885 122.647L19.8445 122.647L19.8445 127.303L18.3885 127.303L18.3885 116.151L21.9885 116.151C23.2472 116.151 24.2018 116.455 24.8525 117.063C25.5138 117.671 25.8445 118.455 25.8445 119.415ZM21.9885 121.447C22.7992 121.447 23.3965 121.271 23.7805 120.919C24.1645 120.567 24.3565 120.066 24.3565 119.415C24.3565 118.039 23.5672 117.351 21.9885 117.351L19.8445 117.351L19.8445 121.447L21.9885 121.447ZM29.1101 115.463L29.1101 127.303L27.6541 127.303L27.6541 115.463L29.1101 115.463ZM39.3676 118.535L39.3676 127.303L37.9116 127.303L37.9116 126.007C37.6343 126.455 37.245 126.807 36.7436 127.063C36.253 127.309 35.709 127.431 35.1116 127.431C34.429 127.431 33.8156 127.293 33.2716 127.015C32.7276 126.727 32.2956 126.301 31.9756 125.735C31.6663 125.17 31.5116 124.482 31.5116 123.671L31.5116 118.535L32.9516 118.535L32.9516 123.479C32.9516 124.343 33.1703 125.01 33.6076 125.479C34.045 125.938 34.6423 126.167 35.3996 126.167C36.1783 126.167 36.7916 125.927 37.2396 125.447C37.6876 124.967 37.9116 124.269 37.9116 123.351L37.9116 118.535L39.3676 118.535ZM44.93 127.447C44.258 127.447 43.6553 127.335 43.122 127.111C42.5887 126.877 42.1673 126.557 41.858 126.151C41.5487 125.735 41.378 125.261 41.346 124.727L42.85 124.727C42.8927 125.165 43.0953 125.522 43.458 125.799C43.8313 126.077 44.3167 126.215 44.914 126.215C45.4687 126.215 45.906 126.093 46.226 125.847C46.546 125.602 46.706 125.293 46.706 124.919C46.706 124.535 46.5353 124.253 46.194 124.071C45.8527 123.879 45.3247 123.693 44.61 123.511C43.9593 123.341 43.426 123.17 43.01 122.999C42.6047 122.818 42.2527 122.557 41.954 122.215C41.666 121.863 41.522 121.405 41.522 120.839C41.522 120.391 41.6553 119.981 41.922 119.607C42.1887 119.234 42.5673 118.941 43.058 118.727C43.5487 118.503 44.1087 118.391 44.738 118.391C45.7087 118.391 46.4927 118.637 47.09 119.127C47.6873 119.618 48.0073 120.29 48.05 121.143L46.594 121.143C46.562 120.685 46.3753 120.317 46.034 120.039C45.7033 119.762 45.2553 119.623 44.69 119.623C44.1673 119.623 43.7513 119.735 43.442 119.959C43.1327 120.183 42.978 120.477 42.978 120.839C42.978 121.127 43.0687 121.367 43.25 121.559C43.442 121.741 43.6767 121.89 43.954 122.007C44.242 122.114 44.6367 122.237 45.138 122.375C45.7673 122.546 46.2793 122.717 46.674 122.887C47.0687 123.047 47.4047 123.293 47.682 123.623C47.97 123.954 48.1193 124.386 48.13 124.919C48.13 125.399 47.9967 125.831 47.73 126.215C47.4633 126.599 47.0847 126.903 46.594 127.127C46.114 127.341 45.5593 127.447 44.93 127.447ZM53.907 122.887C53.907 121.991 54.0883 121.207 54.451 120.535C54.8137 119.853 55.3097 119.325 55.939 118.951C56.579 118.578 57.2937 118.391 58.083 118.391C58.7657 118.391 59.4003 118.551 59.987 118.871C60.5737 119.181 61.0217 119.591 61.331 120.103L61.331 115.463L62.803 115.463L62.803 127.303L61.331 127.303L61.331 125.655C61.043 126.178 60.6163 126.61 60.051 126.951C59.4857 127.282 58.8243 127.447 58.067 127.447C57.2883 127.447 56.579 127.255 55.939 126.871C55.3097 126.487 54.8137 125.949 54.451 125.255C54.0883 124.562 53.907 123.773 53.907 122.887ZM61.331 122.903C61.331 122.242 61.1977 121.666 60.931 121.175C60.6643 120.685 60.3017 120.311 59.843 120.055C59.395 119.789 58.899 119.655 58.355 119.655C57.811 119.655 57.315 119.783 56.867 120.039C56.419 120.295 56.0617 120.669 55.795 121.159C55.5283 121.65 55.395 122.226 55.395 122.887C55.395 123.559 55.5283 124.146 55.795 124.647C56.0617 125.138 56.419 125.517 56.867 125.783C57.315 126.039 57.811 126.167 58.355 126.167C58.899 126.167 59.395 126.039 59.843 125.783C60.3017 125.517 60.6643 125.138 60.931 124.647C61.1977 124.146 61.331 123.565 61.331 122.903ZM73.2635 122.583C73.2635 122.861 73.2475 123.154 73.2155 123.463L66.2075 123.463C66.2608 124.327 66.5542 125.005 67.0875 125.495C67.6315 125.975 68.2875 126.215 69.0555 126.215C69.6848 126.215 70.2075 126.071 70.6235 125.783C71.0502 125.485 71.3488 125.09 71.5195 124.599L73.0875 124.599C72.8528 125.442 72.3835 126.13 71.6795 126.663C70.9755 127.186 70.1008 127.447 69.0555 127.447C68.2235 127.447 67.4768 127.261 66.8155 126.887C66.1648 126.514 65.6528 125.986 65.2795 125.303C64.9062 124.61 64.7195 123.81 64.7195 122.903C64.7195 121.997 64.9008 121.202 65.2635 120.519C65.6262 119.837 66.1328 119.314 66.7835 118.951C67.4448 118.578 68.2022 118.391 69.0555 118.391C69.8875 118.391 70.6235 118.573 71.2635 118.935C71.9035 119.298 72.3942 119.799 72.7355 120.439C73.0875 121.069 73.2635 121.783 73.2635 122.583ZM71.7595 122.279C71.7595 121.725 71.6368 121.25 71.3915 120.855C71.1462 120.45 70.8102 120.146 70.3835 119.943C69.9675 119.73 69.5035 119.623 68.9915 119.623C68.2555 119.623 67.6262 119.858 67.1035 120.327C66.5915 120.797 66.2982 121.447 66.2235 122.279L71.7595 122.279ZM17.8445 146.903C17.8445 145.997 18.0258 145.207 18.3885 144.535C18.7512 143.853 19.2525 143.325 19.8925 142.951C20.5432 142.578 21.2845 142.391 22.1165 142.391C23.1938 142.391 24.0792 142.653 24.7725 143.175C25.4765 143.698 25.9405 144.423 26.1645 145.351L24.5965 145.351C24.4472 144.818 24.1538 144.397 23.7165 144.087C23.2898 143.778 22.7565 143.623 22.1165 143.623C21.2845 143.623 20.6125 143.911 20.1005 144.487C19.5885 145.053 19.3325 145.858 19.3325 146.903C19.3325 147.959 19.5885 148.775 20.1005 149.351C20.6125 149.927 21.2845 150.215 22.1165 150.215C22.7565 150.215 23.2898 150.066 23.7165 149.767C24.1432 149.469 24.4365 149.042 24.5965 148.487L26.1645 148.487C25.9298 149.383 25.4605 150.103 24.7565 150.647C24.0525 151.181 23.1725 151.447 22.1165 151.447C21.2845 151.447 20.5432 151.261 19.8925 150.887C19.2525 150.514 18.7512 149.986 18.3885 149.303C18.0258 148.621 17.8445 147.821 17.8445 146.903ZM31.9312 151.447C31.1099 151.447 30.3632 151.261 29.6912 150.887C29.0299 150.514 28.5072 149.986 28.1232 149.303C27.7499 148.61 27.5632 147.81 27.5632 146.903C27.5632 146.007 27.7552 145.218 28.1392 144.535C28.5339 143.842 29.0672 143.314 29.7392 142.951C30.4112 142.578 31.1632 142.391 31.9952 142.391C32.8272 142.391 33.5792 142.578 34.2512 142.951C34.9232 143.314 35.4512 143.837 35.8352 144.519C36.2299 145.202 36.4272 145.997 36.4272 146.903C36.4272 147.81 36.2246 148.61 35.8192 149.303C35.4246 149.986 34.8859 150.514 34.2032 150.887C33.5206 151.261 32.7632 151.447 31.9312 151.447ZM31.9312 150.167C32.4539 150.167 32.9446 150.045 33.4032 149.799C33.8619 149.554 34.2299 149.186 34.5072 148.695C34.7952 148.205 34.9392 147.607 34.9392 146.903C34.9392 146.199 34.8006 145.602 34.5232 145.111C34.2459 144.621 33.8832 144.258 33.4352 144.023C32.9872 143.778 32.5019 143.655 31.9792 143.655C31.4459 143.655 30.9552 143.778 30.5072 144.023C30.0699 144.258 29.7179 144.621 29.4512 145.111C29.1846 145.602 29.0512 146.199 29.0512 146.903C29.0512 147.618 29.1792 148.221 29.4352 148.711C29.7019 149.202 30.0539 149.57 30.4912 149.815C30.9286 150.05 31.4086 150.167 31.9312 150.167ZM42.6136 142.375C43.6803 142.375 44.5443 142.701 45.2056 143.351C45.867 143.991 46.1976 144.919 46.1976 146.135L46.1976 151.303L44.7576 151.303L44.7576 146.343C44.7576 145.469 44.539 144.802 44.1016 144.343C43.6643 143.874 43.067 143.639 42.3096 143.639C41.5416 143.639 40.9283 143.879 40.4696 144.359C40.0216 144.839 39.7976 145.538 39.7976 146.455L39.7976 151.303L38.3416 151.303L38.3416 142.535L39.7976 142.535L39.7976 143.783C40.0856 143.335 40.475 142.989 40.9656 142.743C41.467 142.498 42.0163 142.375 42.6136 142.375ZM51.68 151.447C51.008 151.447 50.4053 151.335 49.872 151.111C49.3387 150.877 48.9173 150.557 48.608 150.151C48.2987 149.735 48.128 149.261 48.096 148.727L49.6 148.727C49.6427 149.165 49.8453 149.522 50.208 149.799C50.5813 150.077 51.0667 150.215 51.664 150.215C52.2187 150.215 52.656 150.093 52.976 149.847C53.296 149.602 53.456 149.293 53.456 148.919C53.456 148.535 53.2853 148.253 52.944 148.071C52.6027 147.879 52.0747 147.693 51.36 147.511C50.7093 147.341 50.176 147.17 49.76 146.999C49.3547 146.818 49.0027 146.557 48.704 146.215C48.416 145.863 48.272 145.405 48.272 144.839C48.272 144.391 48.4053 143.981 48.672 143.607C48.9387 143.234 49.3173 142.941 49.808 142.727C50.2987 142.503 50.8587 142.391 51.488 142.391C52.4587 142.391 53.2427 142.637 53.84 143.127C54.4373 143.618 54.7573 144.29 54.8 145.143L53.344 145.143C53.312 144.685 53.1253 144.317 52.784 144.039C52.4533 143.762 52.0053 143.623 51.44 143.623C50.9173 143.623 50.5013 143.735 50.192 143.959C49.8827 144.183 49.728 144.477 49.728 144.839C49.728 145.127 49.8187 145.367 50 145.559C50.192 145.741 50.4267 145.89 50.704 146.007C50.992 146.114 51.3867 146.237 51.888 146.375C52.5173 146.546 53.0293 146.717 53.424 146.887C53.8187 147.047 54.1547 147.293 54.432 147.623C54.72 147.954 54.8693 148.386 54.88 148.919C54.88 149.399 54.7467 149.831 54.48 150.215C54.2133 150.599 53.8347 150.903 53.344 151.127C52.864 151.341 52.3093 151.447 51.68 151.447ZM64.9354 146.583C64.9354 146.861 64.9194 147.154 64.8874 147.463L57.8794 147.463C57.9327 148.327 58.226 149.005 58.7594 149.495C59.3034 149.975 59.9594 150.215 60.7274 150.215C61.3567 150.215 61.8794 150.071 62.2954 149.783C62.722 149.485 63.0207 149.09 63.1914 148.599L64.7594 148.599C64.5247 149.442 64.0554 150.13 63.3514 150.663C62.6474 151.186 61.7727 151.447 60.7274 151.447C59.8954 151.447 59.1487 151.261 58.4874 150.887C57.8367 150.514 57.3247 149.986 56.9514 149.303C56.578 148.61 56.3914 147.81 56.3914 146.903C56.3914 145.997 56.5727 145.202 56.9354 144.519C57.298 143.837 57.8047 143.314 58.4554 142.951C59.1167 142.578 59.874 142.391 60.7274 142.391C61.5594 142.391 62.2954 142.573 62.9354 142.935C63.5754 143.298 64.066 143.799 64.4074 144.439C64.7594 145.069 64.9354 145.783 64.9354 146.583ZM63.4314 146.279C63.4314 145.725 63.3087 145.25 63.0634 144.855C62.818 144.45 62.482 144.146 62.0554 143.943C61.6394 143.73 61.1754 143.623 60.6634 143.623C59.9274 143.623 59.298 143.858 58.7754 144.327C58.2634 144.797 57.97 145.447 57.8954 146.279L63.4314 146.279ZM67.6092 141.111C67.3319 141.111 67.0972 141.015 66.9052 140.823C66.7132 140.631 66.6172 140.397 66.6172 140.119C66.6172 139.842 66.7132 139.607 66.9052 139.415C67.0972 139.223 67.3319 139.127 67.6092 139.127C67.8759 139.127 68.0999 139.223 68.2812 139.415C68.4732 139.607 68.5692 139.842 68.5692 140.119C68.5692 140.397 68.4732 140.631 68.2812 140.823C68.0999 141.015 67.8759 141.111 67.6092 141.111ZM68.3132 142.535L68.3132 151.303L66.8572 151.303L66.8572 142.535L68.3132 142.535ZM72.2507 139.463L72.2507 151.303L70.7947 151.303L70.7947 139.463L72.2507 139.463ZM76.1882 139.463L76.1882 151.303L74.7322 151.303L74.7322 139.463L76.1882 139.463ZM86.6697 146.583C86.6697 146.861 86.6537 147.154 86.6217 147.463L79.6137 147.463C79.6671 148.327 79.9604 149.005 80.4937 149.495C81.0377 149.975 81.6937 150.215 82.4617 150.215C83.0911 150.215 83.6137 150.071 84.0297 149.783C84.4564 149.485 84.7551 149.09 84.9257 148.599L86.4937 148.599C86.2591 149.442 85.7897 150.13 85.0857 150.663C84.3817 151.186 83.5071 151.447 82.4617 151.447C81.6297 151.447 80.8831 151.261 80.2217 150.887C79.5711 150.514 79.0591 149.986 78.6857 149.303C78.3124 148.61 78.1257 147.81 78.1257 146.903C78.1257 145.997 78.3071 145.202 78.6697 144.519C79.0324 143.837 79.5391 143.314 80.1897 142.951C80.8511 142.578 81.6084 142.391 82.4617 142.391C83.2937 142.391 84.0297 142.573 84.6697 142.935C85.3097 143.298 85.8004 143.799 86.1417 144.439C86.4937 145.069 86.6697 145.783 86.6697 146.583ZM85.1657 146.279C85.1657 145.725 85.0431 145.25 84.7977 144.855C84.5524 144.45 84.2164 144.146 83.7897 143.943C83.3737 143.73 82.9097 143.623 82.3977 143.623C81.6617 143.623 81.0324 143.858 80.5097 144.327C79.9977 144.797 79.7044 145.447 79.6297 146.279L85.1657 146.279ZM91.6956 151.447C91.0236 151.447 90.421 151.335 89.8876 151.111C89.3543 150.877 88.933 150.557 88.6236 150.151C88.3143 149.735 88.1436 149.261 88.1116 148.727L89.6156 148.727C89.6583 149.165 89.861 149.522 90.2236 149.799C90.597 150.077 91.0823 150.215 91.6796 150.215C92.2343 150.215 92.6716 150.093 92.9916 149.847C93.3116 149.602 93.4716 149.293 93.4716 148.919C93.4716 148.535 93.301 148.253 92.9596 148.071C92.6183 147.879 92.0903 147.693 91.3756 147.511C90.725 147.341 90.1916 147.17 89.7756 146.999C89.3703 146.818 89.0183 146.557 88.7196 146.215C88.4316 145.863 88.2876 145.405 88.2876 144.839C88.2876 144.391 88.421 143.981 88.6876 143.607C88.9543 143.234 89.333 142.941 89.8236 142.727C90.3143 142.503 90.8743 142.391 91.5036 142.391C92.4743 142.391 93.2583 142.637 93.8556 143.127C94.453 143.618 94.773 144.29 94.8156 145.143L93.3596 145.143C93.3276 144.685 93.141 144.317 92.7996 144.039C92.469 143.762 92.021 143.623 91.4556 143.623C90.933 143.623 90.517 143.735 90.2076 143.959C89.8983 144.183 89.7436 144.477 89.7436 144.839C89.7436 145.127 89.8343 145.367 90.0156 145.559C90.2076 145.741 90.4423 145.89 90.7196 146.007C91.0076 146.114 91.4023 146.237 91.9036 146.375C92.533 146.546 93.045 146.717 93.4396 146.887C93.8343 147.047 94.1703 147.293 94.4476 147.623C94.7356 147.954 94.885 148.386 94.8956 148.919C94.8956 149.399 94.7623 149.831 94.4956 150.215C94.229 150.599 93.8503 150.903 93.3596 151.127C92.8796 151.341 92.325 151.447 91.6956 151.447Z" fill="#024F2D"/>
<ellipse cx="33.8197" cy="181.883" rx="16.6649" ry="17.0816" fill="white"/>
<path d="M38.9754 187.185L43.0718 181.883L38.9754 176.582L38.6075 177.026L38.3234 177.373L41.5811 181.324L24.6841 181.324C24.5618 181.324 24.2233 181.324 24.2233 181.324C24.2232 181.372 24.2231 182.294 24.2231 182.443C24.2231 182.443 24.5618 182.443 24.6841 182.443L41.5811 182.443L38.3234 186.394L38.6076 186.741L38.9754 187.185Z" fill="#024F2D" stroke="#024F2D" stroke-width="1.5"/>
</g>
</svg>
