<svg width="52" height="43" viewBox="0 0 52 43" fill="none" xmlns="http://www.w3.org/2000/svg">
<rect width="52" height="43" rx="21.5" fill="#FFD7D2"/>
<path fill-rule="evenodd" clip-rule="evenodd" d="M25.5 12.875C27.7875 12.875 29.9813 13.7837 31.5988 15.4012C33.2163 17.0187 34.125 19.2125 34.125 21.5C34.125 23.7875 33.2163 25.9813 31.5988 27.5988C29.9813 29.2163 27.7875 30.125 25.5 30.125H21.1875C19.8478 30.125 19.1779 30.125 18.6498 29.9065C18.3009 29.762 17.9839 29.5502 17.7168 29.2832C17.4498 29.0161 17.238 28.6991 17.0935 28.3502C16.875 27.8221 16.875 27.1522 16.875 25.8125V21.5C16.875 19.2125 17.7837 17.0187 19.4012 15.4012C21.0187 13.7837 23.2125 12.875 25.5 12.875ZM29.3333 20.5417C29.3333 20.2875 29.2324 20.0437 29.0526 19.864C28.8729 19.6843 28.6292 19.5833 28.375 19.5833H22.625C22.3708 19.5833 22.1271 19.6843 21.9474 19.864C21.7676 20.0437 21.6667 20.2875 21.6667 20.5417C21.6667 20.7958 21.7676 21.0396 21.9474 21.2193C22.1271 21.399 22.3708 21.5 22.625 21.5H28.375C28.6292 21.5 28.8729 21.399 29.0526 21.2193C29.2324 21.0396 29.3333 20.7958 29.3333 20.5417ZM26.4583 24.375C26.4583 24.1208 26.3574 23.8771 26.1776 23.6974C25.9979 23.5176 25.7542 23.4167 25.5 23.4167H22.625C22.3708 23.4167 22.1271 23.5176 21.9474 23.6974C21.7676 23.8771 21.6667 24.1208 21.6667 24.375C21.6667 24.6292 21.7676 24.8729 21.9474 25.0526C22.1271 25.2324 22.3708 25.3333 22.625 25.3333H25.5C25.7542 25.3333 25.9979 25.2324 26.1776 25.0526C26.3574 24.8729 26.4583 24.6292 26.4583 24.375Z" fill="#FF6A59"/>
</svg>
