<svg width="158" height="225" viewBox="0 0 158 225" fill="none" xmlns="http://www.w3.org/2000/svg">
<rect x="2" width="155.851" height="221.789" rx="20" fill="#F3EBD4"/>
<mask id="mask0_3_19" style="mask-type:alpha" maskUnits="userSpaceOnUse" x="2" y="5" width="130" height="185">
<rect x="2" y="5" width="130" height="185" rx="20" fill="#F3EBD4"/>
</mask>
<g mask="url(#mask0_3_19)">
<path d="M138.543 -16.9895L130.017 -9.44166L113.901 7.58753L86.525 28.7375L70.3238 43.3891L63.7236 50.9591L61.8503 56.2032L62.2595 64.9874L64.4738 74.2998L61.1385 83.4943L53.3649 94.2213L45.9984 99.5726L35.6417 103.476L28.6768 103.453L20.9108 99.0572L16.4551 92.4371L13.7548 81.081L16.1908 71.1401L22.6104 59.7747L30.1644 53.1798L39.0368 50.1098L47.9406 49.1915L55.1572 47.237L61.4423 42.3814L86.7021 13.3361L104.191 -4.98283L112.465 -12.5899L124.17 -27.9708L134.699 -37.1967L138.787 -38.1688L144.76 -35.2676L146.164 -29.3623L138.543 -16.9895Z" fill="#35CB6A"/>
</g>
<path d="M21.688 127.416C21.688 126.328 21.9333 125.352 22.424 124.488C22.9147 123.613 23.5813 122.931 24.424 122.44C25.2773 121.949 26.2213 121.704 27.256 121.704C28.472 121.704 29.5333 121.997 30.44 122.584C31.3467 123.171 32.008 124.003 32.424 125.08L30.68 125.08C30.3707 124.408 29.9227 123.891 29.336 123.528C28.76 123.165 28.0667 122.984 27.256 122.984C26.4773 122.984 25.7787 123.165 25.16 123.528C24.5413 123.891 24.056 124.408 23.704 125.08C23.352 125.741 23.176 126.52 23.176 127.416C23.176 128.301 23.352 129.08 23.704 129.752C24.056 130.413 24.5413 130.925 25.16 131.288C25.7787 131.651 26.4773 131.832 27.256 131.832C28.0667 131.832 28.76 131.656 29.336 131.304C29.9227 130.941 30.3707 130.424 30.68 129.752L32.424 129.752C32.008 130.819 31.3467 131.645 30.44 132.232C29.5333 132.808 28.472 133.096 27.256 133.096C26.2213 133.096 25.2773 132.856 24.424 132.376C23.5813 131.885 22.9147 131.208 22.424 130.344C21.9333 129.48 21.688 128.504 21.688 127.416ZM42.3674 124.232L42.3674 133L40.9114 133L40.9114 131.704C40.634 132.152 40.2447 132.504 39.7434 132.76C39.2527 133.005 38.7087 133.128 38.1114 133.128C37.4287 133.128 36.8154 132.989 36.2714 132.712C35.7274 132.424 35.2954 131.997 34.9754 131.432C34.666 130.867 34.5114 130.179 34.5114 129.368L34.5114 124.232L35.9514 124.232L35.9514 129.176C35.9514 130.04 36.17 130.707 36.6074 131.176C37.0447 131.635 37.642 131.864 38.3994 131.864C39.178 131.864 39.7914 131.624 40.2394 131.144C40.6874 130.664 40.9114 129.965 40.9114 129.048L40.9114 124.232L42.3674 124.232ZM45.5778 122.808C45.3004 122.808 45.0658 122.712 44.8738 122.52C44.6818 122.328 44.5858 122.093 44.5858 121.816C44.5858 121.539 44.6818 121.304 44.8738 121.112C45.0658 120.92 45.3004 120.824 45.5778 120.824C45.8444 120.824 46.0684 120.92 46.2498 121.112C46.4418 121.304 46.5378 121.539 46.5378 121.816C46.5378 122.093 46.4418 122.328 46.2498 122.52C46.0684 122.712 45.8444 122.808 45.5778 122.808ZM46.2818 124.232L46.2818 133L44.8258 133L44.8258 124.232L46.2818 124.232ZM51.8673 133.144C51.1953 133.144 50.5926 133.032 50.0593 132.808C49.5259 132.573 49.1046 132.253 48.7953 131.848C48.4859 131.432 48.3153 130.957 48.2833 130.424L49.7873 130.424C49.8299 130.861 50.0326 131.219 50.3953 131.496C50.7686 131.773 51.2539 131.912 51.8513 131.912C52.4059 131.912 52.8433 131.789 53.1633 131.544C53.4833 131.299 53.6433 130.989 53.6433 130.616C53.6433 130.232 53.4726 129.949 53.1313 129.768C52.7899 129.576 52.2619 129.389 51.5473 129.208C50.8966 129.037 50.3633 128.867 49.9473 128.696C49.5419 128.515 49.1899 128.253 48.8913 127.912C48.6033 127.56 48.4593 127.101 48.4593 126.536C48.4593 126.088 48.5926 125.677 48.8593 125.304C49.1259 124.931 49.5046 124.637 49.9953 124.424C50.4859 124.2 51.0459 124.088 51.6753 124.088C52.6459 124.088 53.4299 124.333 54.0273 124.824C54.6246 125.315 54.9446 125.987 54.9873 126.84L53.5313 126.84C53.4993 126.381 53.3126 126.013 52.9713 125.736C52.6406 125.459 52.1926 125.32 51.6273 125.32C51.1046 125.32 50.6886 125.432 50.3793 125.656C50.0699 125.88 49.9153 126.173 49.9153 126.536C49.9153 126.824 50.0059 127.064 50.1873 127.256C50.3793 127.437 50.6139 127.587 50.8913 127.704C51.1793 127.811 51.5739 127.933 52.0753 128.072C52.7046 128.243 53.2166 128.413 53.6113 128.584C54.0059 128.744 54.3419 128.989 54.6193 129.32C54.9073 129.651 55.0566 130.083 55.0673 130.616C55.0673 131.096 54.9339 131.528 54.6673 131.912C54.4006 132.296 54.0219 132.6 53.5313 132.824C53.0513 133.037 52.4966 133.144 51.8673 133.144ZM57.8746 122.808C57.5973 122.808 57.3626 122.712 57.1706 122.52C56.9786 122.328 56.8826 122.093 56.8826 121.816C56.8826 121.539 56.9786 121.304 57.1706 121.112C57.3626 120.92 57.5973 120.824 57.8746 120.824C58.1413 120.824 58.3653 120.92 58.5466 121.112C58.7386 121.304 58.8346 121.539 58.8346 121.816C58.8346 122.093 58.7386 122.328 58.5466 122.52C58.3653 122.712 58.1413 122.808 57.8746 122.808ZM58.5786 124.232L58.5786 133L57.1226 133L57.1226 124.232L58.5786 124.232ZM65.3321 124.072C66.3988 124.072 67.2628 124.397 67.9241 125.048C68.5855 125.688 68.9161 126.616 68.9161 127.832L68.9161 133L67.4761 133L67.4761 128.04C67.4761 127.165 67.2575 126.499 66.8201 126.04C66.3828 125.571 65.7855 125.336 65.0281 125.336C64.2601 125.336 63.6468 125.576 63.1881 126.056C62.7401 126.536 62.5161 127.235 62.5161 128.152L62.5161 133L61.0601 133L61.0601 124.232L62.5161 124.232L62.5161 125.48C62.8041 125.032 63.1935 124.685 63.6841 124.44C64.1855 124.195 64.7348 124.072 65.3321 124.072ZM79.2945 128.28C79.2945 128.557 79.2785 128.851 79.2465 129.16L72.2385 129.16C72.2918 130.024 72.5852 130.701 73.1185 131.192C73.6625 131.672 74.3185 131.912 75.0865 131.912C75.7158 131.912 76.2385 131.768 76.6545 131.48C77.0812 131.181 77.3798 130.787 77.5505 130.296L79.1185 130.296C78.8838 131.139 78.4145 131.827 77.7105 132.36C77.0065 132.883 76.1318 133.144 75.0865 133.144C74.2545 133.144 73.5078 132.957 72.8465 132.584C72.1958 132.211 71.6838 131.683 71.3105 131C70.9372 130.307 70.7505 129.507 70.7505 128.6C70.7505 127.693 70.9318 126.899 71.2945 126.216C71.6572 125.533 72.1638 125.011 72.8145 124.648C73.4758 124.275 74.2332 124.088 75.0865 124.088C75.9185 124.088 76.6545 124.269 77.2945 124.632C77.9345 124.995 78.4252 125.496 78.7665 126.136C79.1185 126.765 79.2945 127.48 79.2945 128.28ZM77.7905 127.976C77.7905 127.421 77.6678 126.947 77.4225 126.552C77.1772 126.147 76.8412 125.843 76.4145 125.64C75.9985 125.427 75.5345 125.32 75.0225 125.32C74.2865 125.32 73.6572 125.555 73.1345 126.024C72.6225 126.493 72.3292 127.144 72.2545 127.976L77.7905 127.976ZM82.6724 125.656C82.9284 125.155 83.291 124.765 83.7604 124.488C84.2404 124.211 84.8217 124.072 85.5044 124.072L85.5044 125.576L85.1204 125.576C83.4884 125.576 82.6724 126.461 82.6724 128.232L82.6724 133L81.2164 133L81.2164 124.232L82.6724 124.232L82.6724 125.656ZM99.2268 124.232L99.2268 133L97.7708 133L97.7708 131.704C97.4934 132.152 97.1041 132.504 96.6028 132.76C96.1121 133.005 95.5681 133.128 94.9708 133.128C94.2881 133.128 93.6748 132.989 93.1308 132.712C92.5868 132.424 92.1548 131.997 91.8348 131.432C91.5254 130.867 91.3708 130.179 91.3708 129.368L91.3708 124.232L92.8108 124.232L92.8108 129.176C92.8108 130.04 93.0294 130.707 93.4668 131.176C93.9041 131.635 94.5014 131.864 95.2588 131.864C96.0374 131.864 96.6508 131.624 97.0988 131.144C97.5468 130.664 97.7708 129.965 97.7708 129.048L97.7708 124.232L99.2268 124.232ZM105.957 124.072C107.024 124.072 107.888 124.397 108.549 125.048C109.21 125.688 109.541 126.616 109.541 127.832L109.541 133L108.101 133L108.101 128.04C108.101 127.165 107.882 126.499 107.445 126.04C107.008 125.571 106.41 125.336 105.653 125.336C104.885 125.336 104.272 125.576 103.813 126.056C103.365 126.536 103.141 127.235 103.141 128.152L103.141 133L101.685 133L101.685 124.232L103.141 124.232L103.141 125.48C103.429 125.032 103.818 124.685 104.309 124.44C104.81 124.195 105.36 124.072 105.957 124.072ZM23.688 149.656C23.944 149.155 24.3067 148.765 24.776 148.488C25.256 148.211 25.8373 148.072 26.52 148.072L26.52 149.576L26.136 149.576C24.504 149.576 23.688 150.461 23.688 152.232L23.688 157L22.232 157L22.232 148.232L23.688 148.232L23.688 149.656ZM36.2008 152.28C36.2008 152.557 36.1848 152.851 36.1528 153.16L29.1448 153.16C29.1981 154.024 29.4914 154.701 30.0248 155.192C30.5688 155.672 31.2248 155.912 31.9928 155.912C32.6221 155.912 33.1448 155.768 33.5608 155.48C33.9874 155.181 34.2861 154.787 34.4568 154.296L36.0248 154.296C35.7901 155.139 35.3208 155.827 34.6168 156.36C33.9128 156.883 33.0381 157.144 31.9928 157.144C31.1608 157.144 30.4141 156.957 29.7528 156.584C29.1021 156.211 28.5901 155.683 28.2168 155C27.8434 154.307 27.6568 153.507 27.6568 152.6C27.6568 151.693 27.8381 150.899 28.2008 150.216C28.5634 149.533 29.0701 149.011 29.7208 148.648C30.3821 148.275 31.1394 148.088 31.9928 148.088C32.8248 148.088 33.5608 148.269 34.2008 148.632C34.8408 148.995 35.3314 149.496 35.6728 150.136C36.0248 150.765 36.2008 151.48 36.2008 152.28ZM34.6968 151.976C34.6968 151.421 34.5741 150.947 34.3288 150.552C34.0834 150.147 33.7474 149.843 33.3208 149.64C32.9048 149.427 32.4408 149.32 31.9288 149.32C31.1928 149.32 30.5634 149.555 30.0408 150.024C29.5288 150.493 29.2354 151.144 29.1608 151.976L34.6968 151.976ZM39.5786 149.848C39.8666 149.347 40.2933 148.931 40.8586 148.6C41.4346 148.259 42.1013 148.088 42.8586 148.088C43.6373 148.088 44.3413 148.275 44.9706 148.648C45.6106 149.021 46.112 149.549 46.4746 150.232C46.8373 150.904 47.0186 151.688 47.0186 152.584C47.0186 153.469 46.8373 154.259 46.4746 154.952C46.112 155.645 45.6106 156.184 44.9706 156.568C44.3413 156.952 43.6373 157.144 42.8586 157.144C42.112 157.144 41.4506 156.979 40.8746 156.648C40.3093 156.307 39.8773 155.885 39.5786 155.384L39.5786 161.16L38.1226 161.16L38.1226 148.232L39.5786 148.232L39.5786 149.848ZM45.5306 152.584C45.5306 151.923 45.3973 151.347 45.1306 150.856C44.864 150.365 44.5013 149.992 44.0426 149.736C43.5946 149.48 43.0986 149.352 42.5546 149.352C42.0213 149.352 41.5253 149.485 41.0666 149.752C40.6186 150.008 40.256 150.387 39.9786 150.888C39.712 151.379 39.5786 151.949 39.5786 152.6C39.5786 153.261 39.712 153.843 39.9786 154.344C40.256 154.835 40.6186 155.213 41.0666 155.48C41.5253 155.736 42.0213 155.864 42.5546 155.864C43.0986 155.864 43.5946 155.736 44.0426 155.48C44.5013 155.213 44.864 154.835 45.1306 154.344C45.3973 153.843 45.5306 153.256 45.5306 152.584ZM48.3911 152.584C48.3911 151.688 48.5725 150.904 48.9351 150.232C49.2978 149.549 49.7938 149.021 50.4231 148.648C51.0631 148.275 51.7725 148.088 52.5511 148.088C53.3191 148.088 53.9858 148.253 54.5511 148.584C55.1165 148.915 55.5378 149.331 55.8151 149.832L55.8151 148.232L57.2871 148.232L57.2871 157L55.8151 157L55.8151 155.368C55.5271 155.88 55.0951 156.307 54.5191 156.648C53.9538 156.979 53.2925 157.144 52.5351 157.144C51.7565 157.144 51.0525 156.952 50.4231 156.568C49.7938 156.184 49.2978 155.645 48.9351 154.952C48.5725 154.259 48.3911 153.469 48.3911 152.584ZM55.8151 152.6C55.8151 151.939 55.6818 151.363 55.4151 150.872C55.1485 150.381 54.7858 150.008 54.3271 149.752C53.8791 149.485 53.3831 149.352 52.8391 149.352C52.2951 149.352 51.7991 149.48 51.3511 149.736C50.9031 149.992 50.5458 150.365 50.2791 150.856C50.0125 151.347 49.8791 151.923 49.8791 152.584C49.8791 153.256 50.0125 153.843 50.2791 154.344C50.5458 154.835 50.9031 155.213 51.3511 155.48C51.7991 155.736 52.2951 155.864 52.8391 155.864C53.3831 155.864 53.8791 155.736 54.3271 155.48C54.7858 155.213 55.1485 154.835 55.4151 154.344C55.6818 153.843 55.8151 153.261 55.8151 152.6ZM62.8516 157.144C62.1796 157.144 61.577 157.032 61.0436 156.808C60.5103 156.573 60.089 156.253 59.7796 155.848C59.4703 155.432 59.2996 154.957 59.2676 154.424L60.7716 154.424C60.8143 154.861 61.017 155.219 61.3796 155.496C61.753 155.773 62.2383 155.912 62.8356 155.912C63.3903 155.912 63.8276 155.789 64.1476 155.544C64.4676 155.299 64.6276 154.989 64.6276 154.616C64.6276 154.232 64.457 153.949 64.1156 153.768C63.7743 153.576 63.2463 153.389 62.5316 153.208C61.881 153.037 61.3476 152.867 60.9316 152.696C60.5263 152.515 60.1743 152.253 59.8756 151.912C59.5876 151.56 59.4436 151.101 59.4436 150.536C59.4436 150.088 59.577 149.677 59.8436 149.304C60.1103 148.931 60.489 148.637 60.9796 148.424C61.4703 148.2 62.0303 148.088 62.6596 148.088C63.6303 148.088 64.4143 148.333 65.0116 148.824C65.609 149.315 65.929 149.987 65.9716 150.84L64.5156 150.84C64.4836 150.381 64.297 150.013 63.9556 149.736C63.625 149.459 63.177 149.32 62.6116 149.32C62.089 149.32 61.673 149.432 61.3636 149.656C61.0543 149.88 60.8996 150.173 60.8996 150.536C60.8996 150.824 60.9903 151.064 61.1716 151.256C61.3636 151.437 61.5983 151.587 61.8756 151.704C62.1636 151.811 62.5583 151.933 63.0596 152.072C63.689 152.243 64.201 152.413 64.5956 152.584C64.9903 152.744 65.3263 152.989 65.6036 153.32C65.8916 153.651 66.041 154.083 66.0516 154.616C66.0516 155.096 65.9183 155.528 65.6516 155.912C65.385 156.296 65.0063 156.6 64.5156 156.824C64.0356 157.037 63.481 157.144 62.8516 157.144Z" fill="white"/>
<path d="M21.688 127.416C21.688 126.328 21.9333 125.352 22.424 124.488C22.9147 123.613 23.5813 122.931 24.424 122.44C25.2773 121.949 26.2213 121.704 27.256 121.704C28.472 121.704 29.5333 121.997 30.44 122.584C31.3467 123.171 32.008 124.003 32.424 125.08L30.68 125.08C30.3707 124.408 29.9227 123.891 29.336 123.528C28.76 123.165 28.0667 122.984 27.256 122.984C26.4773 122.984 25.7787 123.165 25.16 123.528C24.5413 123.891 24.056 124.408 23.704 125.08C23.352 125.741 23.176 126.52 23.176 127.416C23.176 128.301 23.352 129.08 23.704 129.752C24.056 130.413 24.5413 130.925 25.16 131.288C25.7787 131.651 26.4773 131.832 27.256 131.832C28.0667 131.832 28.76 131.656 29.336 131.304C29.9227 130.941 30.3707 130.424 30.68 129.752L32.424 129.752C32.008 130.819 31.3467 131.645 30.44 132.232C29.5333 132.808 28.472 133.096 27.256 133.096C26.2213 133.096 25.2773 132.856 24.424 132.376C23.5813 131.885 22.9147 131.208 22.424 130.344C21.9333 129.48 21.688 128.504 21.688 127.416ZM42.3674 124.232L42.3674 133L40.9114 133L40.9114 131.704C40.634 132.152 40.2447 132.504 39.7434 132.76C39.2527 133.005 38.7087 133.128 38.1114 133.128C37.4287 133.128 36.8154 132.989 36.2714 132.712C35.7274 132.424 35.2954 131.997 34.9754 131.432C34.666 130.867 34.5114 130.179 34.5114 129.368L34.5114 124.232L35.9514 124.232L35.9514 129.176C35.9514 130.04 36.17 130.707 36.6074 131.176C37.0447 131.635 37.642 131.864 38.3994 131.864C39.178 131.864 39.7914 131.624 40.2394 131.144C40.6874 130.664 40.9114 129.965 40.9114 129.048L40.9114 124.232L42.3674 124.232ZM45.5778 122.808C45.3004 122.808 45.0658 122.712 44.8738 122.52C44.6818 122.328 44.5858 122.093 44.5858 121.816C44.5858 121.539 44.6818 121.304 44.8738 121.112C45.0658 120.92 45.3004 120.824 45.5778 120.824C45.8444 120.824 46.0684 120.92 46.2498 121.112C46.4418 121.304 46.5378 121.539 46.5378 121.816C46.5378 122.093 46.4418 122.328 46.2498 122.52C46.0684 122.712 45.8444 122.808 45.5778 122.808ZM46.2818 124.232L46.2818 133L44.8258 133L44.8258 124.232L46.2818 124.232ZM51.8673 133.144C51.1953 133.144 50.5926 133.032 50.0593 132.808C49.5259 132.573 49.1046 132.253 48.7953 131.848C48.4859 131.432 48.3153 130.957 48.2833 130.424L49.7873 130.424C49.8299 130.861 50.0326 131.219 50.3953 131.496C50.7686 131.773 51.2539 131.912 51.8513 131.912C52.4059 131.912 52.8433 131.789 53.1633 131.544C53.4833 131.299 53.6433 130.989 53.6433 130.616C53.6433 130.232 53.4726 129.949 53.1313 129.768C52.7899 129.576 52.2619 129.389 51.5473 129.208C50.8966 129.037 50.3633 128.867 49.9473 128.696C49.5419 128.515 49.1899 128.253 48.8913 127.912C48.6033 127.56 48.4593 127.101 48.4593 126.536C48.4593 126.088 48.5926 125.677 48.8593 125.304C49.1259 124.931 49.5046 124.637 49.9953 124.424C50.4859 124.2 51.0459 124.088 51.6753 124.088C52.6459 124.088 53.4299 124.333 54.0273 124.824C54.6246 125.315 54.9446 125.987 54.9873 126.84L53.5313 126.84C53.4993 126.381 53.3126 126.013 52.9713 125.736C52.6406 125.459 52.1926 125.32 51.6273 125.32C51.1046 125.32 50.6886 125.432 50.3793 125.656C50.0699 125.88 49.9153 126.173 49.9153 126.536C49.9153 126.824 50.0059 127.064 50.1873 127.256C50.3793 127.437 50.6139 127.587 50.8913 127.704C51.1793 127.811 51.5739 127.933 52.0753 128.072C52.7046 128.243 53.2166 128.413 53.6113 128.584C54.0059 128.744 54.3419 128.989 54.6193 129.32C54.9073 129.651 55.0566 130.083 55.0673 130.616C55.0673 131.096 54.9339 131.528 54.6673 131.912C54.4006 132.296 54.0219 132.6 53.5313 132.824C53.0513 133.037 52.4966 133.144 51.8673 133.144ZM57.8746 122.808C57.5973 122.808 57.3626 122.712 57.1706 122.52C56.9786 122.328 56.8826 122.093 56.8826 121.816C56.8826 121.539 56.9786 121.304 57.1706 121.112C57.3626 120.92 57.5973 120.824 57.8746 120.824C58.1413 120.824 58.3653 120.92 58.5466 121.112C58.7386 121.304 58.8346 121.539 58.8346 121.816C58.8346 122.093 58.7386 122.328 58.5466 122.52C58.3653 122.712 58.1413 122.808 57.8746 122.808ZM58.5786 124.232L58.5786 133L57.1226 133L57.1226 124.232L58.5786 124.232ZM65.3321 124.072C66.3988 124.072 67.2628 124.397 67.9241 125.048C68.5855 125.688 68.9161 126.616 68.9161 127.832L68.9161 133L67.4761 133L67.4761 128.04C67.4761 127.165 67.2575 126.499 66.8201 126.04C66.3828 125.571 65.7855 125.336 65.0281 125.336C64.2601 125.336 63.6468 125.576 63.1881 126.056C62.7401 126.536 62.5161 127.235 62.5161 128.152L62.5161 133L61.0601 133L61.0601 124.232L62.5161 124.232L62.5161 125.48C62.8041 125.032 63.1935 124.685 63.6841 124.44C64.1855 124.195 64.7348 124.072 65.3321 124.072ZM79.2945 128.28C79.2945 128.557 79.2785 128.851 79.2465 129.16L72.2385 129.16C72.2918 130.024 72.5852 130.701 73.1185 131.192C73.6625 131.672 74.3185 131.912 75.0865 131.912C75.7158 131.912 76.2385 131.768 76.6545 131.48C77.0812 131.181 77.3798 130.787 77.5505 130.296L79.1185 130.296C78.8838 131.139 78.4145 131.827 77.7105 132.36C77.0065 132.883 76.1318 133.144 75.0865 133.144C74.2545 133.144 73.5078 132.957 72.8465 132.584C72.1958 132.211 71.6838 131.683 71.3105 131C70.9372 130.307 70.7505 129.507 70.7505 128.6C70.7505 127.693 70.9318 126.899 71.2945 126.216C71.6572 125.533 72.1638 125.011 72.8145 124.648C73.4758 124.275 74.2332 124.088 75.0865 124.088C75.9185 124.088 76.6545 124.269 77.2945 124.632C77.9345 124.995 78.4252 125.496 78.7665 126.136C79.1185 126.765 79.2945 127.48 79.2945 128.28ZM77.7905 127.976C77.7905 127.421 77.6678 126.947 77.4225 126.552C77.1772 126.147 76.8412 125.843 76.4145 125.64C75.9985 125.427 75.5345 125.32 75.0225 125.32C74.2865 125.32 73.6572 125.555 73.1345 126.024C72.6225 126.493 72.3292 127.144 72.2545 127.976L77.7905 127.976ZM82.6724 125.656C82.9284 125.155 83.291 124.765 83.7604 124.488C84.2404 124.211 84.8217 124.072 85.5044 124.072L85.5044 125.576L85.1204 125.576C83.4884 125.576 82.6724 126.461 82.6724 128.232L82.6724 133L81.2164 133L81.2164 124.232L82.6724 124.232L82.6724 125.656ZM99.2268 124.232L99.2268 133L97.7708 133L97.7708 131.704C97.4934 132.152 97.1041 132.504 96.6028 132.76C96.1121 133.005 95.5681 133.128 94.9708 133.128C94.2881 133.128 93.6748 132.989 93.1308 132.712C92.5868 132.424 92.1548 131.997 91.8348 131.432C91.5254 130.867 91.3708 130.179 91.3708 129.368L91.3708 124.232L92.8108 124.232L92.8108 129.176C92.8108 130.04 93.0294 130.707 93.4668 131.176C93.9041 131.635 94.5014 131.864 95.2588 131.864C96.0374 131.864 96.6508 131.624 97.0988 131.144C97.5468 130.664 97.7708 129.965 97.7708 129.048L97.7708 124.232L99.2268 124.232ZM105.957 124.072C107.024 124.072 107.888 124.397 108.549 125.048C109.21 125.688 109.541 126.616 109.541 127.832L109.541 133L108.101 133L108.101 128.04C108.101 127.165 107.882 126.499 107.445 126.04C107.008 125.571 106.41 125.336 105.653 125.336C104.885 125.336 104.272 125.576 103.813 126.056C103.365 126.536 103.141 127.235 103.141 128.152L103.141 133L101.685 133L101.685 124.232L103.141 124.232L103.141 125.48C103.429 125.032 103.818 124.685 104.309 124.44C104.81 124.195 105.36 124.072 105.957 124.072ZM23.688 149.656C23.944 149.155 24.3067 148.765 24.776 148.488C25.256 148.211 25.8373 148.072 26.52 148.072L26.52 149.576L26.136 149.576C24.504 149.576 23.688 150.461 23.688 152.232L23.688 157L22.232 157L22.232 148.232L23.688 148.232L23.688 149.656ZM36.2008 152.28C36.2008 152.557 36.1848 152.851 36.1528 153.16L29.1448 153.16C29.1981 154.024 29.4914 154.701 30.0248 155.192C30.5688 155.672 31.2248 155.912 31.9928 155.912C32.6221 155.912 33.1448 155.768 33.5608 155.48C33.9874 155.181 34.2861 154.787 34.4568 154.296L36.0248 154.296C35.7901 155.139 35.3208 155.827 34.6168 156.36C33.9128 156.883 33.0381 157.144 31.9928 157.144C31.1608 157.144 30.4141 156.957 29.7528 156.584C29.1021 156.211 28.5901 155.683 28.2168 155C27.8434 154.307 27.6568 153.507 27.6568 152.6C27.6568 151.693 27.8381 150.899 28.2008 150.216C28.5634 149.533 29.0701 149.011 29.7208 148.648C30.3821 148.275 31.1394 148.088 31.9928 148.088C32.8248 148.088 33.5608 148.269 34.2008 148.632C34.8408 148.995 35.3314 149.496 35.6728 150.136C36.0248 150.765 36.2008 151.48 36.2008 152.28ZM34.6968 151.976C34.6968 151.421 34.5741 150.947 34.3288 150.552C34.0834 150.147 33.7474 149.843 33.3208 149.64C32.9048 149.427 32.4408 149.32 31.9288 149.32C31.1928 149.32 30.5634 149.555 30.0408 150.024C29.5288 150.493 29.2354 151.144 29.1608 151.976L34.6968 151.976ZM39.5786 149.848C39.8666 149.347 40.2933 148.931 40.8586 148.6C41.4346 148.259 42.1013 148.088 42.8586 148.088C43.6373 148.088 44.3413 148.275 44.9706 148.648C45.6106 149.021 46.112 149.549 46.4746 150.232C46.8373 150.904 47.0186 151.688 47.0186 152.584C47.0186 153.469 46.8373 154.259 46.4746 154.952C46.112 155.645 45.6106 156.184 44.9706 156.568C44.3413 156.952 43.6373 157.144 42.8586 157.144C42.112 157.144 41.4506 156.979 40.8746 156.648C40.3093 156.307 39.8773 155.885 39.5786 155.384L39.5786 161.16L38.1226 161.16L38.1226 148.232L39.5786 148.232L39.5786 149.848ZM45.5306 152.584C45.5306 151.923 45.3973 151.347 45.1306 150.856C44.864 150.365 44.5013 149.992 44.0426 149.736C43.5946 149.48 43.0986 149.352 42.5546 149.352C42.0213 149.352 41.5253 149.485 41.0666 149.752C40.6186 150.008 40.256 150.387 39.9786 150.888C39.712 151.379 39.5786 151.949 39.5786 152.6C39.5786 153.261 39.712 153.843 39.9786 154.344C40.256 154.835 40.6186 155.213 41.0666 155.48C41.5253 155.736 42.0213 155.864 42.5546 155.864C43.0986 155.864 43.5946 155.736 44.0426 155.48C44.5013 155.213 44.864 154.835 45.1306 154.344C45.3973 153.843 45.5306 153.256 45.5306 152.584ZM48.3911 152.584C48.3911 151.688 48.5725 150.904 48.9351 150.232C49.2978 149.549 49.7938 149.021 50.4231 148.648C51.0631 148.275 51.7725 148.088 52.5511 148.088C53.3191 148.088 53.9858 148.253 54.5511 148.584C55.1165 148.915 55.5378 149.331 55.8151 149.832L55.8151 148.232L57.2871 148.232L57.2871 157L55.8151 157L55.8151 155.368C55.5271 155.88 55.0951 156.307 54.5191 156.648C53.9538 156.979 53.2925 157.144 52.5351 157.144C51.7565 157.144 51.0525 156.952 50.4231 156.568C49.7938 156.184 49.2978 155.645 48.9351 154.952C48.5725 154.259 48.3911 153.469 48.3911 152.584ZM55.8151 152.6C55.8151 151.939 55.6818 151.363 55.4151 150.872C55.1485 150.381 54.7858 150.008 54.3271 149.752C53.8791 149.485 53.3831 149.352 52.8391 149.352C52.2951 149.352 51.7991 149.48 51.3511 149.736C50.9031 149.992 50.5458 150.365 50.2791 150.856C50.0125 151.347 49.8791 151.923 49.8791 152.584C49.8791 153.256 50.0125 153.843 50.2791 154.344C50.5458 154.835 50.9031 155.213 51.3511 155.48C51.7991 155.736 52.2951 155.864 52.8391 155.864C53.3831 155.864 53.8791 155.736 54.3271 155.48C54.7858 155.213 55.1485 154.835 55.4151 154.344C55.6818 153.843 55.8151 153.261 55.8151 152.6ZM62.8516 157.144C62.1796 157.144 61.577 157.032 61.0436 156.808C60.5103 156.573 60.089 156.253 59.7796 155.848C59.4703 155.432 59.2996 154.957 59.2676 154.424L60.7716 154.424C60.8143 154.861 61.017 155.219 61.3796 155.496C61.753 155.773 62.2383 155.912 62.8356 155.912C63.3903 155.912 63.8276 155.789 64.1476 155.544C64.4676 155.299 64.6276 154.989 64.6276 154.616C64.6276 154.232 64.457 153.949 64.1156 153.768C63.7743 153.576 63.2463 153.389 62.5316 153.208C61.881 153.037 61.3476 152.867 60.9316 152.696C60.5263 152.515 60.1743 152.253 59.8756 151.912C59.5876 151.56 59.4436 151.101 59.4436 150.536C59.4436 150.088 59.577 149.677 59.8436 149.304C60.1103 148.931 60.489 148.637 60.9796 148.424C61.4703 148.2 62.0303 148.088 62.6596 148.088C63.6303 148.088 64.4143 148.333 65.0116 148.824C65.609 149.315 65.929 149.987 65.9716 150.84L64.5156 150.84C64.4836 150.381 64.297 150.013 63.9556 149.736C63.625 149.459 63.177 149.32 62.6116 149.32C62.089 149.32 61.673 149.432 61.3636 149.656C61.0543 149.88 60.8996 150.173 60.8996 150.536C60.8996 150.824 60.9903 151.064 61.1716 151.256C61.3636 151.437 61.5983 151.587 61.8756 151.704C62.1636 151.811 62.5583 151.933 63.0596 152.072C63.689 152.243 64.201 152.413 64.5956 152.584C64.9903 152.744 65.3263 152.989 65.6036 153.32C65.8916 153.651 66.041 154.083 66.0516 154.616C66.0516 155.096 65.9183 155.528 65.6516 155.912C65.385 156.296 65.0063 156.6 64.5156 156.824C64.0356 157.037 63.481 157.144 62.8516 157.144Z" fill="white"/>
<path d="M21.688 127.416C21.688 126.328 21.9333 125.352 22.424 124.488C22.9147 123.613 23.5813 122.931 24.424 122.44C25.2773 121.949 26.2213 121.704 27.256 121.704C28.472 121.704 29.5333 121.997 30.44 122.584C31.3467 123.171 32.008 124.003 32.424 125.08L30.68 125.08C30.3707 124.408 29.9227 123.891 29.336 123.528C28.76 123.165 28.0667 122.984 27.256 122.984C26.4773 122.984 25.7787 123.165 25.16 123.528C24.5413 123.891 24.056 124.408 23.704 125.08C23.352 125.741 23.176 126.52 23.176 127.416C23.176 128.301 23.352 129.08 23.704 129.752C24.056 130.413 24.5413 130.925 25.16 131.288C25.7787 131.651 26.4773 131.832 27.256 131.832C28.0667 131.832 28.76 131.656 29.336 131.304C29.9227 130.941 30.3707 130.424 30.68 129.752L32.424 129.752C32.008 130.819 31.3467 131.645 30.44 132.232C29.5333 132.808 28.472 133.096 27.256 133.096C26.2213 133.096 25.2773 132.856 24.424 132.376C23.5813 131.885 22.9147 131.208 22.424 130.344C21.9333 129.48 21.688 128.504 21.688 127.416ZM42.3674 124.232L42.3674 133L40.9114 133L40.9114 131.704C40.634 132.152 40.2447 132.504 39.7434 132.76C39.2527 133.005 38.7087 133.128 38.1114 133.128C37.4287 133.128 36.8154 132.989 36.2714 132.712C35.7274 132.424 35.2954 131.997 34.9754 131.432C34.666 130.867 34.5114 130.179 34.5114 129.368L34.5114 124.232L35.9514 124.232L35.9514 129.176C35.9514 130.04 36.17 130.707 36.6074 131.176C37.0447 131.635 37.642 131.864 38.3994 131.864C39.178 131.864 39.7914 131.624 40.2394 131.144C40.6874 130.664 40.9114 129.965 40.9114 129.048L40.9114 124.232L42.3674 124.232ZM45.5778 122.808C45.3004 122.808 45.0658 122.712 44.8738 122.52C44.6818 122.328 44.5858 122.093 44.5858 121.816C44.5858 121.539 44.6818 121.304 44.8738 121.112C45.0658 120.92 45.3004 120.824 45.5778 120.824C45.8444 120.824 46.0684 120.92 46.2498 121.112C46.4418 121.304 46.5378 121.539 46.5378 121.816C46.5378 122.093 46.4418 122.328 46.2498 122.52C46.0684 122.712 45.8444 122.808 45.5778 122.808ZM46.2818 124.232L46.2818 133L44.8258 133L44.8258 124.232L46.2818 124.232ZM51.8673 133.144C51.1953 133.144 50.5926 133.032 50.0593 132.808C49.5259 132.573 49.1046 132.253 48.7953 131.848C48.4859 131.432 48.3153 130.957 48.2833 130.424L49.7873 130.424C49.8299 130.861 50.0326 131.219 50.3953 131.496C50.7686 131.773 51.2539 131.912 51.8513 131.912C52.4059 131.912 52.8433 131.789 53.1633 131.544C53.4833 131.299 53.6433 130.989 53.6433 130.616C53.6433 130.232 53.4726 129.949 53.1313 129.768C52.7899 129.576 52.2619 129.389 51.5473 129.208C50.8966 129.037 50.3633 128.867 49.9473 128.696C49.5419 128.515 49.1899 128.253 48.8913 127.912C48.6033 127.56 48.4593 127.101 48.4593 126.536C48.4593 126.088 48.5926 125.677 48.8593 125.304C49.1259 124.931 49.5046 124.637 49.9953 124.424C50.4859 124.2 51.0459 124.088 51.6753 124.088C52.6459 124.088 53.4299 124.333 54.0273 124.824C54.6246 125.315 54.9446 125.987 54.9873 126.84L53.5313 126.84C53.4993 126.381 53.3126 126.013 52.9713 125.736C52.6406 125.459 52.1926 125.32 51.6273 125.32C51.1046 125.32 50.6886 125.432 50.3793 125.656C50.0699 125.88 49.9153 126.173 49.9153 126.536C49.9153 126.824 50.0059 127.064 50.1873 127.256C50.3793 127.437 50.6139 127.587 50.8913 127.704C51.1793 127.811 51.5739 127.933 52.0753 128.072C52.7046 128.243 53.2166 128.413 53.6113 128.584C54.0059 128.744 54.3419 128.989 54.6193 129.32C54.9073 129.651 55.0566 130.083 55.0673 130.616C55.0673 131.096 54.9339 131.528 54.6673 131.912C54.4006 132.296 54.0219 132.6 53.5313 132.824C53.0513 133.037 52.4966 133.144 51.8673 133.144ZM57.8746 122.808C57.5973 122.808 57.3626 122.712 57.1706 122.52C56.9786 122.328 56.8826 122.093 56.8826 121.816C56.8826 121.539 56.9786 121.304 57.1706 121.112C57.3626 120.92 57.5973 120.824 57.8746 120.824C58.1413 120.824 58.3653 120.92 58.5466 121.112C58.7386 121.304 58.8346 121.539 58.8346 121.816C58.8346 122.093 58.7386 122.328 58.5466 122.52C58.3653 122.712 58.1413 122.808 57.8746 122.808ZM58.5786 124.232L58.5786 133L57.1226 133L57.1226 124.232L58.5786 124.232ZM65.3321 124.072C66.3988 124.072 67.2628 124.397 67.9241 125.048C68.5855 125.688 68.9161 126.616 68.9161 127.832L68.9161 133L67.4761 133L67.4761 128.04C67.4761 127.165 67.2575 126.499 66.8201 126.04C66.3828 125.571 65.7855 125.336 65.0281 125.336C64.2601 125.336 63.6468 125.576 63.1881 126.056C62.7401 126.536 62.5161 127.235 62.5161 128.152L62.5161 133L61.0601 133L61.0601 124.232L62.5161 124.232L62.5161 125.48C62.8041 125.032 63.1935 124.685 63.6841 124.44C64.1855 124.195 64.7348 124.072 65.3321 124.072ZM79.2945 128.28C79.2945 128.557 79.2785 128.851 79.2465 129.16L72.2385 129.16C72.2918 130.024 72.5852 130.701 73.1185 131.192C73.6625 131.672 74.3185 131.912 75.0865 131.912C75.7158 131.912 76.2385 131.768 76.6545 131.48C77.0812 131.181 77.3798 130.787 77.5505 130.296L79.1185 130.296C78.8838 131.139 78.4145 131.827 77.7105 132.36C77.0065 132.883 76.1318 133.144 75.0865 133.144C74.2545 133.144 73.5078 132.957 72.8465 132.584C72.1958 132.211 71.6838 131.683 71.3105 131C70.9372 130.307 70.7505 129.507 70.7505 128.6C70.7505 127.693 70.9318 126.899 71.2945 126.216C71.6572 125.533 72.1638 125.011 72.8145 124.648C73.4758 124.275 74.2332 124.088 75.0865 124.088C75.9185 124.088 76.6545 124.269 77.2945 124.632C77.9345 124.995 78.4252 125.496 78.7665 126.136C79.1185 126.765 79.2945 127.48 79.2945 128.28ZM77.7905 127.976C77.7905 127.421 77.6678 126.947 77.4225 126.552C77.1772 126.147 76.8412 125.843 76.4145 125.64C75.9985 125.427 75.5345 125.32 75.0225 125.32C74.2865 125.32 73.6572 125.555 73.1345 126.024C72.6225 126.493 72.3292 127.144 72.2545 127.976L77.7905 127.976ZM82.6724 125.656C82.9284 125.155 83.291 124.765 83.7604 124.488C84.2404 124.211 84.8217 124.072 85.5044 124.072L85.5044 125.576L85.1204 125.576C83.4884 125.576 82.6724 126.461 82.6724 128.232L82.6724 133L81.2164 133L81.2164 124.232L82.6724 124.232L82.6724 125.656ZM99.2268 124.232L99.2268 133L97.7708 133L97.7708 131.704C97.4934 132.152 97.1041 132.504 96.6028 132.76C96.1121 133.005 95.5681 133.128 94.9708 133.128C94.2881 133.128 93.6748 132.989 93.1308 132.712C92.5868 132.424 92.1548 131.997 91.8348 131.432C91.5254 130.867 91.3708 130.179 91.3708 129.368L91.3708 124.232L92.8108 124.232L92.8108 129.176C92.8108 130.04 93.0294 130.707 93.4668 131.176C93.9041 131.635 94.5014 131.864 95.2588 131.864C96.0374 131.864 96.6508 131.624 97.0988 131.144C97.5468 130.664 97.7708 129.965 97.7708 129.048L97.7708 124.232L99.2268 124.232ZM105.957 124.072C107.024 124.072 107.888 124.397 108.549 125.048C109.21 125.688 109.541 126.616 109.541 127.832L109.541 133L108.101 133L108.101 128.04C108.101 127.165 107.882 126.499 107.445 126.04C107.008 125.571 106.41 125.336 105.653 125.336C104.885 125.336 104.272 125.576 103.813 126.056C103.365 126.536 103.141 127.235 103.141 128.152L103.141 133L101.685 133L101.685 124.232L103.141 124.232L103.141 125.48C103.429 125.032 103.818 124.685 104.309 124.44C104.81 124.195 105.36 124.072 105.957 124.072ZM23.688 149.656C23.944 149.155 24.3067 148.765 24.776 148.488C25.256 148.211 25.8373 148.072 26.52 148.072L26.52 149.576L26.136 149.576C24.504 149.576 23.688 150.461 23.688 152.232L23.688 157L22.232 157L22.232 148.232L23.688 148.232L23.688 149.656ZM36.2008 152.28C36.2008 152.557 36.1848 152.851 36.1528 153.16L29.1448 153.16C29.1981 154.024 29.4914 154.701 30.0248 155.192C30.5688 155.672 31.2248 155.912 31.9928 155.912C32.6221 155.912 33.1448 155.768 33.5608 155.48C33.9874 155.181 34.2861 154.787 34.4568 154.296L36.0248 154.296C35.7901 155.139 35.3208 155.827 34.6168 156.36C33.9128 156.883 33.0381 157.144 31.9928 157.144C31.1608 157.144 30.4141 156.957 29.7528 156.584C29.1021 156.211 28.5901 155.683 28.2168 155C27.8434 154.307 27.6568 153.507 27.6568 152.6C27.6568 151.693 27.8381 150.899 28.2008 150.216C28.5634 149.533 29.0701 149.011 29.7208 148.648C30.3821 148.275 31.1394 148.088 31.9928 148.088C32.8248 148.088 33.5608 148.269 34.2008 148.632C34.8408 148.995 35.3314 149.496 35.6728 150.136C36.0248 150.765 36.2008 151.48 36.2008 152.28ZM34.6968 151.976C34.6968 151.421 34.5741 150.947 34.3288 150.552C34.0834 150.147 33.7474 149.843 33.3208 149.64C32.9048 149.427 32.4408 149.32 31.9288 149.32C31.1928 149.32 30.5634 149.555 30.0408 150.024C29.5288 150.493 29.2354 151.144 29.1608 151.976L34.6968 151.976ZM39.5786 149.848C39.8666 149.347 40.2933 148.931 40.8586 148.6C41.4346 148.259 42.1013 148.088 42.8586 148.088C43.6373 148.088 44.3413 148.275 44.9706 148.648C45.6106 149.021 46.112 149.549 46.4746 150.232C46.8373 150.904 47.0186 151.688 47.0186 152.584C47.0186 153.469 46.8373 154.259 46.4746 154.952C46.112 155.645 45.6106 156.184 44.9706 156.568C44.3413 156.952 43.6373 157.144 42.8586 157.144C42.112 157.144 41.4506 156.979 40.8746 156.648C40.3093 156.307 39.8773 155.885 39.5786 155.384L39.5786 161.16L38.1226 161.16L38.1226 148.232L39.5786 148.232L39.5786 149.848ZM45.5306 152.584C45.5306 151.923 45.3973 151.347 45.1306 150.856C44.864 150.365 44.5013 149.992 44.0426 149.736C43.5946 149.48 43.0986 149.352 42.5546 149.352C42.0213 149.352 41.5253 149.485 41.0666 149.752C40.6186 150.008 40.256 150.387 39.9786 150.888C39.712 151.379 39.5786 151.949 39.5786 152.6C39.5786 153.261 39.712 153.843 39.9786 154.344C40.256 154.835 40.6186 155.213 41.0666 155.48C41.5253 155.736 42.0213 155.864 42.5546 155.864C43.0986 155.864 43.5946 155.736 44.0426 155.48C44.5013 155.213 44.864 154.835 45.1306 154.344C45.3973 153.843 45.5306 153.256 45.5306 152.584ZM48.3911 152.584C48.3911 151.688 48.5725 150.904 48.9351 150.232C49.2978 149.549 49.7938 149.021 50.4231 148.648C51.0631 148.275 51.7725 148.088 52.5511 148.088C53.3191 148.088 53.9858 148.253 54.5511 148.584C55.1165 148.915 55.5378 149.331 55.8151 149.832L55.8151 148.232L57.2871 148.232L57.2871 157L55.8151 157L55.8151 155.368C55.5271 155.88 55.0951 156.307 54.5191 156.648C53.9538 156.979 53.2925 157.144 52.5351 157.144C51.7565 157.144 51.0525 156.952 50.4231 156.568C49.7938 156.184 49.2978 155.645 48.9351 154.952C48.5725 154.259 48.3911 153.469 48.3911 152.584ZM55.8151 152.6C55.8151 151.939 55.6818 151.363 55.4151 150.872C55.1485 150.381 54.7858 150.008 54.3271 149.752C53.8791 149.485 53.3831 149.352 52.8391 149.352C52.2951 149.352 51.7991 149.48 51.3511 149.736C50.9031 149.992 50.5458 150.365 50.2791 150.856C50.0125 151.347 49.8791 151.923 49.8791 152.584C49.8791 153.256 50.0125 153.843 50.2791 154.344C50.5458 154.835 50.9031 155.213 51.3511 155.48C51.7991 155.736 52.2951 155.864 52.8391 155.864C53.3831 155.864 53.8791 155.736 54.3271 155.48C54.7858 155.213 55.1485 154.835 55.4151 154.344C55.6818 153.843 55.8151 153.261 55.8151 152.6ZM62.8516 157.144C62.1796 157.144 61.577 157.032 61.0436 156.808C60.5103 156.573 60.089 156.253 59.7796 155.848C59.4703 155.432 59.2996 154.957 59.2676 154.424L60.7716 154.424C60.8143 154.861 61.017 155.219 61.3796 155.496C61.753 155.773 62.2383 155.912 62.8356 155.912C63.3903 155.912 63.8276 155.789 64.1476 155.544C64.4676 155.299 64.6276 154.989 64.6276 154.616C64.6276 154.232 64.457 153.949 64.1156 153.768C63.7743 153.576 63.2463 153.389 62.5316 153.208C61.881 153.037 61.3476 152.867 60.9316 152.696C60.5263 152.515 60.1743 152.253 59.8756 151.912C59.5876 151.56 59.4436 151.101 59.4436 150.536C59.4436 150.088 59.577 149.677 59.8436 149.304C60.1103 148.931 60.489 148.637 60.9796 148.424C61.4703 148.2 62.0303 148.088 62.6596 148.088C63.6303 148.088 64.4143 148.333 65.0116 148.824C65.609 149.315 65.929 149.987 65.9716 150.84L64.5156 150.84C64.4836 150.381 64.297 150.013 63.9556 149.736C63.625 149.459 63.177 149.32 62.6116 149.32C62.089 149.32 61.673 149.432 61.3636 149.656C61.0543 149.88 60.8996 150.173 60.8996 150.536C60.8996 150.824 60.9903 151.064 61.1716 151.256C61.3636 151.437 61.5983 151.587 61.8756 151.704C62.1636 151.811 62.5583 151.933 63.0596 152.072C63.689 152.243 64.201 152.413 64.5956 152.584C64.9903 152.744 65.3263 152.989 65.6036 153.32C65.8916 153.651 66.041 154.083 66.0516 154.616C66.0516 155.096 65.9183 155.528 65.6516 155.912C65.385 156.296 65.0063 156.6 64.5156 156.824C64.0356 157.037 63.481 157.144 62.8516 157.144Z" fill="white"/>
<path d="M21.688 127.416C21.688 126.328 21.9333 125.352 22.424 124.488C22.9147 123.613 23.5813 122.931 24.424 122.44C25.2773 121.949 26.2213 121.704 27.256 121.704C28.472 121.704 29.5333 121.997 30.44 122.584C31.3467 123.171 32.008 124.003 32.424 125.08L30.68 125.08C30.3707 124.408 29.9227 123.891 29.336 123.528C28.76 123.165 28.0667 122.984 27.256 122.984C26.4773 122.984 25.7787 123.165 25.16 123.528C24.5413 123.891 24.056 124.408 23.704 125.08C23.352 125.741 23.176 126.52 23.176 127.416C23.176 128.301 23.352 129.08 23.704 129.752C24.056 130.413 24.5413 130.925 25.16 131.288C25.7787 131.651 26.4773 131.832 27.256 131.832C28.0667 131.832 28.76 131.656 29.336 131.304C29.9227 130.941 30.3707 130.424 30.68 129.752L32.424 129.752C32.008 130.819 31.3467 131.645 30.44 132.232C29.5333 132.808 28.472 133.096 27.256 133.096C26.2213 133.096 25.2773 132.856 24.424 132.376C23.5813 131.885 22.9147 131.208 22.424 130.344C21.9333 129.48 21.688 128.504 21.688 127.416ZM42.3674 124.232L42.3674 133L40.9114 133L40.9114 131.704C40.634 132.152 40.2447 132.504 39.7434 132.76C39.2527 133.005 38.7087 133.128 38.1114 133.128C37.4287 133.128 36.8154 132.989 36.2714 132.712C35.7274 132.424 35.2954 131.997 34.9754 131.432C34.666 130.867 34.5114 130.179 34.5114 129.368L34.5114 124.232L35.9514 124.232L35.9514 129.176C35.9514 130.04 36.17 130.707 36.6074 131.176C37.0447 131.635 37.642 131.864 38.3994 131.864C39.178 131.864 39.7914 131.624 40.2394 131.144C40.6874 130.664 40.9114 129.965 40.9114 129.048L40.9114 124.232L42.3674 124.232ZM45.5778 122.808C45.3004 122.808 45.0658 122.712 44.8738 122.52C44.6818 122.328 44.5858 122.093 44.5858 121.816C44.5858 121.539 44.6818 121.304 44.8738 121.112C45.0658 120.92 45.3004 120.824 45.5778 120.824C45.8444 120.824 46.0684 120.92 46.2498 121.112C46.4418 121.304 46.5378 121.539 46.5378 121.816C46.5378 122.093 46.4418 122.328 46.2498 122.52C46.0684 122.712 45.8444 122.808 45.5778 122.808ZM46.2818 124.232L46.2818 133L44.8258 133L44.8258 124.232L46.2818 124.232ZM51.8673 133.144C51.1953 133.144 50.5926 133.032 50.0593 132.808C49.5259 132.573 49.1046 132.253 48.7953 131.848C48.4859 131.432 48.3153 130.957 48.2833 130.424L49.7873 130.424C49.8299 130.861 50.0326 131.219 50.3953 131.496C50.7686 131.773 51.2539 131.912 51.8513 131.912C52.4059 131.912 52.8433 131.789 53.1633 131.544C53.4833 131.299 53.6433 130.989 53.6433 130.616C53.6433 130.232 53.4726 129.949 53.1313 129.768C52.7899 129.576 52.2619 129.389 51.5473 129.208C50.8966 129.037 50.3633 128.867 49.9473 128.696C49.5419 128.515 49.1899 128.253 48.8913 127.912C48.6033 127.56 48.4593 127.101 48.4593 126.536C48.4593 126.088 48.5926 125.677 48.8593 125.304C49.1259 124.931 49.5046 124.637 49.9953 124.424C50.4859 124.2 51.0459 124.088 51.6753 124.088C52.6459 124.088 53.4299 124.333 54.0273 124.824C54.6246 125.315 54.9446 125.987 54.9873 126.84L53.5313 126.84C53.4993 126.381 53.3126 126.013 52.9713 125.736C52.6406 125.459 52.1926 125.32 51.6273 125.32C51.1046 125.32 50.6886 125.432 50.3793 125.656C50.0699 125.88 49.9153 126.173 49.9153 126.536C49.9153 126.824 50.0059 127.064 50.1873 127.256C50.3793 127.437 50.6139 127.587 50.8913 127.704C51.1793 127.811 51.5739 127.933 52.0753 128.072C52.7046 128.243 53.2166 128.413 53.6113 128.584C54.0059 128.744 54.3419 128.989 54.6193 129.32C54.9073 129.651 55.0566 130.083 55.0673 130.616C55.0673 131.096 54.9339 131.528 54.6673 131.912C54.4006 132.296 54.0219 132.6 53.5313 132.824C53.0513 133.037 52.4966 133.144 51.8673 133.144ZM57.8746 122.808C57.5973 122.808 57.3626 122.712 57.1706 122.52C56.9786 122.328 56.8826 122.093 56.8826 121.816C56.8826 121.539 56.9786 121.304 57.1706 121.112C57.3626 120.92 57.5973 120.824 57.8746 120.824C58.1413 120.824 58.3653 120.92 58.5466 121.112C58.7386 121.304 58.8346 121.539 58.8346 121.816C58.8346 122.093 58.7386 122.328 58.5466 122.52C58.3653 122.712 58.1413 122.808 57.8746 122.808ZM58.5786 124.232L58.5786 133L57.1226 133L57.1226 124.232L58.5786 124.232ZM65.3321 124.072C66.3988 124.072 67.2628 124.397 67.9241 125.048C68.5855 125.688 68.9161 126.616 68.9161 127.832L68.9161 133L67.4761 133L67.4761 128.04C67.4761 127.165 67.2575 126.499 66.8201 126.04C66.3828 125.571 65.7855 125.336 65.0281 125.336C64.2601 125.336 63.6468 125.576 63.1881 126.056C62.7401 126.536 62.5161 127.235 62.5161 128.152L62.5161 133L61.0601 133L61.0601 124.232L62.5161 124.232L62.5161 125.48C62.8041 125.032 63.1935 124.685 63.6841 124.44C64.1855 124.195 64.7348 124.072 65.3321 124.072ZM79.2945 128.28C79.2945 128.557 79.2785 128.851 79.2465 129.16L72.2385 129.16C72.2918 130.024 72.5852 130.701 73.1185 131.192C73.6625 131.672 74.3185 131.912 75.0865 131.912C75.7158 131.912 76.2385 131.768 76.6545 131.48C77.0812 131.181 77.3798 130.787 77.5505 130.296L79.1185 130.296C78.8838 131.139 78.4145 131.827 77.7105 132.36C77.0065 132.883 76.1318 133.144 75.0865 133.144C74.2545 133.144 73.5078 132.957 72.8465 132.584C72.1958 132.211 71.6838 131.683 71.3105 131C70.9372 130.307 70.7505 129.507 70.7505 128.6C70.7505 127.693 70.9318 126.899 71.2945 126.216C71.6572 125.533 72.1638 125.011 72.8145 124.648C73.4758 124.275 74.2332 124.088 75.0865 124.088C75.9185 124.088 76.6545 124.269 77.2945 124.632C77.9345 124.995 78.4252 125.496 78.7665 126.136C79.1185 126.765 79.2945 127.48 79.2945 128.28ZM77.7905 127.976C77.7905 127.421 77.6678 126.947 77.4225 126.552C77.1772 126.147 76.8412 125.843 76.4145 125.64C75.9985 125.427 75.5345 125.32 75.0225 125.32C74.2865 125.32 73.6572 125.555 73.1345 126.024C72.6225 126.493 72.3292 127.144 72.2545 127.976L77.7905 127.976ZM82.6724 125.656C82.9284 125.155 83.291 124.765 83.7604 124.488C84.2404 124.211 84.8217 124.072 85.5044 124.072L85.5044 125.576L85.1204 125.576C83.4884 125.576 82.6724 126.461 82.6724 128.232L82.6724 133L81.2164 133L81.2164 124.232L82.6724 124.232L82.6724 125.656ZM99.2268 124.232L99.2268 133L97.7708 133L97.7708 131.704C97.4934 132.152 97.1041 132.504 96.6028 132.76C96.1121 133.005 95.5681 133.128 94.9708 133.128C94.2881 133.128 93.6748 132.989 93.1308 132.712C92.5868 132.424 92.1548 131.997 91.8348 131.432C91.5254 130.867 91.3708 130.179 91.3708 129.368L91.3708 124.232L92.8108 124.232L92.8108 129.176C92.8108 130.04 93.0294 130.707 93.4668 131.176C93.9041 131.635 94.5014 131.864 95.2588 131.864C96.0374 131.864 96.6508 131.624 97.0988 131.144C97.5468 130.664 97.7708 129.965 97.7708 129.048L97.7708 124.232L99.2268 124.232ZM105.957 124.072C107.024 124.072 107.888 124.397 108.549 125.048C109.21 125.688 109.541 126.616 109.541 127.832L109.541 133L108.101 133L108.101 128.04C108.101 127.165 107.882 126.499 107.445 126.04C107.008 125.571 106.41 125.336 105.653 125.336C104.885 125.336 104.272 125.576 103.813 126.056C103.365 126.536 103.141 127.235 103.141 128.152L103.141 133L101.685 133L101.685 124.232L103.141 124.232L103.141 125.48C103.429 125.032 103.818 124.685 104.309 124.44C104.81 124.195 105.36 124.072 105.957 124.072ZM23.688 149.656C23.944 149.155 24.3067 148.765 24.776 148.488C25.256 148.211 25.8373 148.072 26.52 148.072L26.52 149.576L26.136 149.576C24.504 149.576 23.688 150.461 23.688 152.232L23.688 157L22.232 157L22.232 148.232L23.688 148.232L23.688 149.656ZM36.2008 152.28C36.2008 152.557 36.1848 152.851 36.1528 153.16L29.1448 153.16C29.1981 154.024 29.4914 154.701 30.0248 155.192C30.5688 155.672 31.2248 155.912 31.9928 155.912C32.6221 155.912 33.1448 155.768 33.5608 155.48C33.9874 155.181 34.2861 154.787 34.4568 154.296L36.0248 154.296C35.7901 155.139 35.3208 155.827 34.6168 156.36C33.9128 156.883 33.0381 157.144 31.9928 157.144C31.1608 157.144 30.4141 156.957 29.7528 156.584C29.1021 156.211 28.5901 155.683 28.2168 155C27.8434 154.307 27.6568 153.507 27.6568 152.6C27.6568 151.693 27.8381 150.899 28.2008 150.216C28.5634 149.533 29.0701 149.011 29.7208 148.648C30.3821 148.275 31.1394 148.088 31.9928 148.088C32.8248 148.088 33.5608 148.269 34.2008 148.632C34.8408 148.995 35.3314 149.496 35.6728 150.136C36.0248 150.765 36.2008 151.48 36.2008 152.28ZM34.6968 151.976C34.6968 151.421 34.5741 150.947 34.3288 150.552C34.0834 150.147 33.7474 149.843 33.3208 149.64C32.9048 149.427 32.4408 149.32 31.9288 149.32C31.1928 149.32 30.5634 149.555 30.0408 150.024C29.5288 150.493 29.2354 151.144 29.1608 151.976L34.6968 151.976ZM39.5786 149.848C39.8666 149.347 40.2933 148.931 40.8586 148.6C41.4346 148.259 42.1013 148.088 42.8586 148.088C43.6373 148.088 44.3413 148.275 44.9706 148.648C45.6106 149.021 46.112 149.549 46.4746 150.232C46.8373 150.904 47.0186 151.688 47.0186 152.584C47.0186 153.469 46.8373 154.259 46.4746 154.952C46.112 155.645 45.6106 156.184 44.9706 156.568C44.3413 156.952 43.6373 157.144 42.8586 157.144C42.112 157.144 41.4506 156.979 40.8746 156.648C40.3093 156.307 39.8773 155.885 39.5786 155.384L39.5786 161.16L38.1226 161.16L38.1226 148.232L39.5786 148.232L39.5786 149.848ZM45.5306 152.584C45.5306 151.923 45.3973 151.347 45.1306 150.856C44.864 150.365 44.5013 149.992 44.0426 149.736C43.5946 149.48 43.0986 149.352 42.5546 149.352C42.0213 149.352 41.5253 149.485 41.0666 149.752C40.6186 150.008 40.256 150.387 39.9786 150.888C39.712 151.379 39.5786 151.949 39.5786 152.6C39.5786 153.261 39.712 153.843 39.9786 154.344C40.256 154.835 40.6186 155.213 41.0666 155.48C41.5253 155.736 42.0213 155.864 42.5546 155.864C43.0986 155.864 43.5946 155.736 44.0426 155.48C44.5013 155.213 44.864 154.835 45.1306 154.344C45.3973 153.843 45.5306 153.256 45.5306 152.584ZM48.3911 152.584C48.3911 151.688 48.5725 150.904 48.9351 150.232C49.2978 149.549 49.7938 149.021 50.4231 148.648C51.0631 148.275 51.7725 148.088 52.5511 148.088C53.3191 148.088 53.9858 148.253 54.5511 148.584C55.1165 148.915 55.5378 149.331 55.8151 149.832L55.8151 148.232L57.2871 148.232L57.2871 157L55.8151 157L55.8151 155.368C55.5271 155.88 55.0951 156.307 54.5191 156.648C53.9538 156.979 53.2925 157.144 52.5351 157.144C51.7565 157.144 51.0525 156.952 50.4231 156.568C49.7938 156.184 49.2978 155.645 48.9351 154.952C48.5725 154.259 48.3911 153.469 48.3911 152.584ZM55.8151 152.6C55.8151 151.939 55.6818 151.363 55.4151 150.872C55.1485 150.381 54.7858 150.008 54.3271 149.752C53.8791 149.485 53.3831 149.352 52.8391 149.352C52.2951 149.352 51.7991 149.48 51.3511 149.736C50.9031 149.992 50.5458 150.365 50.2791 150.856C50.0125 151.347 49.8791 151.923 49.8791 152.584C49.8791 153.256 50.0125 153.843 50.2791 154.344C50.5458 154.835 50.9031 155.213 51.3511 155.48C51.7991 155.736 52.2951 155.864 52.8391 155.864C53.3831 155.864 53.8791 155.736 54.3271 155.48C54.7858 155.213 55.1485 154.835 55.4151 154.344C55.6818 153.843 55.8151 153.261 55.8151 152.6ZM62.8516 157.144C62.1796 157.144 61.577 157.032 61.0436 156.808C60.5103 156.573 60.089 156.253 59.7796 155.848C59.4703 155.432 59.2996 154.957 59.2676 154.424L60.7716 154.424C60.8143 154.861 61.017 155.219 61.3796 155.496C61.753 155.773 62.2383 155.912 62.8356 155.912C63.3903 155.912 63.8276 155.789 64.1476 155.544C64.4676 155.299 64.6276 154.989 64.6276 154.616C64.6276 154.232 64.457 153.949 64.1156 153.768C63.7743 153.576 63.2463 153.389 62.5316 153.208C61.881 153.037 61.3476 152.867 60.9316 152.696C60.5263 152.515 60.1743 152.253 59.8756 151.912C59.5876 151.56 59.4436 151.101 59.4436 150.536C59.4436 150.088 59.577 149.677 59.8436 149.304C60.1103 148.931 60.489 148.637 60.9796 148.424C61.4703 148.2 62.0303 148.088 62.6596 148.088C63.6303 148.088 64.4143 148.333 65.0116 148.824C65.609 149.315 65.929 149.987 65.9716 150.84L64.5156 150.84C64.4836 150.381 64.297 150.013 63.9556 149.736C63.625 149.459 63.177 149.32 62.6116 149.32C62.089 149.32 61.673 149.432 61.3636 149.656C61.0543 149.88 60.8996 150.173 60.8996 150.536C60.8996 150.824 60.9903 151.064 61.1716 151.256C61.3636 151.437 61.5983 151.587 61.8756 151.704C62.1636 151.811 62.5583 151.933 63.0596 152.072C63.689 152.243 64.201 152.413 64.5956 152.584C64.9903 152.744 65.3263 152.989 65.6036 153.32C65.8916 153.651 66.041 154.083 66.0516 154.616C66.0516 155.096 65.9183 155.528 65.6516 155.912C65.385 156.296 65.0063 156.6 64.5156 156.824C64.0356 157.037 63.481 157.144 62.8516 157.144Z" fill="#024F2D"/>
<ellipse cx="33.7422" cy="190.757" rx="16.9594" ry="17.3834" fill="white"/>
<path d="M38.989 196.152L43.1577 190.757L38.989 185.362L38.6145 185.814L38.3254 186.167L41.6407 190.188L24.4451 190.188C24.3207 190.188 23.9761 190.188 23.9761 190.188C23.976 190.236 23.976 191.175 23.976 191.326C23.976 191.326 24.3207 191.326 24.4451 191.326L41.6407 191.326L38.3254 195.347L38.6147 195.7L38.989 196.152Z" fill="#024F2D" stroke="#024F2D"/>
</svg>
