<svg width="38" height="38" viewBox="0 0 38 38" fill="none" xmlns="http://www.w3.org/2000/svg">
<circle cx="19" cy="19" r="19" fill="#C92B43"/>
<path d="M19.4958 21.7506L19.319 21.5738L19.1422 21.7506L15.7057 25.1871C14.9676 25.9252 13.7709 25.9252 13.0328 25.1871C12.2947 24.449 12.2947 23.2524 13.0328 22.5143L16.4694 19.0777L16.6461 18.9009L16.4694 18.7242L12.8773 15.1321C12.1938 14.4486 12.1938 13.3406 12.8773 12.6572C13.5607 11.9738 14.6687 11.9738 15.3521 12.6572L18.9442 16.2493L19.121 16.4261L19.2978 16.2493L22.7343 12.8128C23.4724 12.0747 24.6691 12.0747 25.4072 12.8128C26.1453 13.5508 26.1453 14.7475 25.4072 15.4856L21.9707 18.9222L21.7939 19.0989L21.9707 19.2757L25.5628 22.8678C26.2462 23.5512 26.2462 24.6593 25.5628 25.3427C24.8793 26.0261 23.7713 26.0261 23.0879 25.3427L19.4958 21.7506Z" fill="white" stroke="white" stroke-width="0.5"/>
</svg>
