<svg width="25" height="23" viewBox="0 0 25 23" fill="none" xmlns="http://www.w3.org/2000/svg">
<path d="M24.2203 3.24568C23.1733 1.05443 20.1572 -0.738414 16.6489 0.305419C14.9724 0.799239 13.5098 1.85825 12.4998 3.30943C11.4899 1.85825 10.0272 0.799239 8.35078 0.305419C4.83464 -0.722477 1.82638 1.05443 0.779353 3.24568C-0.689613 6.31344 -0.0801478 9.76366 2.59212 13.5007C4.68618 16.4251 7.67881 19.3892 12.0232 22.8315C12.1605 22.9407 12.3296 23 12.5037 23C12.6778 23 12.847 22.9407 12.9843 22.8315C17.3208 19.3972 20.3213 16.4569 22.4153 13.5007C25.0798 9.76366 25.6893 6.31344 24.2203 3.24568Z" fill="#FF6A59" fill-opacity="0.65"/>
</svg>
