<svg width="41" height="37" viewBox="0 0 41 37" fill="none" xmlns="http://www.w3.org/2000/svg">
<g filter="url(#filter0_b_110_266)">
<path d="M40 12.3988C40 15.4058 38.8421 18.2941 36.7743 20.4306C32.0146 25.3503 27.3979 30.4803 22.4603 35.2217C21.3286 36.2927 19.5332 36.2536 18.4502 35.1342L4.22483 20.4306C-0.0749424 15.9862 -0.0749424 8.81128 4.22483 4.36694C8.56685 -0.121071 15.6405 -0.121071 19.9825 4.36694L20.4996 4.90137L21.0164 4.36725C23.0982 2.21431 25.9335 1 28.8953 1C31.8572 1 34.6923 2.21419 36.7743 4.36694C38.8423 6.50366 40 9.39178 40 12.3988Z" fill="#EEFF72" stroke="white" stroke-linejoin="round"/>
</g>
<defs>
<filter id="filter0_b_110_266" x="-7.5" y="-7.5" width="56" height="52" filterUnits="userSpaceOnUse" color-interpolation-filters="sRGB">
<feFlood flood-opacity="0" result="BackgroundImageFix"/>
<feGaussianBlur in="BackgroundImageFix" stdDeviation="4"/>
<feComposite in2="SourceAlpha" operator="in" result="effect1_backgroundBlur_110_266"/>
<feBlend mode="normal" in="SourceGraphic" in2="effect1_backgroundBlur_110_266" result="shape"/>
</filter>
</defs>
</svg>
