<svg width="59" height="51" viewBox="0 0 59 51" fill="none" xmlns="http://www.w3.org/2000/svg">
<path d="M24.6143 49.8571C24.3983 49.8571 24.1912 49.7714 24.0385 49.6186C23.8858 49.4659 23.8 49.2588 23.8 49.0429V40.0857H5.07143C3.99202 40.0844 2.95718 39.6551 2.19392 38.8918C1.43066 38.1285 1.00129 37.0937 1 36.0143V5.07143C1.00129 3.99202 1.43066 2.95718 2.19392 2.19392C2.95718 1.43066 3.99202 1.00129 5.07143 1H53.9286C55.008 1.00129 56.0428 1.43066 56.8061 2.19392C57.5693 2.95718 57.9987 3.99202 58 5.07143V36.0143C57.9987 37.0937 57.5693 38.1285 56.8061 38.8918C56.0428 39.6551 55.008 40.0844 53.9286 40.0857H34.7228L25.19 49.6186C25.0373 49.7713 24.8302 49.8571 24.6143 49.8571ZM5.07143 2.62857C4.42354 2.62857 3.80219 2.88594 3.34407 3.34407C2.88594 3.80219 2.62857 4.42354 2.62857 5.07143V36.0143C2.62857 36.6622 2.88594 37.2835 3.34407 37.7416C3.80219 38.1998 4.42354 38.4571 5.07143 38.4571H24.6143C24.8302 38.4571 25.0374 38.5429 25.1901 38.6956C25.3428 38.8484 25.4286 39.0555 25.4286 39.2714V47.0772L33.81 38.6957C33.9627 38.543 34.1698 38.4572 34.3857 38.4571H53.9286C54.5765 38.4571 55.1978 38.1998 55.6559 37.7416C56.1141 37.2835 56.3714 36.6622 56.3714 36.0143V5.07143C56.3714 4.42354 56.1141 3.80219 55.6559 3.34407C55.1978 2.88594 54.5765 2.62857 53.9286 2.62857H5.07143Z" fill="#F3EBD4" stroke="#F3EBD4" stroke-width="2"/>
<path d="M29.4998 31.9428C29.394 31.9427 29.2892 31.9222 29.1911 31.8826C28.6716 31.6701 16.4712 26.562 16.4712 16.2931C16.5012 14.7889 16.9955 13.3307 17.8864 12.1183C18.7774 10.906 20.0214 9.99872 21.448 9.52089C22.8746 9.04306 24.4141 9.018 25.8555 9.44916C27.297 9.88032 28.5698 10.7466 29.4998 11.9293C30.4297 10.7466 31.7026 9.88032 33.144 9.44916C34.5854 9.018 36.1249 9.04306 37.5515 9.52089C38.9782 9.99872 40.2222 10.906 41.1131 12.1183C42.0041 13.3307 42.4984 14.7889 42.5283 16.2931C42.5283 26.562 30.3279 31.6701 29.8084 31.8826C29.7103 31.9222 29.6055 31.9427 29.4998 31.9428ZM23.7403 10.7714C22.2607 10.7575 20.8359 11.331 19.7785 12.3661C18.7211 13.4012 18.1174 14.8135 18.0998 16.2931C18.0998 24.6306 27.6464 29.3933 29.4998 30.2385C31.3523 29.3917 40.8998 24.62 40.8998 16.2931C40.8687 15.0391 40.422 13.8309 39.6299 12.8583C38.8378 11.8856 37.7451 11.2036 36.5234 10.9192C35.3017 10.6348 34.0201 10.7642 32.8799 11.287C31.7397 11.8099 30.8054 12.6966 30.2237 13.8079C30.1479 13.9319 30.0415 14.0343 29.9147 14.1054C29.788 14.1765 29.6451 14.2138 29.4998 14.2138C29.3544 14.2138 29.2116 14.1765 29.0848 14.1054C28.958 14.0343 28.8517 13.9319 28.7759 13.8079C28.2978 12.8869 27.5745 12.116 26.6859 11.5801C25.7973 11.0443 24.778 10.7644 23.7403 10.7714Z" fill="#F3EBD4" stroke="#F3EBD4" stroke-width="2"/>
</svg>
