<svg width="61" height="29" viewBox="0 0 61 29" fill="none" xmlns="http://www.w3.org/2000/svg">
<path d="M27.5938 11.9062H12.4062C12.1825 11.9062 11.9679 11.8174 11.8096 11.6591C11.6514 11.5009 11.5625 11.2863 11.5625 11.0625C11.5625 10.8387 11.6514 10.6241 11.8096 10.4659C11.9679 10.3076 12.1825 10.2188 12.4062 10.2188H27.5938C27.8175 10.2188 28.0321 10.3076 28.1904 10.4659C28.3486 10.6241 28.4375 10.8387 28.4375 11.0625C28.4375 11.2863 28.3486 11.5009 28.1904 11.6591C28.0321 11.8174 27.8175 11.9062 27.5938 11.9062ZM24.7812 15.8438H15.2188C14.995 15.8438 14.7804 15.7549 14.6221 15.5966C14.4639 15.4384 14.375 15.2238 14.375 15C14.375 14.7762 14.4639 14.5616 14.6221 14.4034C14.7804 14.2451 14.995 14.1562 15.2188 14.1562H24.7812C25.005 14.1562 25.2196 14.2451 25.3779 14.4034C25.5361 14.5616 25.625 14.7762 25.625 15C25.625 15.2238 25.5361 15.4384 25.3779 15.5966C25.2196 15.7549 25.005 15.8438 24.7812 15.8438ZM21.4062 19.7812H18.5938C18.37 19.7812 18.1554 19.6924 17.9971 19.5341C17.8389 19.3759 17.75 19.1613 17.75 18.9375C17.75 18.7137 17.8389 18.4991 17.9971 18.3409C18.1554 18.1826 18.37 18.0938 18.5938 18.0938H21.4062C21.63 18.0938 21.8446 18.1826 22.0029 18.3409C22.1611 18.4991 22.25 18.7137 22.25 18.9375C22.25 19.1613 22.1611 19.3759 22.0029 19.5341C21.8446 19.6924 21.63 19.7812 21.4062 19.7812Z" fill="#FFA25E"/>
<path d="M38.2958 12.2958C38.2021 12.3888 38.1277 12.4994 38.0769 12.6212C38.0261 12.7431 38 12.8738 38 13.0058C38 13.1378 38.0261 13.2685 38.0769 13.3904C38.1277 13.5122 38.2021 13.6228 38.2958 13.7158L43.2958 18.7158C43.3888 18.8095 43.4994 18.8839 43.6212 18.9347C43.7431 18.9855 43.8738 19.0116 44.0058 19.0116C44.1378 19.0116 44.2685 18.9855 44.3904 18.9347C44.5122 18.8839 44.6228 18.8095 44.7158 18.7158L49.7158 13.7158C49.8095 13.6228 49.8839 13.5122 49.9347 13.3904C49.9855 13.2685 50.0116 13.1378 50.0116 13.0058C50.0116 12.8738 49.9855 12.7431 49.9347 12.6212C49.8839 12.4994 49.8095 12.3888 49.7158 12.2958C49.6228 12.2021 49.5122 12.1277 49.3904 12.0769C49.2685 12.0261 49.1378 12 49.0058 12C48.8738 12 48.7431 12.0261 48.6212 12.0769C48.4994 12.1277 48.3888 12.2021 48.2958 12.2958L44.0058 16.5958L39.7158 12.2958C39.6228 12.2021 39.5122 12.1277 39.3904 12.0769C39.2685 12.0261 39.1378 12 39.0058 12C38.8738 12 38.7431 12.0261 38.6212 12.0769C38.4994 12.1277 38.3888 12.2021 38.2958 12.2958Z" fill="#FFA25E"/>
</svg>
