<svg width="33" height="32" viewBox="0 0 33 32" fill="none" xmlns="http://www.w3.org/2000/svg">
<path d="M8.7207 29.8587H11.7566L12.4957 30.2478C13.4595 30.7553 14.5324 31.0204 15.6217 31.0204H26.2475H28.7283C29.8251 31.0204 30.7142 30.1313 30.7142 29.0345C30.7142 27.9376 29.8251 27.0486 28.7283 27.0486H29.5266C30.6235 27.0486 31.5125 26.1594 31.5125 25.0626C31.5125 23.9658 30.6234 23.0767 29.5266 23.0767H30.2482C31.345 23.0767 32.2341 22.1875 32.2341 21.0907C32.2341 19.9939 31.345 19.1048 30.2482 19.1048H31.0142C32.1111 19.1048 33.0001 18.2156 33.0001 17.1188C33.0001 16.022 32.111 15.1328 31.0142 15.1328H30.025H28.489H26.3643H22.6709C21.4694 15.1328 20.4966 14.1565 20.5011 12.9549L20.5259 6.36081C20.5259 5.13462 19.5319 4.1405 18.3056 4.1405C17.0794 4.1405 16.0853 5.13455 16.0853 6.36081C16.0853 6.36081 16.027 7.21699 15.9647 8.21556C15.842 10.1786 15.2321 12.0799 14.1903 13.7482C13.1151 15.4698 11.9508 17.3902 11.9508 17.3902C11.8481 17.528 11.6863 17.6092 11.5145 17.6092H8.7207" fill="#FFE6C6"/>
<path d="M30.6453 28.5164C30.3661 28.6661 30.0471 28.7513 29.7082 28.7513H27.2273H16.6016C15.5123 28.7513 14.4393 28.4861 13.4755 27.9787L13.2588 27.8646C12.916 27.6841 12.5336 27.5917 12.1462 27.5956L11 27.6072C10.477 27.6125 10.0501 27.19 10.0501 26.6669V18.1255C10.0501 17.9502 10.0369 17.778 10.0127 17.6092H3.90332V29.9382L10.0104 29.8762L11.7563 29.8586L12.4954 30.2477C13.4593 30.7551 14.5321 31.0203 15.6214 31.0203H26.2472H28.6882C29.7304 31.0203 30.6248 30.2328 30.7075 29.1938C30.7265 28.9579 30.7029 28.7302 30.6453 28.5164Z" fill="#F8D3AA"/>
<path d="M0.933955 31.6329H6.42999C7.69507 31.6329 8.72057 30.6073 8.72057 29.3423V18.1255C8.72057 16.8604 7.695 15.8349 6.42999 15.8349H0.933955C0.418149 15.8349 0 16.253 0 16.7689V30.6989C0 31.2147 0.418149 31.6329 0.933955 31.6329Z" fill="#EEFF72"/>
<path d="M6.80891 15.8661C6.81423 15.93 6.81815 15.9951 6.81815 16.0603V27.2772C6.81815 28.5422 5.79259 29.5677 4.52758 29.5677H0V30.699C0 31.2148 0.418149 31.633 0.933955 31.633H6.42999C7.69507 31.633 8.72057 30.6074 8.72057 29.3424V18.1256C8.72057 16.9898 7.89331 16.0471 6.80891 15.8661Z" fill="#35CB6A"/>
<path d="M18.3047 2.56041C18.0294 2.56041 17.8062 2.33725 17.8062 2.06183V0.498588C17.8062 0.223168 18.0294 0 18.3047 0C18.5801 0 18.8033 0.223168 18.8033 0.498588V2.06183C18.8033 2.33718 18.5801 2.56041 18.3047 2.56041Z" fill="#EEFF72"/>
<path d="M21.7791 3.75021C21.6642 3.75021 21.5487 3.71065 21.4546 3.62995C21.2457 3.45059 21.2217 3.13581 21.401 2.92687L22.419 1.74063C22.5984 1.53162 22.9132 1.50776 23.1221 1.68698C23.331 1.86634 23.355 2.18112 23.1758 2.39006L22.1577 3.5763C22.059 3.69124 21.9194 3.75021 21.7791 3.75021Z" fill="#EEFF72"/>
<path d="M24.5442 7.14415H22.981C22.7057 7.14415 22.4824 6.92098 22.4824 6.64556C22.4824 6.37014 22.7057 6.14697 22.981 6.14697H24.5442C24.8196 6.14697 25.0428 6.37014 25.0428 6.64556C25.0428 6.92098 24.8196 7.14415 24.5442 7.14415Z" fill="#EEFF72"/>
<path d="M14.8313 3.75021C14.6909 3.75021 14.5514 3.69124 14.4527 3.57637L13.4347 2.39013C13.2553 2.18112 13.2794 1.86641 13.4883 1.68705C13.6974 1.50776 14.0121 1.53176 14.1914 1.7407L15.2095 2.92694C15.3888 3.13595 15.3648 3.45066 15.1558 3.63001C15.0618 3.71065 14.9462 3.75021 14.8313 3.75021Z" fill="#EEFF72"/>
<path d="M13.6297 7.14415H12.0665C11.7911 7.14415 11.5679 6.92098 11.5679 6.64556C11.5679 6.37014 11.7911 6.14697 12.0665 6.14697H13.6297C13.9051 6.14697 14.1283 6.37014 14.1283 6.64556C14.1283 6.92098 13.9051 7.14415 13.6297 7.14415Z" fill="#EEFF72"/>
</svg>
