<?xml version="1.0" encoding="UTF-8"?><svg id="Calque_1" xmlns="http://www.w3.org/2000/svg" viewBox="0 0 58.95 71.3"><defs><style>.cls-1{fill:#56b4bb;}.cls-1,.cls-2{stroke-width:0px;}.cls-2{fill:#8dc8d4;}</style></defs><path class="cls-2" d="m8.02,51.19c-5.65-12.54-.93-23.09,6.63-32.91,2.72-3.53,5.98-6.67,9.69-9.3,5.46-3.86,5.42-3.91,10.94.34,1.06.77,1.05,1.63,1.76,1.87,0,0-1-.52-1-.52.5,2.18,1.47,3.37,2.35,5.34,6.66,14.79-.42,31.61-17.03,35.67-4.55,1.11-8.91-.05-13.35-.49Z"/><path class="cls-1" d="m8.02,51.19c4.44.44,8.8,1.6,13.35.49,16.61-4.06,22.28-20.52,16.57-35.33-.76-1.97-1.74-4.61-2.65-7.03,9.06,6.4,15.37,15.2,17.54,26.03,2.95,14.7-5.38,26.82-19.95,29.52-9.88,1.83-20.94-4.26-24.86-13.68Z"/></svg>