<?xml version="1.0" encoding="UTF-8"?><svg id="Calque_1" xmlns="http://www.w3.org/2000/svg" viewBox="0 0 58.95 71.3"><defs><style>.cls-1{fill:#727172;}.cls-1,.cls-2,.cls-3,.cls-4{stroke-width:0px;}.cls-2{fill:#56b4bb;}.cls-3{fill:#8dc8d4;}.cls-4{fill:#a6a5a5;}</style></defs><path class="cls-3" d="m21.37,51.68c10.34-2.53,16.44-9.87,18.19-18.62H6.56c-1.61,5.62-1.48,11.61,1.46,18.13,4.44.44,8.8,1.6,13.35.49Z"/><path class="cls-4" d="m37.94,16.35c-.76-1.97-1.74-4.61-2.65-7.03-5.52-4.25-5.49-4.2-10.94-.34-3.71,2.62-6.97,5.77-9.69,9.3-3.63,4.71-6.6,9.59-8.09,14.78h33c1.06-5.3.53-11.12-1.63-16.71Z"/><path class="cls-1" d="m35.29,9.32c.92.67,1.04,1.4,1.51,1.74.14.07.25.13.25.13-.09-.03-.18-.08-.25-.13-.3-.15-.75-.39-.75-.39.5,2.18,1.47,3.37,2.35,5.34,2.55,5.66,3.08,11.62,1.84,17.05h12.06c-2.56-9.79-8.59-17.8-17.01-23.74Z"/><path class="cls-2" d="m21.37,51.68c-4.55,1.11-8.91-.05-13.35-.49,3.93,9.42,14.99,15.51,24.86,13.68,14.56-2.7,22.9-14.82,19.95-29.52-.16-.77-.34-1.53-.53-2.29h-12.06c-2,8.75-8.62,16.11-18.87,18.62Z"/><path class="cls-1" d="m39.56,33.06h.68c1.24-5.43.71-11.39-1.84-17.05-.88-1.96-1.85-3.15-2.35-5.34,0,0,.45.24.75.39-.48-.34-.59-1.07-1.51-1.74.91,2.42,1.89,5.06,2.65,7.03,2.16,5.59,2.69,11.41,1.63,16.71Z"/><path class="cls-2" d="m21.37,51.68c10.25-2.5,16.86-9.87,18.87-18.62h-.68c-1.75,8.75-7.85,16.09-18.19,18.62Z"/></svg>