<?xml version="1.0" encoding="UTF-8"?><svg id="Calque_1" xmlns="http://www.w3.org/2000/svg" viewBox="0 0 58.95 71.3"><defs><style>.cls-1{fill:#727172;}.cls-1,.cls-2,.cls-3,.cls-4{stroke-width:0px;}.cls-2{fill:#56b4bb;}.cls-3{fill:#8dc8d4;}.cls-4{fill:#a6a5a5;}</style></defs><path class="cls-3" d="m21.37,51.68c5.27-1.29,9.44-3.83,12.49-7.17H5.92c.39,2.16,1.07,4.39,2.1,6.68,4.44.44,8.8,1.6,13.35.49Z"/><path class="cls-4" d="m37.94,16.35c-.76-1.97-1.74-4.61-2.65-7.03-5.52-4.25-5.49-4.2-10.95-.34-3.71,2.62-6.97,5.77-9.69,9.3-6.18,8.02-10.46,16.54-8.73,26.23h27.94c6.57-7.18,7.98-18.05,4.07-28.16Z"/><path class="cls-1" d="m52.83,35.35c-2.17-10.83-8.48-19.63-17.54-26.03.92.67,1.04,1.4,1.51,1.74.14.07.25.13.25.13-.09-.03-.18-.08-.25-.13-.3-.15-.75-.39-.75-.39.5,2.18,1.47,3.37,2.35,5.34,4.56,10.14,2.67,21.22-4.31,28.5h19.11c.38-2.89.27-5.96-.37-9.16Z"/><path class="cls-2" d="m21.37,51.68c-4.55,1.11-8.91-.05-13.35-.49,3.93,9.42,14.99,15.51,24.86,13.68,11.39-2.11,18.97-9.99,20.32-20.35h-19.11c-3.21,3.35-7.49,5.89-12.72,7.17Z"/><path class="cls-1" d="m33.86,44.51h.23c6.98-7.28,8.88-18.37,4.31-28.5-.88-1.96-1.85-3.15-2.35-5.34,0,0,.45.24.75.39-.48-.34-.59-1.07-1.51-1.74.91,2.42,1.89,5.06,2.65,7.03,3.9,10.11,2.49,20.98-4.07,28.16Z"/><path class="cls-2" d="m21.37,51.68c5.23-1.28,9.51-3.82,12.72-7.17h-.23c-3.05,3.34-7.22,5.88-12.49,7.17Z"/></svg>