<svg width="26" height="33" viewBox="0 0 26 33" fill="none" xmlns="http://www.w3.org/2000/svg">
<path d="M12.992 4.0505C12.9108 3.97625 12.8027 3.93481 12.6902 3.93481C12.5778 3.93481 12.4697 3.97625 12.3885 4.0505L2.34296 13.2188C2.30029 13.2577 2.26635 13.3046 2.24319 13.3565C2.22002 13.4084 2.20811 13.4642 2.20818 13.5206L2.20654 22.1253C2.20654 22.5678 2.39051 22.9921 2.71796 23.3049C3.04542 23.6178 3.48955 23.7935 3.95265 23.7935H9.19641C9.42796 23.7935 9.65002 23.7056 9.81375 23.5492C9.97748 23.3928 10.0695 23.1806 10.0695 22.9594V15.8696C10.0695 15.759 10.1154 15.6529 10.1973 15.5747C10.2792 15.4965 10.3902 15.4526 10.506 15.4526H14.8712C14.987 15.4526 15.098 15.4965 15.1799 15.5747C15.2618 15.6529 15.3078 15.759 15.3078 15.8696V22.9594C15.3078 23.1806 15.3997 23.3928 15.5635 23.5492C15.7272 23.7056 15.9493 23.7935 16.1808 23.7935H21.4224C21.8855 23.7935 22.3296 23.6178 22.6571 23.3049C22.9845 22.9921 23.1685 22.5678 23.1685 22.1253V13.5206C23.1686 13.4642 23.1567 13.4084 23.1335 13.3565C23.1103 13.3046 23.0764 13.2577 23.0337 13.2188L12.992 4.0505Z" fill="#FF6A59"/>
<path fill-rule="evenodd" clip-rule="evenodd" d="M13.4789 0.798297C13.245 0.685974 12.9728 0.625 12.6875 0.625C12.2286 0.625 11.8036 0.78376 11.5171 1.06134L0.272801 11.3505C-0.0560163 11.6539 -0.0972506 12.1529 0.201962 12.4816C0.277099 12.5645 0.369099 12.632 0.472363 12.6799C0.575627 12.7277 0.687996 12.755 0.80263 12.76C0.917263 12.765 1.03177 12.7477 1.13917 12.709C1.24657 12.6704 1.34462 12.6112 1.42736 12.5352L12.3967 2.50992C12.4754 2.43791 12.5802 2.39772 12.6891 2.39772C12.798 2.39772 12.9027 2.43791 12.9814 2.50992L23.9518 12.5352C24.1134 12.6834 24.3299 12.7643 24.5538 12.7601C24.7776 12.7559 24.9906 12.6671 25.1461 12.5129C25.4706 12.1914 25.4437 11.6605 25.1059 11.3515L21.1516 7.73339V7.7221L13.4789 0.798297Z" fill="#FF6A59"/>
<rect y="30" width="26" height="3" rx="1.5" fill="#FF6A59"/>
</svg>
