<svg width="32" height="35" viewBox="0 0 32 35" fill="none" xmlns="http://www.w3.org/2000/svg">
<path d="M2.62864 32.3346H10.8532V19.469H21.1362V32.3346H29.3608V12.6557L15.9947 2.73318L2.62864 12.6557V32.3346ZM0.40096 34.5212C-0.133624 33.8827 -0.133682 12.5945 0.40096 11.5624C0.935603 10.5304 14.8363 0 15.9947 0C17.1531 0 31.2321 10.5304 31.5885 11.5624C31.9448 12.5945 32.3013 33.8827 31.5885 34.5212C30.8756 35.1596 19.6481 35.1596 18.9085 34.5212C18.1689 33.8827 18.9085 21.6555 18.9085 21.6555H13.0809C13.0809 21.6555 13.464 33.8827 13.0809 34.5212C12.6978 35.1596 0.935545 35.1596 0.40096 34.5212Z" fill="#F3EBD4"/>
</svg>
