<svg width="289.5" height="289.5" viewBox="100 100 379 379" fill="none" xmlns="http://www.w3.org/2000/svg">
<path fill-rule="evenodd" clip-rule="evenodd" d="M289.527 280.427C289.097 280.421 288.665 280.414 288.23 280.405L288.382 189.419C288.728 189.392 289.111 189.369 289.527 189.35C285.158 189.155 277.165 189.452 271.59 191.403C265.229 180.971 251.072 162.367 245.332 171.405C224.37 208.316 204.073 281.5 289.527 280.427ZM270.961 224.602C270.961 231.01 267.612 236.205 263.48 236.205C259.349 236.205 256 231.01 256 224.602C256 218.195 259.349 213 263.48 213C267.612 213 270.961 218.195 270.961 224.602Z" fill="white"/>
<path fill-rule="evenodd" clip-rule="evenodd" d="M285 280.427C285.43 280.421 285.862 280.414 286.298 280.405L286.145 189.419C285.8 189.392 285.416 189.369 285 189.35C289.369 189.155 297.362 189.452 302.938 191.403C309.299 180.971 323.455 162.367 329.196 171.405C350.157 208.316 370.454 281.5 285 280.427ZM303.567 224.602C303.567 231.01 306.916 236.205 311.047 236.205C315.178 236.205 318.527 231.01 318.527 224.602C318.527 218.195 315.178 213 311.047 213C306.916 213 303.567 218.195 303.567 224.602Z" fill="white"/>
<path d="M194.104 342.665V398H174.472V342.665H194.104ZM173.286 321.415C173.286 319.905 173.573 318.467 174.149 317.101C174.724 315.734 175.515 314.584 176.522 313.649C177.528 312.642 178.679 311.851 179.973 311.276C181.34 310.7 182.778 310.413 184.288 310.413C185.87 310.413 187.344 310.736 188.71 311.384C190.077 311.959 191.227 312.75 192.162 313.757C193.169 314.763 193.924 315.95 194.427 317.316C195.003 318.611 195.29 319.977 195.29 321.415C195.29 322.997 194.967 324.471 194.319 325.838C193.744 327.132 192.953 328.283 191.946 329.289C190.94 330.224 189.753 330.979 188.387 331.555C187.092 332.13 185.726 332.417 184.288 332.417C182.778 332.417 181.34 332.13 179.973 331.555C178.679 330.979 177.528 330.188 176.522 329.181C175.515 328.175 174.724 327.024 174.149 325.73C173.573 324.363 173.286 322.925 173.286 321.415Z" fill="white"/>
<path d="M201.413 398L227.408 358.952H204.864V342.665H260.092L234.204 381.712H257.503V398H201.413Z" fill="white"/>
<path d="M261.666 398L287.661 358.952H265.117V342.665H320.345L294.457 381.712H317.756V398H261.666Z" fill="white"/>
<path d="M342.09 342.665L356.867 371.033L371.321 342.665H393.65L349.317 425.614H327.312L346.189 390.449L319.438 342.665H342.09Z" fill="white"/>
<path d="M412 390.5C412 396.299 407.299 401 401.5 401C395.701 401 391 396.299 391 390.5C391 384.701 395.701 380 401.5 380C407.299 380 412 384.701 412 390.5Z" fill="#FFD55E"/>
</svg>
