<svg width="22" height="22" viewBox="0 0 22 22" fill="none" xmlns="http://www.w3.org/2000/svg">
<path d="M21.2528 2.04099L19.959 0.747242C19.8031 0.589416 19.6174 0.464109 19.4127 0.378585C19.208 0.293062 18.9883 0.249023 18.7665 0.249023C18.5446 0.249023 18.325 0.293062 18.1203 0.378585C17.9156 0.464109 17.7299 0.589416 17.574 0.747242L11.625 6.69737V10.375H15.3038L21.2528 4.42599C21.4106 4.27008 21.5359 4.08439 21.6214 3.87969C21.7069 3.67499 21.751 3.45534 21.751 3.23349C21.751 3.01164 21.7069 2.792 21.6214 2.5873C21.5359 2.38259 21.4106 2.1969 21.2528 2.04099ZM14.5264 8.63124H13.3676V7.47249L17.25 3.59462L18.4088 4.75337L14.5264 8.63124Z" fill="black"/>
<path d="M18.375 19.375H2.625V3.625H9.375V1.375H2.625C2.02881 1.37678 1.45755 1.61441 1.03598 2.03598C0.614405 2.45755 0.376781 3.02881 0.375 3.625V19.375C0.376781 19.9712 0.614405 20.5425 1.03598 20.964C1.45755 21.3856 2.02881 21.6232 2.625 21.625H18.375C18.9712 21.6232 19.5425 21.3856 19.964 20.964C20.3856 20.5425 20.6232 19.9712 20.625 19.375V12.625H18.375V19.375Z" fill="black"/>
</svg>
