<svg width="222" height="226" viewBox="0 0 222 226" fill="none" xmlns="http://www.w3.org/2000/svg">
<path d="M52.6558 100.524L50.7644 93.7773L75.6177 90.48L49.8812 79.3008L54.9404 70.1957L75.0464 81.3579L62.745 68.8324L69.4173 65.2828L80.1437 76.4189L69.8515 48.4353L76.8655 44.2708L84.4058 67.9077L83.331 47.8602L91.7337 47.1121L90.7998 63.1673L99.598 47.3331L102.829 49.1266C102.829 49.1266 94.2139 73.0889 95.2966 77.0562L96.3793 81.0234L118.028 76.726L134.317 76.1595L158.866 93.7011L165.352 123.459L163.564 141.892L155.867 155.744L159.947 167.85L154.448 177.747L148.475 184.272L151.598 173.577L147.83 166.825L111.016 171.767L93.2484 161.903L79.7739 143.03L76.007 120.22L77.1498 97.001L52.6514 100.521L52.6558 100.524Z" fill="#35CB6A"/>
<path d="M89.9513 120.598C93.2036 118.107 100.823 113.605 105.281 115.524C102.359 117.285 96.2508 121.296 95.1874 123.253M129.988 89.9366C123.686 92.8588 120.311 100.998 119.411 104.702C122.357 101.811 130.177 96.4568 130.177 96.4568" stroke="#024F2D" stroke-width="3"/>
<path d="M115.526 152.017C116.459 149.287 118.786 143.373 120.625 141.562C122.464 139.75 127.535 136.102 129.84 134.505C132.438 132.851 137.698 129.494 137.952 129.299C138.27 129.056 144.664 128.19 146.03 128.656" stroke="#024F2D" stroke-width="6"/>
<path d="M133.877 106.091L135.09 102.412L137.801 105.516L138.539 108.079L137.303 110.1L135.058 110.192L133.776 108.896L133.877 106.091Z" fill="#024F2D"/>
</svg>
