<svg width="120" height="149" viewBox="0 0 120 149" fill="none" xmlns="http://www.w3.org/2000/svg">
<path d="M61.2972 42.814L66.8113 45.2689L69.4057 55.702L74.269 64.2958V75.0368L77.8366 93.1455L72.9733 114.935L61.2972 127.823L39.5661 140.714L22.3789 144.398L17.838 146.853L11.6761 149L2.59437 145.624L0 136.109L2.26893 128.439L3.56759 114.627L0 99.8974L0.850845 85.0008L9.07577 67.5729L23.3522 56.315L34.3774 51.405L42.4859 44.961H49.2957L55.1352 40.972L61.2972 42.814Z" fill="#35CB6A"/>
<path d="M56.1086 34.5252H62.2705V28.3892V22.8633L60.9718 18.5664L59.1895 11.2014L57.4042 8.44132L56.1086 4.14439L49.6212 2.60755L46.7014 0H43.7846L42.1605 10.5884L44.4324 18.8743L46.379 21.6372L49.9466 25.9342L56.1086 34.5252Z" fill="#35CB6A"/>
<path d="M66.1605 38.2091H70.379L75.5677 36.0621H86.9183L98.269 44.348L105.082 52.326L110.918 57.5439L117.728 70.4347L120 74.7317H112.214H107.676L102.81 72.2738L93.0803 69.2058L85.2972 63.3749L77.8366 55.3969L72.3225 47.724L66.1605 38.2091Z" fill="#35CB6A"/>
<path d="M58.3723 99.2364H20.4489L21.1924 105.923L24.9104 112.257L33.8336 114.72H43.8721L53.5389 106.978L58.3723 99.2364Z" fill="#024F2D"/>
<path d="M23.0514 83.0489L26.3976 75.6589H30.1156L33.4617 83.0489M46.1029 83.0489L47.9619 75.6589L52.4234 74.6032L54.6542 76.7147L55.3978 83.0489" stroke="#024F2D" stroke-width="4"/>
</svg>
