<svg width="23" height="24" viewBox="0 0 23 24" fill="none" xmlns="http://www.w3.org/2000/svg">
<path fill-rule="evenodd" clip-rule="evenodd" d="M6.66667 5.75C6.66667 4.42392 7.17589 3.15215 8.08232 2.21447C8.98874 1.27678 10.2181 0.75 11.5 0.75C12.7819 0.75 14.0113 1.27678 14.9177 2.21447C15.8241 3.15215 16.3333 4.42392 16.3333 5.75C16.3333 7.07608 15.8241 8.34785 14.9177 9.28553C14.0113 10.2232 12.7819 10.75 11.5 10.75C10.2181 10.75 8.98874 10.2232 8.08232 9.28553C7.17589 8.34785 6.66667 7.07608 6.66667 5.75ZM6.66667 13.25C5.06432 13.25 3.5276 13.9085 2.39456 15.0806C1.26153 16.2527 0.625 17.8424 0.625 19.5C0.625 20.4946 1.00692 21.4484 1.68674 22.1517C2.36656 22.8549 3.28859 23.25 4.25 23.25H18.75C19.7114 23.25 20.6334 22.8549 21.3133 22.1517C21.9931 21.4484 22.375 20.4946 22.375 19.5C22.375 17.8424 21.7385 16.2527 20.6054 15.0806C19.4724 13.9085 17.9357 13.25 16.3333 13.25H6.66667Z" fill="#FF6A59" fill-opacity="0.65"/>
</svg>
