<svg width="16" height="18" viewBox="0 0 16 18" fill="none" xmlns="http://www.w3.org/2000/svg">
<path d="M8 0.666667C9.29365 0.666619 10.537 1.16797 11.4687 2.06539C12.4005 2.9628 12.9482 4.18643 12.9967 5.47917L13 5.66667H13.8333C14.2538 5.66653 14.6588 5.82534 14.9671 6.11125C15.2754 6.39716 15.4643 6.78904 15.4958 7.20833L15.5 7.33333V15.6667C15.5001 16.0871 15.3413 16.4921 15.0554 16.8005C14.7695 17.1088 14.3776 17.2976 13.9583 17.3292L13.8333 17.3333H2.16667C1.74619 17.3335 1.34119 17.1747 1.03288 16.8888C0.724559 16.6028 0.535703 16.211 0.504167 15.7917L0.5 15.6667V7.33333C0.499867 6.91285 0.658672 6.50786 0.944581 6.19954C1.23049 5.89123 1.62237 5.70237 2.04167 5.67083L2.16667 5.66667H3C3 4.34058 3.52678 3.06881 4.46447 2.13113C5.40215 1.19345 6.67392 0.666667 8 0.666667ZM13.8333 7.33333H2.16667V15.6667H13.8333V7.33333ZM8 9C8.35549 9.00011 8.70163 9.11389 8.98787 9.32471C9.2741 9.53553 9.48543 9.83234 9.59098 10.1718C9.69653 10.5113 9.69078 10.8756 9.57456 11.2115C9.45834 11.5475 9.23775 11.8375 8.945 12.0392L8.83333 12.11V13.1667C8.8331 13.3791 8.75177 13.5834 8.60596 13.7378C8.46015 13.8923 8.26087 13.9852 8.04884 13.9976C7.8368 14.0101 7.62802 13.9411 7.46514 13.8048C7.30226 13.6685 7.19759 13.4751 7.1725 13.2642L7.16667 13.1667V12.11C6.84895 11.9265 6.60065 11.6434 6.46026 11.3044C6.31987 10.9655 6.29524 10.5897 6.3902 10.2353C6.48515 9.88092 6.69439 9.56778 6.98544 9.34443C7.2765 9.12109 7.63312 9.00002 8 9ZM8 2.33333C7.11594 2.33333 6.2681 2.68452 5.64298 3.30964C5.01786 3.93477 4.66667 4.78261 4.66667 5.66667H11.3333C11.3333 4.78261 10.9821 3.93477 10.357 3.30964C9.7319 2.68452 8.88406 2.33333 8 2.33333Z" fill="white"/>
</svg>
