<svg width="22" height="17" viewBox="0 0 22 17" fill="none" xmlns="http://www.w3.org/2000/svg">
<path d="M18.1 6.66012C19.211 7.97412 18.98 9.58112 18.98 11.0001C18.98 14.9061 13.713 16.0001 11 16.0001C8.28699 16.0001 3.01999 14.9061 3.01999 11.0001C3.01999 9.58212 2.78899 7.97412 3.89999 6.66012M18.1 6.66012C17.905 6.43012 17.67 6.21012 17.384 6.00012M18.1 6.66012C18.8 7.06312 18.979 5.55512 18.98 5.06212V3.18812C18.98 1.56312 17.863 1.00012 16.905 1.00012C15.948 1.00012 14.032 2.56312 13.394 2.56312C12.628 2.56312 12.48 2.40612 11 2.40612C9.51999 2.40612 9.37199 2.56312 8.60599 2.56312C7.96799 2.56312 6.05199 1.00012 5.09499 1.00012C4.13699 1.00012 3.01999 1.56312 3.01999 3.18812V5.06312C3.02199 5.55512 3.19999 7.06312 3.89999 6.66012M3.89999 6.66012C4.09499 6.43012 4.32999 6.21012 4.61599 6.00012" stroke="#FFC145" stroke-width="1.5" stroke-linecap="round"/>
<path d="M11.826 12.0001C11.826 12.1731 11.465 12.3131 11.019 12.3131C10.574 12.3131 10.213 12.1731 10.213 12.0001C10.213 11.8271 10.574 11.6871 11.019 11.6871C11.465 11.6871 11.826 11.8271 11.826 12.0001ZM14.5 9.59411C14.5 10.0251 14.283 10.3751 14.016 10.3751C13.749 10.3751 13.532 10.0251 13.532 9.59411C13.532 9.16211 13.749 8.81311 14.016 8.81311C14.283 8.81311 14.5 9.16411 14.5 9.59411ZM8.49998 9.59411C8.49998 10.0251 8.28298 10.3751 8.01598 10.3751C7.74898 10.3751 7.53198 10.0251 7.53198 9.59411C7.53198 9.16211 7.74898 8.81311 8.01598 8.81311C8.28298 8.81311 8.49998 9.16411 8.49998 9.59411Z" stroke="#FFC145" stroke-width="1.5"/>
<path d="M21 11.4691C20.517 11.1561 18.42 10.3751 17.613 10.3751M19.387 13.9691C18.903 13.6561 17.774 12.8751 16.967 12.8751M1 11.4691C1.484 11.1561 3.58 10.3751 4.387 10.3751M2.613 13.9691C3.097 13.6561 4.226 12.8751 5.033 12.8751" stroke="#FFC145" stroke-width="1.5" stroke-linecap="round"/>
</svg>
