<svg width="109" height="106" viewBox="0 0 109 106" fill="none" xmlns="http://www.w3.org/2000/svg">
<path fill-rule="evenodd" clip-rule="evenodd" d="M49.7103 106C49.7103 74.9121 74.912 49.7103 106 49.7103C106.857 49.7103 107.71 49.7295 108.559 49.7675L108.559 21.9692C107.709 21.9438 106.856 21.931 106 21.931C59.57 21.931 21.931 59.57 21.931 106L49.7103 106Z" fill="#FFD55E"/>
<path fill-rule="evenodd" clip-rule="evenodd" d="M108.559 7.03238L108.559 0.0302734C107.708 0.0101319 106.855 1.48909e-07 106 2.23679e-07C102.493 5.30271e-07 99.0258 0.170319 95.6062 0.503114L95.9452 3.98665L96.2842 7.4702C99.4788 7.15929 102.72 7 106 7C106.856 7 107.708 7.01085 108.559 7.03238ZM7 106L0 106C-3.06591e-07 102.493 0.170318 99.0258 0.503112 95.6062L3.98665 95.9452L7.4702 96.2842C7.15929 99.4788 7 102.72 7 106ZM75.2194 4.53821C68.5156 6.56926 62.0926 9.24653 56.023 12.4975L57.6756 15.5828L59.3281 18.6681C64.9958 15.6325 70.9918 13.1332 77.2491 11.2375L76.2342 7.88785L75.2194 4.53821ZM38.7533 24.0578L40.9752 26.7621L43.197 29.4663C38.185 33.5843 33.5843 38.185 29.4663 43.1971L26.762 40.9752L24.0577 38.7533C28.4651 33.389 33.389 28.4652 38.7533 24.0578ZM12.4975 56.0231L15.5828 57.6756L18.6681 59.3282C15.6324 64.9958 13.1332 70.9919 11.2375 77.2491L7.88785 76.2343L4.53819 75.2194C6.56924 68.5156 9.2465 62.0927 12.4975 56.0231Z" fill="#FFD55E"/>
</svg>
