<svg width="110" height="106" viewBox="0 0 110 106" fill="none" xmlns="http://www.w3.org/2000/svg">
<path fill-rule="evenodd" clip-rule="evenodd" d="M59.3483 7.62939e-06C59.3483 31.0879 34.1466 56.2897 3.05865 56.2897C2.20115 56.2897 1.34813 56.2705 0.5 56.2325V84.0308C1.34976 84.0562 2.2027 84.069 3.05862 84.069C49.4886 84.069 87.1276 46.43 87.1276 0L59.3483 7.62939e-06Z" fill="#FFD55E"/>
<path fill-rule="evenodd" clip-rule="evenodd" d="M0.5 98.9676V105.97C1.35043 105.99 2.20332 106 3.05859 106C6.56559 106 10.0328 105.83 13.4524 105.497L13.1134 102.013L12.7744 98.5298C9.57976 98.8407 6.33882 99 3.05859 99C2.20302 99 1.35011 98.9892 0.5 98.9676ZM102.059 0H109.059C109.059 3.507 108.888 6.97421 108.555 10.3938L105.072 10.0548L101.588 9.7158C101.899 6.52117 102.059 3.28023 102.059 0ZM33.8392 101.462C40.543 99.4307 46.9659 96.7535 53.0355 93.5025L51.383 90.4172L49.7305 87.3319C44.0628 90.3676 38.0667 92.8668 31.8095 94.7625L32.8244 98.1122L33.8392 101.462ZM70.3053 81.9422L68.0834 79.2379L65.8615 76.5337C70.8736 72.4157 75.4743 67.815 79.5923 62.8029L82.2966 65.0248L85.0009 67.2467C80.5935 72.611 75.6696 77.5349 70.3053 81.9422ZM96.5611 49.9769L93.4758 48.3244L90.3905 46.6718C93.4261 41.0042 95.9254 35.0081 97.8211 28.7509L101.171 29.7657L104.52 30.7806C102.489 37.4844 99.8121 43.9073 96.5611 49.9769Z" fill="#FFD55E"/>
</svg>
