<svg width="23" height="23" viewBox="0 0 23 23" fill="none" xmlns="http://www.w3.org/2000/svg">
<path d="M9.24664 5.59156e-08C11.0042 -0.000193183 12.7255 0.500481 14.2088 1.44337C15.6921 2.38626 16.876 3.73231 17.6217 5.32384C18.3675 6.91538 18.6443 8.68648 18.4197 10.4297C18.1951 12.1729 17.4784 13.8159 16.3535 15.1664L22.7317 21.5446C22.8424 21.6474 22.9233 21.7781 22.9659 21.923C23.0085 22.0679 23.0112 22.2215 22.9738 22.3679C22.9364 22.5142 22.8602 22.6477 22.7533 22.7543C22.6464 22.861 22.5127 22.9368 22.3663 22.9738C22.2201 23.0112 22.0666 23.0085 21.9219 22.9661C21.7771 22.9237 21.6464 22.8431 21.5435 22.7328L15.1653 16.3546C14.024 17.3049 12.6706 17.9664 11.2195 18.283C9.76854 18.5997 8.26261 18.5622 6.82915 18.1738C5.39569 17.7853 4.07687 17.0574 2.98424 16.0515C1.89161 15.0456 1.05731 13.7913 0.551922 12.3948C0.046533 10.9983 -0.115081 9.5006 0.0807496 8.02842C0.276581 6.55623 0.824096 5.15287 1.67698 3.93704C2.52987 2.7212 3.66304 1.72866 4.98063 1.04337C6.29823 0.358076 7.76149 0.000196134 9.24664 5.59156e-08ZM1.68021 9.24783C1.68021 10.2415 1.87592 11.2254 2.25617 12.1434C2.63642 13.0614 3.19376 13.8955 3.89637 14.5981C4.59898 15.3007 5.43309 15.858 6.35109 16.2383C7.2691 16.6185 8.25301 16.8142 9.24664 16.8142C10.2403 16.8142 11.2242 16.6185 12.1422 16.2383C13.0602 15.858 13.8943 15.3007 14.5969 14.5981C15.2995 13.8955 15.8569 13.0614 16.2371 12.1434C16.6174 11.2254 16.8131 10.2415 16.8131 9.24783C16.8131 7.24109 16.0159 5.31655 14.5969 3.89757C13.1779 2.4786 11.2534 1.68142 9.24664 1.68142C7.2399 1.68142 5.31535 2.4786 3.89637 3.89757C2.47739 5.31655 1.68021 7.24109 1.68021 9.24783Z" fill="#024F2D"/>
</svg>
