<svg width="27" height="26" viewBox="0 0 27 26" fill="none" xmlns="http://www.w3.org/2000/svg">
<path d="M10.8548 6.32089e-08C12.918 -0.000218381 14.9387 0.565761 16.6799 1.63163C18.4211 2.69751 19.8109 4.21914 20.6864 6.01826C21.5619 7.81738 21.8868 9.8195 21.6231 11.7901C21.3594 13.7606 20.5181 15.618 19.1976 17.1447L26.685 24.3548C26.815 24.471 26.9099 24.6187 26.96 24.7825C27.01 24.9463 27.0132 25.12 26.9693 25.2854C26.9254 25.4508 26.8359 25.6017 26.7104 25.7223C26.5849 25.8428 26.4279 25.9286 26.2561 25.9704C26.0845 26.0126 25.9043 26.0096 25.7344 25.9617C25.5644 25.9137 25.411 25.8227 25.2902 25.698L17.8027 18.4879C16.4629 19.5621 14.8741 20.3098 13.1708 20.6678C11.4674 21.0257 9.69959 20.9833 8.01683 20.5442C6.33407 20.1051 4.78589 19.2822 3.50324 18.1451C2.22058 17.008 1.24119 15.5902 0.647908 14.0115C0.0546257 12.4328 -0.135096 10.7398 0.0947931 9.0756C0.324682 7.4114 0.967417 5.82499 1.96863 4.45056C2.96985 3.07614 4.30009 1.95413 5.84683 1.17946C7.39357 0.404782 9.11131 0.000221717 10.8548 6.32089e-08ZM1.97242 10.4541C1.97242 11.5773 2.20217 12.6895 2.64855 13.7273C3.09493 14.765 3.7492 15.7079 4.574 16.5022C5.3988 17.2964 6.37798 17.9265 7.45563 18.3563C8.53329 18.7862 9.68831 19.0074 10.8548 19.0074C12.0212 19.0074 13.1762 18.7862 14.2539 18.3563C15.3315 17.9265 16.3107 17.2964 17.1355 16.5022C17.9603 15.7079 18.6146 14.765 19.061 13.7273C19.5073 12.6895 19.7371 11.5773 19.7371 10.4541C19.7371 8.18558 18.8013 6.01001 17.1355 4.40595C15.4698 2.80189 13.2105 1.90074 10.8548 1.90074C8.49901 1.90074 6.23976 2.80189 4.574 4.40595C2.90824 6.01001 1.97242 8.18558 1.97242 10.4541Z" fill="#F3EBD4"/>
</svg>
