<svg width="42" height="42" viewBox="0 0 42 42" fill="none" xmlns="http://www.w3.org/2000/svg">
<circle cx="21" cy="21" r="21" fill="#F3EBD4"/>
<path d="M29.4 12H12.6C10.9032 12 10.0548 12 9.528 12.4807C9 12.9613 9 13.736 9 15.2842V16.0892C9 17.2991 9 17.9046 9.312 18.4062C9.624 18.9079 10.1916 19.2206 11.3304 19.8436L14.826 21.7569C15.5892 22.1746 15.972 22.3834 16.2456 22.6144C16.8144 23.094 17.1648 23.6586 17.3232 24.3528C17.4 24.6841 17.4 25.0738 17.4 25.852V28.967C17.4 30.0275 17.4 30.5584 17.7024 30.9714C18.0048 31.3855 18.5424 31.5897 19.6152 31.9981C21.87 32.8544 22.9968 33.2826 23.7984 32.7949C24.6 32.3084 24.6 31.1942 24.6 28.9659V25.8508C24.6 25.0738 24.6 24.6841 24.6768 24.3516C24.8275 23.6716 25.2071 23.0599 25.7556 22.6133C26.028 22.3834 26.4108 22.1746 27.174 21.7558L30.6696 19.8424C31.8072 19.2206 32.3772 18.9091 32.688 18.4074C33 17.9057 33 17.2991 33 16.088V15.283C33 13.736 33 12.9613 32.472 12.4807C31.9464 12 31.098 12 29.4 12Z" stroke="#024F2D" stroke-width="2"/>
</svg>
