<svg width="14" height="17" viewBox="0 0 14 17" fill="none" xmlns="http://www.w3.org/2000/svg">
<path d="M11.8105 4.31732L11.9857 4.13895L11.8105 4.31732C11.9137 4.41868 12.0445 4.46429 12.1817 4.46429H12.7272C12.8645 4.46429 12.9952 4.41868 13.0985 4.31732L12.9233 4.13895L13.0985 4.31732C13.202 4.21562 13.25 4.08498 13.25 3.94643V1.53571C13.25 1.32038 13.1668 1.13145 13.0132 0.98067C12.8598 0.829977 12.6695 0.75 12.4545 0.75H9.99972C9.86252 0.75 9.73173 0.795601 9.62851 0.896965C9.52495 0.998669 9.47697 1.12931 9.47697 1.26786V1.80357C9.47697 1.94212 9.52495 2.07276 9.62851 2.17446C9.73173 2.27583 9.86252 2.32143 9.99972 2.32143H10.5288L8.94662 3.86911C8.46608 3.52501 7.93387 3.26718 7.35137 3.09557C6.69307 2.90162 6.01157 2.84618 5.30908 2.92794C4.09818 3.06281 3.05935 3.57028 2.20122 4.4452C1.34298 5.32023 0.862433 6.36107 0.766733 7.55934L0.766713 7.55959C0.695124 8.46769 0.853494 9.32559 1.24274 10.1283C1.63054 10.9281 2.1883 11.5846 2.91352 12.0946C3.57767 12.5616 4.31184 12.8545 5.11293 12.9726V13.6071H4.54467C4.40747 13.6071 4.27668 13.6527 4.17346 13.7541C4.0699 13.8558 4.02192 13.9865 4.02192 14.125V14.6607C4.02192 14.7993 4.0699 14.9299 4.17346 15.0316C4.27668 15.133 4.40747 15.1786 4.54467 15.1786H5.11293V15.7321C5.11293 15.8707 5.16091 16.0013 5.26447 16.103L5.43964 15.9247L5.26447 16.103C5.36769 16.2044 5.49848 16.25 5.63568 16.25H6.18119C6.3184 16.25 6.44918 16.2044 6.5524 16.103L6.37723 15.9247L6.5524 16.103C6.65596 16.0013 6.70394 15.8707 6.70394 15.7321V15.1786H7.2722C7.40941 15.1786 7.54019 15.133 7.64341 15.0316C7.74697 14.9299 7.79495 14.7993 7.79495 14.6607V14.125C7.79495 13.9865 7.74697 13.8558 7.64341 13.7541C7.54019 13.6527 7.40941 13.6071 7.2722 13.6071H6.70394V12.9722C7.9001 12.795 8.91666 12.2535 9.74487 11.3519C10.6252 10.3936 11.068 9.2605 11.068 7.96429C11.068 6.86002 10.7366 5.86323 10.0779 4.98114L11.659 3.42233V3.94643C11.659 4.08498 11.707 4.21562 11.8105 4.31732ZM8.43096 10.4352C7.73068 11.1229 6.89443 11.4643 5.90844 11.4643C4.92245 11.4643 4.0862 11.1229 3.38591 10.4352C2.68577 9.74761 2.3399 8.92848 2.3399 7.96429C2.3399 7.00009 2.68577 6.18096 3.38591 5.49338C4.0862 4.80567 4.92245 4.46429 5.90844 4.46429C6.89443 4.46429 7.73068 4.80567 8.43096 5.49338C9.1311 6.18096 9.47697 7.00009 9.47697 7.96429C9.47697 8.92848 9.1311 9.74761 8.43096 10.4352Z" fill="#FFC145" stroke="#FFC041" stroke-width="0.5"/>
</svg>
