<svg width="108" height="114" viewBox="0 0 108 114" fill="none" xmlns="http://www.w3.org/2000/svg">
<path d="M47.9971 112.57H50.9668L52.2107 108.341L52.1659 92.3148L64.9263 98.4845L74.4442 95.7175L80.1857 88.957L80.5854 81.2131L74.6983 73.7759L67.0742 71.5174L52.3527 77.0814L52.5917 59.6979L61.9416 63.8596L70.7424 64.5999L77.9295 60.3821L81 52.7804L78.4039 44.5616L71.5642 39.9474L60.7388 41.0617L52.1734 44.3335L52.136 31.9493L53.9589 28.2064L67.3282 27.8773L72.8567 25.8357L74.9 22.0816L74.2612 14.319L71.101 11.896L67.231 10.4714L57.3059 3.25849L53.0475 1L29.7381 1.2169L23.7838 2.99676L18.0834 7.91381L16.7947 9.3459L10.6312 9.70111L7.86317 13.1187L5.39029 19.8867L10.0148 27.3015L27.2876 27.4585L30.0668 30.3901L28.2925 44.3784L17.553 40.1905L8.614 39.9886L1.72953 45.5188L0 54.1676L3.68691 61.1187L9.85791 63.4333H20.8103L24.049 58.6471L28.0609 59.4212L27.4333 75.9745L18.6699 72.6205L11.0794 71.9624L3.10044 75.896L0 83.5053L2.01341 91.6941L9.39471 97.0935L14.3405 97.5123L20.1529 96.155L28.3261 92.3073L28.2887 108.326L30.4516 113L47.9971 112.57Z" fill="#024226"/>
<path d="M101 62C101 61.4477 100.552 61 100 61C99.4477 61 99 61.4477 99 62L101 62ZM99.2929 113.707C99.6834 114.098 100.317 114.098 100.707 113.707L107.071 107.343C107.462 106.953 107.462 106.319 107.071 105.929C106.681 105.538 106.047 105.538 105.657 105.929L100 111.586L94.3431 105.929C93.9526 105.538 93.3195 105.538 92.9289 105.929C92.5384 106.319 92.5384 106.953 92.9289 107.343L99.2929 113.707ZM99 62L99 113L101 113L101 62L99 62Z" fill="#024F2D"/>
<path d="M99 52C99 52.5523 99.4477 53 100 53C100.552 53 101 52.5523 101 52L99 52ZM100.707 0.292892C100.317 -0.0976295 99.6834 -0.0976296 99.2929 0.292892L92.9289 6.65685C92.5384 7.04738 92.5384 7.68054 92.9289 8.07107C93.3195 8.46159 93.9526 8.46159 94.3431 8.07107L100 2.41422L105.657 8.07107C106.047 8.46159 106.681 8.46159 107.071 8.07107C107.462 7.68054 107.462 7.04738 107.071 6.65685L100.707 0.292892ZM101 52L101 1L99 1L99 52L101 52Z" fill="#024F2D"/>
</svg>
