<svg id="Line_Icon" height="512" viewBox="0 0 64 64" width="512" xmlns="http://www.w3.org/2000/svg" data-name="Line Icon"><path d="m41.229 51.409c-.624-1.905-2.675-9.2.786-13.244l2.876-.35c8.009-.973 15.309-8.315 16.28-16.37l.21-1.747a.751.751 0 0 0 -.836-.834l-3.153.384c-7.027.852-13.507 6.612-15.646 13.452-1.646-7.4-8.566-13.862-16.109-14.769l-1.746-.21a.751.751 0 0 0 -.834.836l.383 3.153c.973 8.008 8.317 15.311 16.371 16.28l.41.05c-2.908 4.427-1.329 10.926-.566 13.383-8.8.292-16.593 4.271-19.581 10.1a.75.75 0 0 0 .667 1.092h39.9a.75.75 0 0 0 .667-1.092c-3.049-5.938-11.074-9.958-20.079-10.114zm16.344-30.673 2.2-.267-.1.8c-.89 7.409-7.607 14.165-14.972 15.061l-1.386.168c1.623-2.067 4.827-5.913 7.678-7.922a.75.75 0 1 0 -.863-1.226 42.1 42.1 0 0 0 -7.362 7.421c1.364-6.998 7.784-13.18 14.805-14.035zm-32.644.792-.268-2.2.8.1c7.41.89 14.166 7.605 15.062 14.971l.054.445a42.367 42.367 0 0 0 -7.418-7.49.75.75 0 1 0 -.863 1.226c2.852 2.009 6.056 5.856 7.679 7.924-7.406-.904-14.152-7.618-15.046-14.976zm-2.883 39.59c3.254-4.964 10.546-8.218 18.642-8.218s15.385 3.259 18.643 8.223z"/><path d="m17.927 1.25h-14.563a.75.75 0 0 0 -.75.75v60a.75.75 0 0 0 .75.75h14.563a.75.75 0 0 0 .75-.75v-60a.75.75 0 0 0 -.75-.75zm-13.813 60v-58.5h13.063v4.537h-2.962a.75.75 0 0 0 0 1.5h2.962v6.487h-6.531a.75.75 0 0 0 0 1.5h6.531v6.489h-2.962a.75.75 0 0 0 0 1.5h2.962v6.487h-6.531a.75.75 0 0 0 0 1.5h6.531v6.487h-2.962a.75.75 0 1 0 0 1.5h2.962v6.489h-6.531a.75.75 0 0 0 0 1.5h6.531v6.487h-2.962a.75.75 0 1 0 0 1.5h2.962v4.537z"/></svg>