<?xml version="1.0" encoding="UTF-8"?><svg id="Calque_1" xmlns="http://www.w3.org/2000/svg" viewBox="0 0 57.58 57.97"><defs><style>.cls-1{fill:#f6c459;}.cls-1,.cls-2,.cls-3,.cls-4{stroke-width:0px;}.cls-2{fill:#737272;}.cls-3{fill:#fcd464;}.cls-4{fill:#a6a5a5;}</style></defs><path class="cls-2" d="m3.17,31.47c1.06-.06,2.13,0,3.2-.01,1.48,0,2.52-1.03,2.53-2.45,0-1.46-1.03-2.49-2.53-2.5-1.07,0-2.14.05-3.2-.01-1.52-.09-2.62.43-3.17,1.92v1.13c.55,1.49,1.65,2.01,3.17,1.92Z"/><path class="cls-2" d="m26.33,6.36c0,1.54,1,2.6,2.43,2.61,1.46.01,2.48-1.05,2.49-2.61,0-1.06-.05-2.11.01-3.17.09-1.53-.43-2.64-1.91-3.19h-1.12c-1.48.55-2,1.66-1.91,3.19.06,1.05,0,2.11.01,3.17Z"/><path class="cls-4" d="m35.53,32.47c1.14-2.22,1.89-4.58,2.22-7.06.23-1.75.21-3.52.05-5.29-.16-1.9-.54-3.74-1.11-5.55-.03-.08,0-.14.07-.19-.25-.13-.49-.26-.74-.38-4-1.92-8.13-2.23-12.33-.86-7.55,2.46-12.27,9.76-11.32,17.7.21,1.77.63,3.39,1.24,4.86h19.92c.73-1.02,1.41-2.09,1.99-3.22Z"/><path class="cls-3" d="m23.41,44.21c2.48-1.19,4.71-2.73,6.73-4.61,1.28-1.19,2.4-2.5,3.4-3.9H13.62c1.68,4.05,4.83,7,9.32,8.87.05-.25.29-.28.47-.36Z"/><path class="cls-1" d="m33.54,35.69c-1,1.4-2.12,2.71-3.4,3.9-2.02,1.89-4.25,3.42-6.73,4.61-.17.08-.41.11-.47.36,2.82,1.1,5.73,1.35,8.7.84,5.45-.93,10.09-4.61,12.31-9.71h-10.41Z"/><path class="cls-2" d="m37.81,20.12c.15,1.77.18,3.54-.05,5.29-.33,2.47-1.08,4.84-2.22,7.06-.58,1.14-1.26,2.2-1.99,3.22h10.41c.7-1.6,1.16-3.33,1.33-5.17.33-3.56-.39-6.93-2.23-10.02-1.55-2.61-3.61-4.69-6.29-6.13-.07.05-.1.11-.07.19.56,1.81.94,3.66,1.11,5.55Z"/><path class="cls-2" d="m48.67,28.96c0,1.41,1.02,2.47,2.43,2.49.65.01,1.31,0,1.97,0,.69,0,1.39.01,2.08,0,1.38-.04,2.42-1.1,2.43-2.45,0-1.38-1.04-2.47-2.45-2.49-1.35-.02-2.7-.02-4.04,0-1.38.02-2.41,1.07-2.41,2.45Z"/><path class="cls-1" d="m28.72,49c-1.35.02-2.37,1.06-2.39,2.47-.01.66,0,1.32,0,1.98,0,.7-.02,1.4,0,2.09.05,1.36,1.09,2.4,2.41,2.42,1.35.02,2.45-1,2.5-2.38.04-1.39.04-2.79,0-4.18-.04-1.43-1.11-2.42-2.52-2.4Z"/><path class="cls-2" d="m11.33,14.87c.95.93,2.53.9,3.45-.04.89-.91.9-2.48-.01-3.43-.95-.99-1.93-1.95-2.9-2.92-.46-.46-1.01-.7-1.48-.69-1.23,0-2,.44-2.44,1.39-.43.91-.26,2,.44,2.73.97,1,1.94,1.99,2.94,2.96Z"/><path class="cls-2" d="m46.19,14.92c1.03-.99,2.04-2,3.02-3.04.73-.77.83-1.72.43-2.68-.41-.96-1.2-1.41-2.48-1.42-.41-.02-.97.22-1.43.68-.99.98-1.98,1.96-2.94,2.96-.91.95-.88,2.51.03,3.43.9.9,2.43.96,3.36.07Z"/><path class="cls-1" d="m14,42.61c-.99-.37-1.92-.25-2.7.52-.96.95-1.92,1.91-2.86,2.88-.94.97-.95,2.53-.03,3.47.91.94,2.48.96,3.45.02.98-.96,1.94-1.94,2.9-2.92.45-.46.7-1.02.68-1.64,0-1.09-.53-1.99-1.43-2.33Z"/><path class="cls-1" d="m46.28,43.13c-.47-.47-1.04-.72-1.47-.71-1.29,0-2.08.47-2.48,1.43-.4.96-.3,1.9.44,2.68.96,1.01,1.94,1.99,2.94,2.96.96.94,2.53.92,3.45,0,.92-.93.92-2.5-.02-3.47-.94-.97-1.9-1.92-2.86-2.88Z"/></svg>