<?xml version="1.0" encoding="UTF-8"?><svg id="Calque_1" xmlns="http://www.w3.org/2000/svg" viewBox="0 0 58.95 71.3"><defs><style>.cls-1{fill:#f6c459;}.cls-1,.cls-2{stroke-width:0px;}.cls-2{fill:#fcd464;}</style></defs><path class="cls-1" d="m.54,37.17c.55-1.5,1.67-2.02,3.2-1.93,1.08.06,2.16,0,3.24.01,1.52,0,2.57,1.05,2.56,2.51,0,1.43-1.07,2.45-2.56,2.46-1.08,0-2.16-.05-3.24.01-1.53.09-2.65-.43-3.2-1.93v-1.14Z"/><path class="cls-1" d="m30.2,8.64c1.5.55,2.02,1.67,1.93,3.2-.06,1.06,0,2.12-.01,3.18-.01,1.57-1.03,2.63-2.52,2.62-1.44-.01-2.45-1.08-2.46-2.62,0-1.06.05-2.12-.01-3.18-.09-1.54.43-2.65,1.93-3.2h1.14Z"/><path class="cls-2" d="m23.72,53.38c-6.19-2.56-9.88-7.12-10.68-13.79-.96-7.96,3.81-15.29,11.44-17.76,4.25-1.38,8.42-1.06,12.46.86.25.12.5.25.75.38-.07.05-.1.11-.07.19.57,1.82.95,3.67,1.12,5.57.15,1.78.18,3.55-.05,5.31-.33,2.48-1.09,4.86-2.25,7.08-1.4,2.7-3.21,5.08-5.45,7.15-2.04,1.89-4.3,3.43-6.8,4.63-.18.08-.42.11-.47.36Z"/><path class="cls-1" d="m23.72,53.38c.05-.25.29-.28.47-.36,2.5-1.2,4.76-2.74,6.8-4.63,2.24-2.08,4.05-4.45,5.45-7.15,1.15-2.23,1.91-4.6,2.25-7.08.24-1.76.21-3.53.05-5.31-.17-1.9-.55-3.76-1.12-5.57-.03-.08,0-.15.07-.19,2.71,1.44,4.79,3.53,6.36,6.15,1.85,3.1,2.58,6.49,2.25,10.06-.72,7.74-6.56,13.72-13.79,14.94-3.01.51-5.94.26-8.79-.84Z"/><path class="cls-1" d="m54.17,40.22c-.66,0-1.32.01-1.99,0-1.42-.03-2.46-1.09-2.45-2.5,0-1.38,1.04-2.44,2.44-2.46,1.36-.02,2.72-.02,4.09,0,1.42.02,2.48,1.12,2.47,2.5,0,1.36-1.07,2.42-2.46,2.46-.7.02-1.4,0-2.1,0Z"/><path class="cls-1" d="m27.15,62.3c0-.66,0-1.32,0-1.99.02-1.42,1.05-2.46,2.42-2.48,1.43-.02,2.51.97,2.54,2.41.04,1.4.04,2.8,0,4.2-.04,1.38-1.16,2.41-2.52,2.39-1.33-.02-2.38-1.06-2.43-2.43-.02-.7,0-1.4,0-2.1Z"/><path class="cls-1" d="m11.04,16.46c.47-.01,1.03.23,1.49.69.98.97,1.97,1.94,2.93,2.93.92.95.92,2.53.01,3.44-.92.94-2.52.97-3.48.04-1-.98-1.99-1.97-2.97-2.97-.71-.73-.89-1.82-.45-2.74.45-.95,1.23-1.4,2.47-1.39Z"/><path class="cls-1" d="m48.19,16.46c1.3,0,2.09.46,2.5,1.42.41.96.3,1.92-.43,2.69-.99,1.04-2.01,2.06-3.05,3.05-.94.89-2.49.83-3.4-.07-.92-.92-.95-2.49-.03-3.44.97-1.01,1.97-1.99,2.97-2.97.46-.46,1.03-.7,1.44-.68Z"/><path class="cls-1" d="m16.13,53.76c.02.62-.22,1.18-.68,1.64-.97.98-1.94,1.97-2.93,2.93-.98.94-2.56.92-3.48-.02-.93-.94-.92-2.51.03-3.48.95-.98,1.92-1.94,2.89-2.89.79-.77,1.73-.89,2.73-.52.92.34,1.46,1.24,1.45,2.34Z"/><path class="cls-1" d="m45.83,51.23c.43-.02,1,.23,1.48.71.97.96,1.94,1.92,2.89,2.89.95.97.95,2.55.02,3.49-.93.94-2.51.95-3.48,0-1-.98-2-1.96-2.97-2.97-.74-.78-.85-1.73-.45-2.69.4-.96,1.2-1.42,2.5-1.43Z"/></svg>