<?xml version="1.0" encoding="UTF-8"?><svg id="Calque_1" xmlns="http://www.w3.org/2000/svg" viewBox="0 0 58.95 71.3"><defs><style>.cls-1{fill:#f6c459;}.cls-1,.cls-2,.cls-3,.cls-4{stroke-width:0px;}.cls-2{fill:#fcd464;}.cls-3{fill:#727172;}.cls-4{fill:#a6a5a5;}</style></defs><path class="cls-1" d="m9.62,37.82c0-1.46-1.04-2.49-2.55-2.5-1.08,0-2.15.05-3.23-.01-1.53-.09-2.64.43-3.19,1.92v1.13c.55,1.49,1.66,2.01,3.19,1.92,1.07-.06,2.15,0,3.23-.01,1.49,0,2.54-1.03,2.55-2.45Z"/><path class="cls-3" d="m27.18,15.15c0,1.54,1.01,2.6,2.45,2.61,1.48.01,2.5-1.05,2.51-2.61,0-1.06-.05-2.12.01-3.17.09-1.53-.43-2.64-1.92-3.19h-1.13c-1.49.55-2.02,1.66-1.92,3.19.06,1.05,0,2.11.01,3.17Z"/><path class="cls-4" d="m38.69,34.22c.24-1.75.21-3.52.05-5.29-.16-1.9-.55-3.74-1.12-5.56-.03-.08,0-.14.07-.19-.25-.13-.5-.26-.75-.38-4.03-1.92-8.19-2.23-12.42-.86-6.19,2-10.49,7.21-11.36,13.36h25.33c.07-.36.14-.71.19-1.07Z"/><path class="cls-2" d="m24.24,53.02c2.49-1.19,4.74-2.73,6.78-4.62,2.23-2.07,4.04-4.44,5.43-7.13.98-1.89,1.66-3.9,2.05-5.99H13.16c-.2,1.41-.22,2.87-.04,4.35.8,6.64,4.48,11.19,10.65,13.74.05-.25.29-.28.47-.36Z"/><path class="cls-3" d="m38.74,28.93c.15,1.77.18,3.54-.05,5.29-.05.36-.13.72-.19,1.07h7.69c-.3-2.09-1.01-4.09-2.15-5.99-1.56-2.61-3.63-4.7-6.34-6.13-.07.05-.1.11-.07.19.57,1.81.95,3.66,1.12,5.56Z"/><path class="cls-1" d="m46.18,35.29h-7.69c-.39,2.08-1.07,4.09-2.05,5.99-1.39,2.69-3.2,5.06-5.43,7.13-2.04,1.89-4.29,3.42-6.78,4.62-.18.08-.42.11-.47.36,2.84,1.1,5.77,1.35,8.76.84,7.21-1.22,13.02-7.18,13.75-14.89.13-1.38.09-2.72-.1-4.04Z"/><path class="cls-1" d="m56.19,35.32c-1.36-.02-2.72-.02-4.07,0-1.4.02-2.43,1.08-2.43,2.45,0,1.41,1.03,2.47,2.44,2.5.66.01,1.32,0,1.98,0,.7,0,1.4.01,2.09,0,1.39-.04,2.44-1.1,2.45-2.45,0-1.38-1.05-2.47-2.46-2.49Z"/><path class="cls-1" d="m29.59,57.82c-1.36.02-2.39,1.06-2.41,2.48-.01.66,0,1.32,0,1.98,0,.7-.02,1.4,0,2.09.05,1.36,1.1,2.4,2.42,2.42,1.36.02,2.47-1,2.51-2.38.04-1.39.04-2.79,0-4.19-.04-1.43-1.11-2.42-2.54-2.4Z"/><path class="cls-3" d="m12.06,23.66c.96.93,2.55.9,3.47-.04.9-.91.91-2.48-.01-3.43-.96-.99-1.94-1.95-2.92-2.92-.46-.46-1.02-.7-1.49-.69-1.24,0-2.01.44-2.46,1.39-.44.91-.26,2,.45,2.73.97,1,1.96,1.99,2.96,2.96Z"/><path class="cls-3" d="m47.18,23.72c1.04-.99,2.06-2,3.04-3.04.73-.77.84-1.72.43-2.68-.41-.96-1.2-1.41-2.5-1.42-.41-.02-.97.22-1.44.68-.99.98-1.99,1.96-2.96,2.96-.92.95-.89,2.51.03,3.43.9.9,2.45.96,3.39.07Z"/><path class="cls-1" d="m14.75,51.43c-1-.37-1.93-.25-2.72.52-.97.95-1.93,1.91-2.88,2.88-.95.97-.95,2.53-.03,3.47.92.94,2.5.96,3.47.02.99-.96,1.95-1.94,2.92-2.92.46-.46.7-1.02.68-1.64,0-1.09-.53-1.99-1.45-2.33Z"/><path class="cls-1" d="m47.28,51.94c-.48-.48-1.05-.72-1.48-.71-1.3,0-2.09.47-2.5,1.43-.4.96-.3,1.91.44,2.68.96,1.01,1.96,1.99,2.96,2.96.97.94,2.55.92,3.47,0,.92-.93.92-2.5-.02-3.47-.95-.97-1.92-1.92-2.88-2.88Z"/></svg>