<svg id="Line_icon" height="512" viewBox="0 0 64 64" width="512" xmlns="http://www.w3.org/2000/svg" data-name="Line icon"><g fill="rgb(0,0,0)"><path d="m54.051 31.044a9.5 9.5 0 0 0 1.478-5.093 9.716 9.716 0 0 0 -9.7-9.711 9.566 9.566 0 0 0 -8.039 4.36 11.832 11.832 0 0 0 -10.053-5.358c-5.877 0-10.756 4.062-11.509 9.306a12.37 12.37 0 0 0 -3.617-.53c-6.403.004-11.611 4.81-11.611 10.716 0 5.334 4.319 9.856 9.969 10.6a9.421 9.421 0 0 0 9.365 7.006 10.006 10.006 0 0 0 6.4-2.284 10.253 10.253 0 0 0 7.59 1.035 9.772 9.772 0 0 0 7.637 3.516 9.487 9.487 0 0 0 9.116-6.181 10.312 10.312 0 0 0 2.359.27c5.274.004 9.564-3.967 9.564-8.841 0-4.682-3.962-8.516-8.949-8.811zm-8.22-12.8a7.713 7.713 0 0 1 7.7 7.711 7.515 7.515 0 0 1 -1.29 4.225 9.429 9.429 0 0 0 -9.351-7 10.233 10.233 0 0 0 -3.752.709 9.887 9.887 0 0 0 -.292-1.054 7.59 7.59 0 0 1 6.985-4.595zm7.607 28.456a8.107 8.107 0 0 1 -2.726-.461 1 1 0 0 0 -1.316.75 7.363 7.363 0 0 1 -7.433 5.622 7.7 7.7 0 0 1 -6.428-3.24 1 1 0 0 0 -1.158-.381 7.744 7.744 0 0 1 -2.568.417 8.024 8.024 0 0 1 -4.609-1.428 1 1 0 0 0 -1.279.115 7.913 7.913 0 0 1 -5.585 2.245c-3.85 0-7.084-2.6-7.521-6.052a1 1 0 0 0 -.924-.872c-4.991-.338-8.891-4.15-8.891-8.681 0-4.8 4.312-8.712 9.611-8.712a10.235 10.235 0 0 1 4.116.842 1 1 0 0 0 1.4-.915c.011-4.8 4.323-8.7 9.611-8.7 5.083 0 9.3 3.6 9.6 8.2a1 1 0 0 0 1.5.8 8.168 8.168 0 0 1 4.055-1.067c4.17 0 7.562 3.067 7.562 6.911a1 1 0 0 0 .3.883.988.988 0 0 0 .907.245 8 8 0 0 1 1.777-.2c4.169 0 7.562 3.068 7.562 6.839s-3.394 6.84-7.563 6.84z"/><path d="m46.717 13.25v-2.856a1 1 0 1 0 -2 0v2.856a1 1 0 0 0 2 0z"/><path d="m39.37 15.951a1 1 0 0 0 .865-1.5l-1.428-2.473a1 1 0 1 0 -1.733 1l1.426 2.473a1 1 0 0 0 .87.5z"/><path d="m57.415 25.947a1 1 0 0 0 1 1h2.856a1 1 0 0 0 0-2h-2.856a1 1 0 0 0 -1 1z"/><path d="m58.687 17.305-2.473 1.427a1 1 0 1 0 1 1.733l2.473-1.428a1 1 0 0 0 -1-1.732z"/><path d="m52.065 15.951a1 1 0 0 0 .867-.5l1.428-2.473a1 1 0 1 0 -1.732-1l-1.428 2.473a1 1 0 0 0 .865 1.5z"/></g></svg>