<svg id="line_icon" height="512" viewBox="0 0 64 64" width="512" xmlns="http://www.w3.org/2000/svg" data-name="line icon"><path d="m29.154 1.27a4.9 4.9 0 0 0 -5.338 4.881v40.209a8.919 8.919 0 0 0 4.884 16.388 8.925 8.925 0 0 0 4.919-16.388v-39.994a5.049 5.049 0 0 0 -4.465-5.096zm7 52.548a7.432 7.432 0 1 1 -11.2-6.4.748.748 0 0 0 .368-.646v-40.621a3.409 3.409 0 0 1 1.1-2.507 3.365 3.365 0 0 1 2.295-.894c.1 0 .205 0 .309.014a3.54 3.54 0 0 1 3.095 3.6v40.41a.75.75 0 0 0 .368.646 7.467 7.467 0 0 1 3.66 6.398z"/><path d="m29.468 50.811v-33.52a.75.75 0 0 0 -1.5 0v33.52a3.552 3.552 0 1 0 1.5 0zm-.75 5.519a2.051 2.051 0 1 1 2.052-2.051 2.054 2.054 0 0 1 -2.052 2.051z"/><path d="m36.9 11.985h6.565a.75.75 0 0 0 0-1.5h-6.565a.75.75 0 0 0 0 1.5z"/><path d="m36.9 18.044h3.752a.75.75 0 0 0 0-1.5h-3.752a.75.75 0 0 0 0 1.5z"/><path d="m36.9 24.1h3.752a.75.75 0 0 0 0-1.5h-3.752a.75.75 0 0 0 0 1.5z"/><path d="m36.9 31.3h6.565a.75.75 0 0 0 0-1.5h-6.565a.75.75 0 0 0 0 1.5z"/><path d="m36.9 37.357h3.752a.75.75 0 1 0 0-1.5h-3.752a.75.75 0 0 0 0 1.5z"/><path d="m36.9 43.415h3.752a.75.75 0 0 0 0-1.5h-3.752a.75.75 0 0 0 0 1.5z"/></svg>