<svg width="28" height="39" viewBox="0 0 28 39" fill="none" xmlns="http://www.w3.org/2000/svg">
<path d="M19.3826 10.7137C18.2068 10.8198 17.3398 11.3738 16.8885 12.4817C16.6034 13.1889 16.0333 13.4246 15.3445 13.4364C14.4537 13.4599 13.5511 13.4482 12.6603 13.4364C11.9239 13.4246 11.3895 13.1299 11.0807 12.411C10.5937 11.2795 9.70295 10.6902 8.45587 10.7491C5.83109 10.8905 5.78358 10.0183 5.86672 8.01468C6.03299 4.24306 8.70529 1.00183 12.399 0.165004C12.6009 0.117859 12.8266 0.129645 13.0403 0.117859C13.0879 0.153218 13.1235 0.200363 13.171 0.212149C16.449 1.11969 18.5156 3.1823 19.2638 6.48246C19.5726 7.87324 19.3232 9.31117 19.3945 10.7255L19.3826 10.7137ZM12.6722 7.08356C12.6959 6.38817 12.0783 5.76349 11.3538 5.73992C10.5462 5.71635 9.94048 6.27031 9.94048 7.0482C9.94048 7.76716 10.5225 8.39184 11.2351 8.41541C11.9833 8.43898 12.6603 7.8261 12.6722 7.08356ZM16.7459 5.73992C16.0096 5.72814 15.3801 6.29388 15.3326 7.00106C15.2851 7.72002 15.9383 8.39184 16.6865 8.41541C17.4348 8.43898 18.0761 7.80252 18.0761 7.0482C18.0761 6.30566 17.5179 5.75171 16.7459 5.73992Z" fill="#35CB6A"/>
<path d="M5.70068 39.0126C5.93822 37.1622 6.152 35.3117 6.4133 33.4613C6.5677 32.3534 7.51784 31.8348 8.28984 31.2455C11.9123 28.4639 15.5585 25.7177 19.1928 22.9479C19.4066 22.7829 19.6204 22.6179 19.7985 22.4175C21.2 20.9089 22.9815 21.2153 24.7156 21.4628C25.8082 21.6161 26.9128 21.5571 27.9817 21.8989C27.756 23.5137 26.4377 24.5155 24.8462 24.2916C24.5018 24.2444 24.1336 24.2562 23.8129 24.1501C22.6609 23.7494 21.7938 24.1973 20.9743 24.9516C20.2023 25.6588 19.2641 26.1656 18.5396 26.9199C17.8982 27.3913 17.245 27.851 16.6036 28.3225C16.283 28.5582 16.4017 28.7468 16.663 28.9471C17.8745 29.8429 19.074 30.7387 20.2736 31.6462C20.9031 32.1294 21.5088 32.6598 21.6276 33.4849C21.8889 35.3353 22.1026 37.1858 22.3283 39.0244C20.7487 39.1659 19.656 38.3526 19.3828 36.8204C19.2759 36.2429 19.1097 35.6535 19.1334 35.076C19.1691 34.251 18.694 33.8267 18.1001 33.4024C16.8649 32.4948 15.6416 31.5519 14.4421 30.5972C14.1214 30.3497 13.9432 30.3497 13.6226 30.5972C12.2923 31.6462 10.9503 32.707 9.56067 33.6852C8.77679 34.2274 9.03808 35.0289 8.83618 35.7125C8.72929 36.0661 8.74116 36.455 8.6699 36.8204C8.37298 38.3644 7.30406 39.1659 5.72444 39.0244L5.70068 39.0126Z" fill="#2A9B50"/>
<path d="M22.3044 39.0127C22.0669 37.1622 21.8531 35.3118 21.6037 33.4731C21.4849 32.6481 20.8792 32.1177 20.2497 31.6344C19.0502 30.7269 17.8506 29.8311 16.6391 28.9354C16.3779 28.735 16.2591 28.5464 16.5798 28.3107C17.2211 27.8393 17.8743 27.3678 18.5157 26.9081C19.6796 27.8157 20.8317 28.7586 22.0194 29.619C22.7082 30.1258 23.4802 29.5365 24.2166 29.5836C24.5848 29.6072 24.9648 29.4893 25.3449 29.4893C26.7464 29.4893 27.9103 30.5619 27.9934 31.9055C28.0884 33.3788 27.1027 34.6046 25.6656 34.805C24.9213 34.9071 24.5967 35.3196 24.6917 36.0425C24.8936 37.5158 23.8009 38.8712 22.2925 39.0009L22.3044 39.0127Z" fill="#35CB6A"/>
<path d="M0.0356445 21.8872C1.23521 21.5454 2.48228 21.5925 3.7056 21.4275C4.15692 21.3686 4.62012 21.345 5.07144 21.2625C6.38977 20.9914 7.33992 21.7457 8.29007 22.4647C9.27585 23.219 10.2498 23.9851 11.2355 24.7277C11.6987 25.0812 11.7462 25.3288 11.188 25.647C10.5942 25.977 10.2141 26.6606 9.454 26.7431C8.46822 26.0006 7.44681 25.2816 6.49666 24.4801C5.93845 24.0087 5.39211 23.9498 4.70325 24.0323C3.77686 24.1501 2.85046 24.4919 1.90031 24.1501C0.807641 23.773 0.142536 23.054 0.0356445 21.8754V21.8872Z" fill="#2A9B50"/>
<path d="M19.3829 10.7137C19.3117 9.29938 19.573 7.87324 19.2523 6.47067C18.5159 3.18229 16.4375 1.1079 13.1595 0.20036C13.1119 0.188574 13.0763 0.141428 13.0288 0.106069C15.2735 -0.282878 17.257 0.377154 18.9791 1.76794C21.3901 3.73625 22.2928 6.37638 22.1265 9.41724C22.079 10.1834 21.5445 10.6902 20.7488 10.7373C20.2975 10.7609 19.8343 10.7373 19.3711 10.7137H19.3829Z" fill="#2A9B50"/>
<path d="M8.9197 18.8463C8.90782 18.1509 8.75342 17.4555 8.62278 16.7719C8.36148 15.4518 6.94814 14.4618 5.66543 14.6857C4.12144 14.9568 3.07628 16.3004 3.31381 17.7501C3.42466 18.4495 3.11982 18.8581 2.39929 18.9759C1.48478 19.1291 0.819671 19.5534 0.427734 20.1781H9.66794C9.20474 19.8245 8.93157 19.4709 8.9197 18.8463Z" fill="#35CB6A"/>
<path d="M25.607 18.9759C24.8865 18.8581 24.5817 18.4495 24.6925 17.7502C24.9182 16.3004 23.873 14.9568 22.329 14.6975C21.0582 14.4736 19.6448 15.4754 19.3836 16.7837C19.3004 17.2316 19.3242 17.703 19.1935 18.1391C18.9916 18.7756 19.2767 19.5299 18.5641 20.0485C18.5047 20.0956 18.4453 20.1428 18.374 20.1899H27.5786C27.1867 19.5652 26.5216 19.1409 25.607 18.9877V18.9759Z" fill="#35CB6A"/>
<path d="M18.3734 20.1782C17.0551 21.1329 15.7724 22.1347 14.5016 23.1365C14.1334 23.4312 13.884 23.4194 13.5158 23.1365C12.2687 22.1465 11.0098 21.1682 9.72708 20.2253C9.70333 20.2135 9.69145 20.2017 9.67958 20.1782H0.427495C0.14245 20.6378 -7.27528e-05 21.2154 0.0355579 21.899C1.23512 21.5572 2.48219 21.6043 3.70551 21.4393C4.15683 21.3804 4.62003 21.3568 5.07135 21.2743C6.38968 21.0032 7.33983 21.7575 8.28998 22.4765C9.27576 23.2308 10.2497 23.9969 11.2354 24.7395C11.6986 25.093 11.7462 25.3406 11.1879 25.6588C10.5941 25.9888 10.214 26.6724 9.45392 26.7549C9.50142 27.0731 9.24013 27.1556 9.0501 27.2971C8.21872 27.9453 7.36359 28.5582 6.55596 29.23C5.99775 29.6897 5.46329 29.9254 4.71505 29.7015C4.1212 29.5365 3.47985 29.5129 2.86225 29.4893C1.33014 29.4422 0.118696 30.4794 0.0118041 31.882C-0.106965 33.426 0.914446 34.6399 2.49407 34.8167C3.15917 34.8953 3.4363 35.2764 3.32545 35.96C3.07604 37.4922 4.15683 38.8712 5.70083 39.0127C5.93836 37.1622 6.15215 35.3118 6.41344 33.4613C6.56784 32.3534 7.51799 31.8348 8.28998 31.2455C11.9124 28.4639 15.5586 25.7177 19.1929 22.9479C19.4067 22.7829 19.6205 22.6179 19.7987 22.4176C21.2001 20.9089 22.9817 21.2154 24.7157 21.4629C25.8084 21.6161 26.9129 21.5572 27.9818 21.899C28.0175 21.2271 27.8749 20.6496 27.5899 20.1782H18.3853H18.3734Z" fill="#35CB6A"/>
</svg>
