<svg width="17" height="22" viewBox="0 0 17 22" fill="none" xmlns="http://www.w3.org/2000/svg">
<path d="M0.833374 21.0833C0.833374 19.05 1.64111 17.1 3.07889 15.6622C4.51667 14.2244 6.46671 13.4167 8.50004 13.4167C10.5334 13.4167 12.4834 14.2244 13.9212 15.6622C15.359 17.1 16.1667 19.05 16.1667 21.0833H14.25C14.25 19.5583 13.6442 18.0958 12.5659 17.0175C11.4876 15.9391 10.025 15.3333 8.50004 15.3333C6.97505 15.3333 5.51251 15.9391 4.43418 17.0175C3.35584 18.0958 2.75004 19.5583 2.75004 21.0833H0.833374ZM8.50004 12.4583C5.32317 12.4583 2.75004 9.88521 2.75004 6.70833C2.75004 3.53146 5.32317 0.958332 8.50004 0.958332C11.6769 0.958332 14.25 3.53146 14.25 6.70833C14.25 9.88521 11.6769 12.4583 8.50004 12.4583ZM8.50004 10.5417C10.618 10.5417 12.3334 8.82625 12.3334 6.70833C12.3334 4.59042 10.618 2.875 8.50004 2.875C6.38212 2.875 4.66671 4.59042 4.66671 6.70833C4.66671 8.82625 6.38212 10.5417 8.50004 10.5417Z" fill="white"/>
</svg>
