<svg id="Line_Icon" height="512" viewBox="0 0 64 64" width="512" xmlns="http://www.w3.org/2000/svg" data-name="Line Icon"><path d="m2.55 52.13c0 5.955 12.931 10.62 29.44 10.62s29.46-4.665 29.46-10.62c0-4.614-7.375-8.417-18.926-9.87a15.223 15.223 0 0 0 4.756-11.05c0-8.163-14.063-28.758-14.661-29.63a.779.779 0 0 0 -1.238 0c-.6.872-14.661 21.467-14.661 29.63a15.229 15.229 0 0 0 4.589 10.9c-11.276 1.544-18.759 5.497-18.759 10.02zm29.45-48.783c2.355 3.532 10.732 16.409 13.13 24.312l-.179-.145a4.815 4.815 0 0 0 -3.481-1.364 5.2 5.2 0 0 0 -3.606 1.412 3.842 3.842 0 0 1 -5.357 0 5.322 5.322 0 0 0 -7.224 0 3.744 3.744 0 0 1 -2.673 1.088 3.4 3.4 0 0 1 -2.523-1 8.411 8.411 0 0 0 -.983-.717c2.665-7.946 10.612-20.161 12.896-23.586zm-13.78 27.863a11.338 11.338 0 0 1 .431-2.78c.165.121.324.247.486.379a4.834 4.834 0 0 0 3.473 1.341 5.2 5.2 0 0 0 3.606-1.411 3.841 3.841 0 0 1 5.357 0 5.322 5.322 0 0 0 7.224 0 3.75 3.75 0 0 1 2.673-1.089 3.378 3.378 0 0 1 2.523 1.018 6.123 6.123 0 0 0 1.641 1.049 8.886 8.886 0 0 1 .146 1.493 13.78 13.78 0 0 1 -27.56 0zm13.78 15.28a15.2 15.2 0 0 0 4.643-.726c4.984.83 7.959 2.792 7.959 4.23 0 2.107-5.177 4.453-12.607 4.453s-12.595-2.347-12.595-4.453c0-1.317 3.223-3.372 7.867-4.264a15.2 15.2 0 0 0 4.733.76zm-9.15-3.072a15.219 15.219 0 0 0 2.084 1.327c-3.767 1.072-7.036 3.013-7.036 5.249 0 3.394 6.06 5.953 14.1 5.953s14.102-2.559 14.102-5.953c0-2.434-3.258-4.268-7.039-5.248a15.119 15.119 0 0 0 1.868-1.164c11.211 1.186 19.021 4.687 19.021 8.548 0 4.4-11.235 9.12-27.96 9.12s-27.94-4.716-27.94-9.12c0-3.784 7.902-7.443 18.8-8.712z"/></svg>